<?xml version="1.0" encoding="UTF-8"?><svg xmlns="http://www.w3.org/2000/svg" viewBox="0 0 614.4 409.5"><defs><style>.c{fill:#fff;}</style></defs><g id="a"><rect class="c" width="614.4" height="409.5"/></g><g id="b"><g><g><g><path d="M164.83,149.49l.12-.66h5.32l-.12,.66-2.21,.21-6.71,15.24h-.64l-1.72-13.78-6.48,13.78h-.64l-1.2-15.27-2.05-.19,.12-.66h5.68l-.12,.66-2.38,.21,.85,13.12,6.13-13.12-2.26-.21,.12-.66h5.7l-.12,.66-2.36,.21,1.53,13.24,5.68-13.24-2.24-.21Z"/><path d="M171.33,165.02c-.61,0-1.18-.14-1.7-.42-.52-.28-.93-.73-1.25-1.35-.31-.62-.47-1.43-.47-2.44,0-.94,.17-1.86,.49-2.74,.33-.89,.78-1.69,1.34-2.41s1.21-1.3,1.94-1.72c.73-.42,1.5-.64,2.3-.64,.64,0,1.17,.16,1.58,.48,.41,.32,.61,.81,.61,1.45,0,.97-.58,1.95-1.75,2.93-1.17,.98-3,1.82-5.5,2.51,.03,1.15,.29,1.99,.79,2.53,.49,.54,1.15,.81,1.97,.81,.71,0,1.33-.18,1.87-.54,.54-.36,1.02-.82,1.45-1.37l.38,.28c-.5,.77-1.09,1.4-1.77,1.9-.68,.49-1.44,.74-2.29,.74Zm2.38-11.05c-.52,0-1.05,.17-1.59,.51-.54,.34-1.04,.8-1.5,1.38-.46,.58-.84,1.23-1.14,1.96-.31,.72-.48,1.47-.53,2.24,2.1-.6,3.68-1.31,4.71-2.14,1.04-.83,1.55-1.68,1.55-2.54,0-.46-.14-.8-.41-1.04-.28-.24-.64-.35-1.1-.35Z"/><path d="M186,165.02c-.61,0-1.18-.15-1.7-.45-.52-.3-.93-.76-1.25-1.38-.31-.62-.47-1.41-.47-2.37s.17-1.94,.52-2.85c.35-.91,.8-1.72,1.38-2.41,.57-.7,1.22-1.25,1.93-1.66s1.44-.61,2.18-.61c.61,0,1.13,.16,1.54,.47,.42,.31,.68,.66,.79,1.04-.02,.19-.09,.33-.22,.42-.13,.09-.27,.14-.41,.14-.16,0-.31-.05-.46-.14s-.32-.24-.51-.42l-.9-.94c-.66,.11-1.28,.37-1.86,.79-.58,.42-1.09,.94-1.52,1.58-.43,.64-.77,1.33-1.01,2.08-.24,.75-.37,1.52-.37,2.29,0,1.15,.25,2,.75,2.57,.5,.57,1.19,.85,2.05,.85,.66,0,1.26-.18,1.79-.54,.53-.36,1-.82,1.41-1.37l.38,.28c-.49,.79-1.08,1.42-1.77,1.91-.69,.49-1.45,.73-2.29,.73Z"/><path d="M199.27,165.02c-.3,0-.56-.1-.78-.29-.22-.2-.33-.49-.33-.88,0-.3,.02-.57,.06-.81,.04-.24,.1-.55,.18-.91l.02-.12c-.68,.86-1.37,1.58-2.1,2.16-.72,.57-1.45,.86-2.19,.86-.58,0-1.11-.22-1.59-.66-.48-.44-.72-1.19-.72-2.26,0-.8,.14-1.61,.42-2.44,.28-.82,.66-1.62,1.14-2.38,.48-.76,1.02-1.44,1.64-2.04,.61-.6,1.26-1.07,1.93-1.43,.68-.35,1.34-.53,2-.53,.55,0,1.02,.21,1.41,.64l.68-.73,.28,.19-1.88,8.65c-.06,.25-.12,.51-.16,.77-.05,.26-.07,.49-.07,.7,0,.19,.06,.32,.19,.4,.13,.08,.27,.12,.45,.12,.38,0,.79-.18,1.25-.54,.46-.36,.9-.82,1.32-1.39l.4,.31c-.47,.71-1.01,1.32-1.61,1.85-.6,.53-1.25,.79-1.94,.79Zm-6.31-3.42c0,.86,.16,1.48,.47,1.85,.31,.37,.71,.55,1.2,.55,.61,0,1.23-.25,1.85-.74,.62-.49,1.33-1.21,2.13-2.16l1.37-6.38c-.44-.31-.91-.47-1.41-.47-.55,0-1.1,.14-1.66,.42-.56,.28-1.08,.67-1.57,1.15-.71,.72-1.28,1.6-1.72,2.63-.44,1.03-.66,2.08-.66,3.14Z"/><path d="M205.72,164.71l-.92,.14-.17-.14,2.14-10.15-2.69-.09,.07-.47,3.56-.71,.31,.24-.49,2.52c.57-.55,1.15-1.03,1.76-1.44,.6-.41,1.19-.73,1.77-.97,.57-.24,1.07-.35,1.5-.35,.5,0,.88,.14,1.13,.41,.25,.27,.38,.66,.38,1.14,0,.38-.04,.75-.12,1.11-.08,.36-.17,.76-.28,1.2l-1.15,4.88c-.06,.27-.13,.53-.19,.79-.06,.26-.09,.47-.09,.65,0,.36,.2,.54,.61,.54,.36,0,.77-.17,1.21-.52,.45-.35,.9-.81,1.35-1.39l.38,.28c-.49,.71-1.03,1.32-1.64,1.85-.6,.53-1.27,.79-1.99,.79-.31,0-.57-.09-.77-.27-.2-.18-.29-.41-.29-.7,0-.3,.03-.57,.08-.8s.14-.56,.25-.97l1.13-4.85c.08-.39,.16-.77,.24-1.13,.08-.36,.12-.68,.12-.97,0-.39-.08-.67-.24-.82-.16-.16-.39-.24-.68-.24-.53,0-1.17,.19-1.9,.58-.73,.38-1.63,1.02-2.7,1.92l-.68,3.04c-.19,.82-.36,1.63-.51,2.44-.15,.81-.31,1.63-.48,2.46Z"/><path d="M220.14,147.75c.13,0,.25,.02,.38,.05,.13,.03,.25,.1,.38,.21,.08,.13,.13,.29,.16,.48,.03,.2,.05,.38,.05,.55,0,.88-.27,1.7-.8,2.45-.53,.75-1.23,1.48-2.1,2.17l-.33-.42c.55-.52,1-.99,1.34-1.41,.34-.42,.64-.95,.9-1.58l-.38-.47c-.33-.38-.49-.71-.49-.99,0-.31,.09-.57,.27-.75,.18-.19,.39-.28,.62-.28Z"/><path d="M222.92,162.28l1.7-7.99h-2.71l.12-.59,2.8-.19,.87-3.16h.8l-.66,3.16h3.18l-.12,.87-3.25-.09-1.63,7.73c-.06,.25-.12,.5-.17,.75-.05,.25-.07,.46-.07,.64,0,.39,.21,.59,.64,.59,.36,0,.76-.17,1.2-.51,.44-.34,.9-.8,1.39-1.4l.35,.28c-.49,.71-1.03,1.32-1.63,1.85-.6,.53-1.26,.79-1.98,.79-.3,0-.55-.09-.77-.28-.21-.19-.32-.45-.32-.78,0-.25,.02-.49,.05-.72,.03-.23,.09-.55,.19-.95Z"/><path d="M242.5,162.02c-.05,.25-.09,.5-.13,.75-.04,.25-.06,.46-.06,.64,0,.39,.21,.59,.64,.59,.36,0,.77-.17,1.23-.52,.45-.35,.91-.81,1.37-1.39l.35,.28c-.47,.69-1.01,1.3-1.61,1.84-.6,.53-1.26,.8-1.97,.8-.31,0-.58-.09-.79-.28-.21-.19-.32-.46-.32-.82,0-.22,.02-.44,.05-.67,.03-.23,.09-.55,.16-.95l.14-.68c-.5,.64-1.04,1.23-1.61,1.74s-1.15,.93-1.72,1.22c-.57,.3-1.12,.45-1.64,.45-.6,0-1.1-.22-1.51-.65-.41-.43-.61-1.17-.61-2.23,0-.8,.14-1.62,.42-2.46,.28-.84,.67-1.64,1.15-2.4,.49-.76,1.04-1.44,1.66-2.04,.62-.6,1.28-1.07,1.97-1.43,.69-.35,1.37-.53,2.05-.53,.55,0,1.02,.17,1.41,.49l1.06-5.35-2.66-.12,.09-.47,3.56-.68,.26,.21-2.94,14.65Zm-6.93-.35c0,.82,.14,1.41,.42,1.78,.28,.37,.66,.55,1.13,.55,.68,0,1.37-.27,2.1-.82,.72-.55,1.56-1.36,2.5-2.43l1.18-5.91c-.25-.22-.51-.37-.78-.46-.27-.09-.53-.13-.78-.13-.69,0-1.36,.19-2.01,.57-.65,.38-1.24,.87-1.75,1.48-.6,.72-1.08,1.55-1.45,2.5-.37,.94-.55,1.9-.55,2.87Z"/><path d="M250.62,165.02c-.61,0-1.2-.14-1.76-.42-.56-.28-1.02-.73-1.38-1.34-.36-.61-.54-1.4-.54-2.36s.14-1.89,.44-2.8c.29-.91,.7-1.73,1.22-2.45,.53-.72,1.14-1.3,1.85-1.72,.71-.42,1.47-.64,2.29-.64,1.02,0,1.88,.33,2.59,1,.71,.67,1.06,1.72,1.06,3.17,0,.99-.15,1.94-.45,2.85-.3,.91-.71,1.72-1.24,2.43-.53,.71-1.14,1.26-1.84,1.67-.7,.41-1.45,.61-2.25,.61Zm.14-.66c.66,0,1.26-.2,1.8-.59,.54-.39,1.01-.91,1.41-1.55,.4-.64,.71-1.36,.93-2.14,.22-.79,.33-1.57,.33-2.36,0-1.33-.24-2.29-.73-2.87-.49-.58-1.12-.87-1.88-.87-.66,0-1.26,.19-1.81,.58-.55,.39-1.03,.9-1.44,1.56s-.72,1.38-.94,2.18-.33,1.61-.33,2.43c0,1.27,.26,2.2,.78,2.78,.52,.58,1.15,.87,1.88,.87Z"/><path d="M270.72,165.02c-.3,0-.56-.1-.78-.29s-.33-.49-.33-.88c0-.3,.02-.57,.06-.81,.04-.24,.1-.55,.18-.91l.02-.12c-.68,.86-1.37,1.58-2.1,2.16-.72,.57-1.45,.86-2.19,.86-.58,0-1.11-.22-1.59-.66s-.72-1.19-.72-2.26c0-.8,.14-1.61,.42-2.44,.28-.82,.66-1.62,1.14-2.38,.48-.76,1.02-1.44,1.64-2.04,.61-.6,1.26-1.07,1.93-1.43,.68-.35,1.34-.53,2-.53,.55,0,1.02,.21,1.41,.64l.68-.73,.28,.19-1.88,8.65c-.06,.25-.12,.51-.16,.77s-.07,.49-.07,.7c0,.19,.06,.32,.19,.4,.13,.08,.27,.12,.45,.12,.38,0,.79-.18,1.25-.54,.45-.36,.9-.82,1.32-1.39l.4,.31c-.47,.71-1.01,1.32-1.61,1.85-.6,.53-1.25,.79-1.94,.79Zm-6.31-3.42c0,.86,.16,1.48,.47,1.85,.31,.37,.71,.55,1.2,.55,.61,0,1.23-.25,1.85-.74,.62-.49,1.33-1.21,2.13-2.16l1.37-6.38c-.44-.31-.91-.47-1.41-.47-.55,0-1.1,.14-1.66,.42-.56,.28-1.08,.67-1.57,1.15-.71,.72-1.28,1.6-1.72,2.63-.44,1.03-.66,2.08-.66,3.14Z"/><path d="M276.09,164.71l2.14-10.15-2.69-.09,.07-.47,3.49-.71,.31,.24-.64,3.42c.35-.63,.72-1.22,1.12-1.78,.4-.56,.82-1.01,1.27-1.35,.45-.35,.9-.52,1.35-.52,.74,0,1.23,.2,1.46,.59-.02,.27-.09,.48-.24,.65-.14,.17-.35,.25-.61,.25-.25,0-.5-.05-.74-.16-.24-.11-.48-.25-.72-.42-.57,.39-1.11,.94-1.64,1.65-.53,.71-1.04,1.52-1.54,2.43l-.33,1.55c-.17,.82-.34,1.63-.49,2.44-.16,.81-.32,1.63-.49,2.46l-.92,.14-.16-.14Z"/><path d="M285.56,162.28l1.7-7.99h-2.71l.12-.59,2.8-.19,.87-3.16h.8l-.66,3.16h3.18l-.12,.87-3.25-.09-1.63,7.73c-.06,.25-.12,.5-.16,.75-.05,.25-.07,.46-.07,.64,0,.39,.21,.59,.64,.59,.36,0,.76-.17,1.2-.51,.44-.34,.9-.8,1.39-1.4l.35,.28c-.49,.71-1.03,1.32-1.63,1.85-.6,.53-1.26,.79-1.98,.79-.3,0-.55-.09-.77-.28-.21-.19-.32-.45-.32-.78,0-.25,.02-.49,.05-.72,.03-.23,.09-.55,.19-.95Z"/><path d="M300.21,164.8c-.03-2.01-.08-3.73-.15-5.17-.07-1.44-.19-2.78-.36-4.02-.06-.55-.16-.91-.31-1.07-.14-.16-.32-.25-.54-.25-.25,0-.51,.12-.79,.35s-.62,.71-1.02,1.44l-.4-.24c.41-.91,.83-1.57,1.26-1.97,.43-.4,.89-.6,1.38-.6,.42,0,.75,.14,.99,.41,.24,.27,.4,.76,.49,1.45,.14,1.13,.24,2.38,.31,3.73,.06,1.36,.09,2.81,.09,4.35,.97-1.46,1.9-2.98,2.77-4.56,.87-1.58,1.68-3.27,2.44-5.08h.57c.03,.71,.07,1.5,.12,2.37,.05,.87,.09,1.77,.13,2.69s.07,1.79,.11,2.61c.03,.82,.05,1.54,.07,2.16,.61-.74,1.16-1.43,1.64-2.07s.93-1.3,1.34-1.98c.42-.68,.82-1.41,1.21-2.21,.08-.16,.14-.31,.2-.45,.05-.14,.11-.29,.18-.45l-.14-.75c-.08-.39-.12-.75-.12-1.06,0-.39,.09-.68,.28-.87,.19-.19,.4-.28,.64-.28,.25,.02,.42,.09,.52,.21,.08,.14,.12,.38,.12,.71,0,.27-.06,.64-.17,1.13-.11,.49-.4,1.19-.87,2.12-.58,1.21-1.31,2.43-2.19,3.65-.88,1.22-1.91,2.47-3.09,3.75l-.38,.05-.12-.09c-.03-.9-.07-1.86-.13-2.91-.06-1.04-.11-2.06-.15-3.05-.05-.99-.09-1.85-.14-2.59-.38,.79-.84,1.66-1.38,2.63-.54,.97-1.14,1.96-1.79,2.98-.65,1.02-1.35,2.02-2.09,2.99l-.38,.05-.14-.09Z"/><path d="M314.44,164.85l-.16-.14,2.38-11.8c.16-.75,.31-1.5,.45-2.25,.14-.75,.27-1.5,.4-2.25l-2.59-.09,.07-.47,3.63-.68,.24,.21-1.77,8.67c.57-.55,1.15-1.03,1.76-1.44,.6-.41,1.19-.73,1.75-.97,.57-.24,1.06-.35,1.48-.35,.5,0,.88,.14,1.14,.41,.26,.27,.39,.66,.39,1.14,0,.38-.04,.75-.13,1.11-.09,.36-.18,.76-.27,1.2l-1.15,4.88c-.06,.27-.13,.53-.19,.79-.06,.26-.09,.47-.09,.65,0,.36,.2,.54,.59,.54,.36,0,.77-.17,1.21-.52,.45-.35,.91-.81,1.38-1.39l.35,.28c-.47,.71-1.01,1.32-1.63,1.85-.61,.53-1.27,.79-1.98,.79-.31,0-.57-.09-.77-.27-.2-.18-.29-.41-.29-.7,0-.3,.03-.57,.08-.8,.06-.24,.13-.56,.22-.97l1.15-4.85c.08-.39,.16-.77,.24-1.13,.08-.36,.12-.68,.12-.97,0-.39-.08-.67-.24-.82-.16-.16-.39-.24-.71-.24-.53,0-1.17,.19-1.9,.58s-1.63,1.03-2.7,1.94l-.61,3.02c-.16,.82-.32,1.63-.48,2.45s-.32,1.63-.46,2.45l-.92,.14Z"/><path d="M330.11,165.02c-.61,0-1.18-.14-1.7-.42-.52-.28-.93-.73-1.25-1.35-.31-.62-.47-1.43-.47-2.44,0-.94,.17-1.86,.49-2.74,.33-.89,.78-1.69,1.34-2.41,.57-.72,1.21-1.3,1.94-1.72,.73-.42,1.5-.64,2.3-.64,.64,0,1.17,.16,1.58,.48,.41,.32,.61,.81,.61,1.45,0,.97-.58,1.95-1.75,2.93s-3,1.82-5.5,2.51c.03,1.15,.29,1.99,.79,2.53,.49,.54,1.15,.81,1.97,.81,.71,0,1.33-.18,1.87-.54,.54-.36,1.02-.82,1.45-1.37l.38,.28c-.5,.77-1.09,1.4-1.77,1.9-.68,.49-1.44,.74-2.29,.74Zm2.38-11.05c-.52,0-1.05,.17-1.59,.51-.54,.34-1.04,.8-1.5,1.38-.46,.58-.84,1.23-1.14,1.96-.31,.72-.48,1.47-.53,2.24,2.1-.6,3.68-1.31,4.71-2.14,1.04-.83,1.55-1.68,1.55-2.54,0-.46-.14-.8-.41-1.04s-.64-.35-1.1-.35Z"/><path d="M337.77,164.71l-.92,.14-.16-.14,2.14-10.15-2.69-.09,.07-.47,3.56-.71,.31,.24-.49,2.52c.57-.55,1.15-1.03,1.76-1.44,.6-.41,1.19-.73,1.77-.97,.57-.24,1.07-.35,1.5-.35,.5,0,.88,.14,1.13,.41,.25,.27,.38,.66,.38,1.14,0,.38-.04,.75-.12,1.11-.08,.36-.17,.76-.28,1.2l-1.15,4.88c-.06,.27-.13,.53-.19,.79-.06,.26-.09,.47-.09,.65,0,.36,.2,.54,.61,.54,.36,0,.77-.17,1.21-.52,.45-.35,.9-.81,1.35-1.39l.38,.28c-.49,.71-1.03,1.32-1.64,1.85-.6,.53-1.27,.79-1.99,.79-.31,0-.57-.09-.77-.27-.2-.18-.29-.41-.29-.7,0-.3,.03-.57,.08-.8,.05-.24,.14-.56,.25-.97l1.13-4.85c.08-.39,.16-.77,.24-1.13,.08-.36,.12-.68,.12-.97,0-.39-.08-.67-.24-.82-.16-.16-.38-.24-.68-.24-.53,0-1.17,.19-1.9,.58s-1.63,1.02-2.7,1.92l-.68,3.04c-.19,.82-.36,1.63-.51,2.44-.15,.81-.31,1.63-.48,2.46Z"/><path d="M357.32,164.8c-.03-2.01-.08-3.73-.15-5.17-.07-1.44-.19-2.78-.36-4.02-.06-.55-.16-.91-.31-1.07-.14-.16-.32-.25-.54-.25-.25,0-.51,.12-.79,.35s-.62,.71-1.02,1.44l-.4-.24c.41-.91,.83-1.57,1.26-1.97,.43-.4,.89-.6,1.38-.6,.42,0,.75,.14,.99,.41s.4,.76,.49,1.45c.14,1.13,.24,2.38,.31,3.73,.06,1.36,.09,2.81,.09,4.35,.97-1.46,1.9-2.98,2.77-4.56,.87-1.58,1.68-3.27,2.44-5.08h.57c.03,.71,.07,1.5,.12,2.37,.05,.87,.09,1.77,.13,2.69s.07,1.79,.11,2.61c.03,.82,.05,1.54,.07,2.16,.61-.74,1.16-1.43,1.64-2.07s.93-1.3,1.34-1.98c.42-.68,.82-1.41,1.21-2.21,.08-.16,.14-.31,.2-.45,.05-.14,.11-.29,.18-.45l-.14-.75c-.08-.39-.12-.75-.12-1.06,0-.39,.09-.68,.28-.87,.19-.19,.4-.28,.64-.28,.25,.02,.42,.09,.52,.21,.08,.14,.12,.38,.12,.71,0,.27-.06,.64-.17,1.13-.11,.49-.4,1.19-.87,2.12-.58,1.21-1.31,2.43-2.19,3.65-.88,1.22-1.91,2.47-3.09,3.75l-.38,.05-.12-.09c-.03-.9-.07-1.86-.13-2.91-.06-1.04-.11-2.06-.15-3.05-.05-.99-.09-1.85-.14-2.59-.38,.79-.84,1.66-1.38,2.63-.54,.97-1.14,1.96-1.79,2.98-.65,1.02-1.35,2.02-2.09,2.99l-.38,.05-.14-.09Z"/><path d="M374.7,165.02c-.61,0-1.18-.14-1.7-.42-.52-.28-.93-.73-1.25-1.35-.31-.62-.47-1.43-.47-2.44,0-.94,.17-1.86,.49-2.74,.33-.89,.78-1.69,1.34-2.41,.57-.72,1.21-1.3,1.94-1.72,.73-.42,1.5-.64,2.3-.64,.64,0,1.17,.16,1.58,.48,.41,.32,.61,.81,.61,1.45,0,.97-.58,1.95-1.75,2.93s-3,1.82-5.5,2.51c.03,1.15,.29,1.99,.79,2.53,.49,.54,1.15,.81,1.97,.81,.71,0,1.33-.18,1.87-.54,.54-.36,1.02-.82,1.45-1.37l.38,.28c-.5,.77-1.09,1.4-1.77,1.9-.68,.49-1.44,.74-2.29,.74Zm2.38-11.05c-.52,0-1.05,.17-1.59,.51-.54,.34-1.04,.8-1.5,1.38-.46,.58-.84,1.23-1.14,1.96-.31,.72-.48,1.47-.53,2.24,2.1-.6,3.68-1.31,4.71-2.14,1.04-.83,1.55-1.68,1.55-2.54,0-.46-.14-.8-.41-1.04s-.64-.35-1.1-.35Z"/><path d="M384.69,147.75c.13,0,.25,.02,.38,.05,.13,.03,.25,.1,.38,.21,.08,.13,.13,.29,.16,.48,.03,.2,.05,.38,.05,.55,0,.88-.27,1.7-.8,2.45-.53,.75-1.23,1.48-2.1,2.17l-.33-.42c.55-.52,1-.99,1.34-1.41s.64-.95,.9-1.58l-.38-.47c-.33-.38-.49-.71-.49-.99,0-.31,.09-.57,.27-.75,.18-.19,.39-.28,.62-.28Z"/><path d="M386.91,164.71l2.14-10.15-2.69-.09,.07-.47,3.49-.71,.31,.24-.64,3.42c.35-.63,.72-1.22,1.12-1.78,.4-.56,.82-1.01,1.27-1.35,.45-.35,.9-.52,1.35-.52,.74,0,1.23,.2,1.46,.59-.02,.27-.09,.48-.24,.65-.14,.17-.35,.25-.61,.25-.25,0-.5-.05-.74-.16-.24-.11-.48-.25-.72-.42-.57,.39-1.11,.94-1.64,1.65-.53,.71-1.04,1.52-1.54,2.43l-.33,1.55c-.17,.82-.34,1.63-.49,2.44-.16,.81-.32,1.63-.49,2.46l-.92,.14-.16-.14Z"/><path d="M398.08,165.02c-.61,0-1.18-.14-1.7-.42-.52-.28-.93-.73-1.25-1.35-.31-.62-.47-1.43-.47-2.44,0-.94,.17-1.86,.49-2.74,.33-.89,.78-1.69,1.34-2.41,.57-.72,1.21-1.3,1.94-1.72,.73-.42,1.5-.64,2.3-.64,.64,0,1.17,.16,1.58,.48,.41,.32,.61,.81,.61,1.45,0,.97-.58,1.95-1.75,2.93s-3,1.82-5.5,2.51c.03,1.15,.29,1.99,.79,2.53,.49,.54,1.15,.81,1.97,.81,.71,0,1.33-.18,1.87-.54,.54-.36,1.02-.82,1.45-1.37l.38,.28c-.5,.77-1.09,1.4-1.77,1.9-.68,.49-1.44,.74-2.29,.74Zm2.38-11.05c-.52,0-1.05,.17-1.59,.51-.54,.34-1.04,.8-1.5,1.38-.46,.58-.84,1.23-1.14,1.96-.31,.72-.48,1.47-.53,2.24,2.1-.6,3.68-1.31,4.71-2.14,1.04-.83,1.55-1.68,1.55-2.54,0-.46-.14-.8-.41-1.04s-.64-.35-1.1-.35Z"/><path d="M410.94,164.71l-.92,.14-.16-.14,2.14-10.15-2.69-.09,.07-.47,3.56-.71,.31,.24-.49,2.52c.57-.55,1.15-1.03,1.76-1.44,.6-.41,1.19-.73,1.77-.97,.57-.24,1.07-.35,1.5-.35,.5,0,.88,.14,1.13,.41,.25,.27,.38,.66,.38,1.14,0,.38-.04,.75-.12,1.11-.08,.36-.17,.76-.28,1.2l-1.15,4.88c-.06,.27-.13,.53-.19,.79-.06,.26-.09,.47-.09,.65,0,.36,.2,.54,.61,.54,.36,0,.77-.17,1.21-.52,.45-.35,.9-.81,1.35-1.39l.38,.28c-.49,.71-1.03,1.32-1.64,1.85-.6,.53-1.27,.79-1.99,.79-.31,0-.57-.09-.77-.27-.2-.18-.29-.41-.29-.7,0-.3,.03-.57,.08-.8,.05-.24,.14-.56,.25-.97l1.13-4.85c.08-.39,.16-.77,.24-1.13,.08-.36,.12-.68,.12-.97,0-.39-.08-.67-.24-.82-.16-.16-.38-.24-.68-.24-.53,0-1.17,.19-1.9,.58s-1.63,1.02-2.7,1.92l-.68,3.04c-.19,.82-.36,1.63-.51,2.44-.15,.81-.31,1.63-.48,2.46Z"/><path d="M425.99,165.02c-.61,0-1.2-.14-1.76-.42-.56-.28-1.02-.73-1.38-1.34-.36-.61-.54-1.4-.54-2.36s.14-1.89,.44-2.8c.29-.91,.7-1.73,1.22-2.45,.53-.72,1.14-1.3,1.85-1.72,.71-.42,1.47-.64,2.29-.64,1.02,0,1.88,.33,2.59,1,.71,.67,1.06,1.72,1.06,3.17,0,.99-.15,1.94-.45,2.85-.3,.91-.71,1.72-1.24,2.43-.53,.71-1.14,1.26-1.84,1.67-.7,.41-1.45,.61-2.25,.61Zm.14-.66c.66,0,1.26-.2,1.8-.59,.54-.39,1.01-.91,1.41-1.55,.4-.64,.71-1.36,.93-2.14,.22-.79,.33-1.57,.33-2.36,0-1.33-.24-2.29-.73-2.87-.49-.58-1.12-.87-1.88-.87-.66,0-1.26,.19-1.81,.58-.55,.39-1.03,.9-1.44,1.56s-.72,1.38-.94,2.18-.33,1.61-.33,2.43c0,1.27,.26,2.2,.78,2.78,.52,.58,1.15,.87,1.88,.87Z"/><path d="M434.66,162.28l1.7-7.99h-2.71l.12-.59,2.8-.19,.87-3.16h.8l-.66,3.16h3.18l-.12,.87-3.25-.09-1.63,7.73c-.06,.25-.12,.5-.16,.75-.05,.25-.07,.46-.07,.64,0,.39,.21,.59,.64,.59,.36,0,.76-.17,1.2-.51,.44-.34,.9-.8,1.39-1.4l.35,.28c-.49,.71-1.03,1.32-1.63,1.85-.6,.53-1.26,.79-1.98,.79-.3,0-.55-.09-.77-.28-.21-.19-.32-.45-.32-.78,0-.25,.02-.49,.05-.72,.03-.23,.09-.55,.19-.95Z"/><path d="M129.92,192.98l2.14-10.15-2.69-.09,.07-.47,3.49-.71,.31,.24-.64,3.42c.35-.63,.72-1.22,1.12-1.78,.4-.56,.82-1.01,1.27-1.35,.45-.35,.9-.52,1.35-.52,.74,0,1.22,.2,1.46,.59-.02,.27-.09,.48-.24,.65-.14,.17-.35,.25-.61,.25-.25,0-.5-.05-.74-.16-.24-.11-.48-.25-.72-.42-.57,.39-1.11,.94-1.64,1.65-.53,.71-1.04,1.52-1.54,2.43l-.33,1.55c-.17,.82-.34,1.63-.49,2.44-.16,.81-.32,1.63-.49,2.46l-.92,.14-.17-.14Z"/><path d="M141.09,193.29c-.61,0-1.18-.14-1.7-.42-.52-.28-.93-.73-1.25-1.35-.31-.62-.47-1.43-.47-2.44,0-.94,.17-1.86,.49-2.74,.33-.89,.78-1.69,1.34-2.41s1.21-1.3,1.94-1.72c.73-.42,1.5-.64,2.3-.64,.64,0,1.17,.16,1.58,.48,.41,.32,.61,.81,.61,1.45,0,.97-.58,1.95-1.75,2.93-1.17,.98-3,1.82-5.5,2.51,.03,1.15,.29,1.99,.79,2.53,.49,.54,1.15,.81,1.97,.81,.71,0,1.33-.18,1.87-.54,.54-.36,1.02-.82,1.45-1.37l.38,.28c-.5,.77-1.09,1.4-1.77,1.9-.68,.49-1.44,.74-2.29,.74Zm2.38-11.05c-.52,0-1.05,.17-1.59,.51-.54,.34-1.04,.8-1.5,1.38-.46,.58-.84,1.23-1.14,1.96-.31,.72-.48,1.47-.53,2.24,2.1-.6,3.68-1.31,4.71-2.14,1.04-.83,1.55-1.68,1.55-2.54,0-.46-.14-.8-.41-1.04-.28-.24-.64-.35-1.1-.35Z"/><path d="M154.35,193.29c-.3,0-.56-.1-.78-.29-.22-.2-.33-.49-.33-.88,0-.3,.02-.57,.06-.81,.04-.24,.1-.55,.18-.91l.02-.12c-.68,.86-1.37,1.58-2.1,2.16-.72,.57-1.45,.86-2.19,.86-.58,0-1.11-.22-1.59-.66-.48-.44-.72-1.19-.72-2.26,0-.8,.14-1.61,.42-2.44,.28-.82,.66-1.62,1.14-2.38,.48-.76,1.02-1.44,1.64-2.04,.61-.6,1.26-1.07,1.93-1.43,.68-.35,1.34-.53,2-.53,.55,0,1.02,.21,1.41,.64l.68-.73,.28,.19-1.88,8.65c-.06,.25-.12,.51-.16,.77-.05,.26-.07,.49-.07,.7,0,.19,.06,.32,.19,.4,.13,.08,.27,.12,.45,.12,.38,0,.79-.18,1.25-.54,.46-.36,.9-.82,1.32-1.39l.4,.31c-.47,.71-1.01,1.32-1.61,1.85-.6,.53-1.25,.79-1.94,.79Zm-6.31-3.42c0,.86,.16,1.48,.47,1.85,.31,.37,.71,.55,1.2,.55,.61,0,1.23-.25,1.85-.74,.62-.49,1.33-1.21,2.13-2.16l1.37-6.38c-.44-.31-.91-.47-1.41-.47-.55,0-1.1,.14-1.66,.42-.56,.28-1.08,.67-1.57,1.15-.71,.72-1.28,1.6-1.72,2.63-.44,1.03-.66,2.08-.66,3.14Z"/><path d="M167.05,190.29c-.05,.25-.09,.5-.13,.75-.04,.25-.06,.46-.06,.64,0,.39,.21,.59,.64,.59,.36,0,.77-.17,1.22-.52,.46-.35,.91-.81,1.37-1.39l.35,.28c-.47,.69-1.01,1.3-1.61,1.84-.6,.53-1.26,.8-1.97,.8-.31,0-.58-.09-.79-.28-.21-.19-.32-.46-.32-.82,0-.22,.02-.44,.05-.67,.03-.23,.09-.55,.17-.95l.14-.68c-.5,.64-1.04,1.23-1.61,1.74-.57,.52-1.15,.93-1.72,1.22-.57,.3-1.12,.45-1.64,.45-.6,0-1.1-.22-1.51-.65s-.61-1.17-.61-2.23c0-.8,.14-1.62,.42-2.46,.28-.84,.67-1.64,1.15-2.4,.49-.76,1.04-1.44,1.66-2.04,.62-.6,1.28-1.07,1.97-1.43,.69-.35,1.37-.53,2.05-.53,.55,0,1.02,.17,1.41,.49l1.06-5.35-2.66-.12,.09-.47,3.56-.68,.26,.21-2.94,14.65Zm-6.93-.35c0,.82,.14,1.41,.42,1.78,.28,.37,.66,.55,1.13,.55,.68,0,1.37-.27,2.1-.82,.72-.55,1.55-1.36,2.5-2.43l1.18-5.91c-.25-.22-.51-.37-.78-.46s-.53-.13-.78-.13c-.69,0-1.36,.19-2.01,.57-.65,.38-1.24,.87-1.76,1.48-.6,.72-1.08,1.55-1.45,2.5-.37,.94-.55,1.9-.55,2.87Z"/><path d="M168.08,197.62c.05-.25,.16-.44,.33-.55s.38-.18,.61-.18c.22,0,.43,.05,.64,.14,.2,.09,.43,.24,.68,.42l.31,.24c.72-.41,1.41-.94,2.07-1.6,.72-.72,1.41-1.56,2.07-2.5-.06-1.23-.14-2.32-.22-3.29-.09-.97-.18-1.88-.28-2.76-.1-.87-.22-1.78-.37-2.72-.09-.64-.18-1.13-.26-1.45-.08-.32-.17-.54-.27-.65-.1-.11-.24-.17-.41-.17-.22,0-.47,.11-.74,.33-.28,.22-.62,.71-1.05,1.46l-.4-.24c.42-.94,.86-1.61,1.31-1.99,.45-.38,.9-.58,1.35-.58s.77,.17,1,.49c.23,.33,.4,1.01,.51,2.03,.16,1.32,.29,2.65,.39,3.98,.1,1.33,.18,2.75,.25,4.24,.91-1.59,1.7-3.07,2.36-4.44,.66-1.37,1.13-2.55,1.41-3.52,.25-.8,.46-1.4,.61-1.8,.16-.4,.3-.67,.42-.81s.27-.21,.42-.21c.39,0,.59,.18,.59,.54,0,.17-.02,.35-.07,.53-.05,.18-.15,.43-.31,.74-.2,.46-.42,.91-.65,1.37-.23,.46-.52,1.03-.88,1.72-.47,.91-.9,1.73-1.3,2.46-.39,.73-.77,1.41-1.13,2.05-.36,.64-.75,1.28-1.15,1.92-.44,.68-.88,1.3-1.31,1.88-.43,.58-.92,1.17-1.47,1.77-.6,.63-1.21,1.15-1.85,1.58-.64,.42-1.21,.64-1.71,.64-.41,0-.75-.1-1.01-.29-.27-.2-.43-.46-.49-.79Z"/><path d="M183.04,193.15c-.3,0-.53-.09-.71-.27-.17-.18-.26-.4-.26-.65,0-.31,.11-.58,.34-.79,.23-.21,.5-.32,.81-.32,.28,0,.51,.09,.67,.27,.17,.18,.25,.4,.25,.65,0,.33-.11,.6-.32,.8s-.48,.31-.79,.31Z"/><path d="M210.18,177.76l.12-.66h5.32l-.12,.66-2.21,.21-6.71,15.24h-.64l-1.72-13.78-6.48,13.78h-.64l-1.2-15.27-2.05-.19,.12-.66h5.68l-.12,.66-2.38,.21,.85,13.12,6.13-13.12-2.26-.21,.12-.66h5.7l-.12,.66-2.36,.21,1.53,13.24,5.68-13.24-2.24-.21Z"/><path d="M216.68,193.29c-.61,0-1.18-.14-1.7-.42-.52-.28-.93-.73-1.25-1.35-.31-.62-.47-1.43-.47-2.44,0-.94,.17-1.86,.49-2.74,.33-.89,.78-1.69,1.34-2.41s1.21-1.3,1.94-1.72c.73-.42,1.5-.64,2.3-.64,.64,0,1.17,.16,1.58,.48,.41,.32,.61,.81,.61,1.45,0,.97-.58,1.95-1.75,2.93-1.17,.98-3,1.82-5.5,2.51,.03,1.15,.29,1.99,.79,2.53,.49,.54,1.15,.81,1.97,.81,.71,0,1.33-.18,1.87-.54,.54-.36,1.02-.82,1.45-1.37l.38,.28c-.5,.77-1.09,1.4-1.77,1.9-.68,.49-1.44,.74-2.29,.74Zm2.38-11.05c-.52,0-1.05,.17-1.59,.51-.54,.34-1.04,.8-1.5,1.38-.46,.58-.84,1.23-1.14,1.96-.31,.72-.48,1.47-.53,2.24,2.1-.6,3.68-1.31,4.71-2.14,1.04-.83,1.55-1.68,1.55-2.54,0-.46-.14-.8-.41-1.04-.28-.24-.64-.35-1.1-.35Z"/><path d="M226.67,176.02c.13,0,.25,.02,.38,.05,.13,.03,.25,.1,.38,.21,.08,.13,.13,.29,.16,.48,.03,.2,.05,.38,.05,.55,0,.88-.27,1.7-.8,2.45-.53,.75-1.23,1.48-2.1,2.17l-.33-.42c.55-.52,1-.99,1.34-1.41,.34-.42,.64-.95,.9-1.58l-.38-.47c-.33-.38-.49-.71-.49-.99,0-.31,.09-.57,.27-.75,.18-.19,.39-.28,.62-.28Z"/><path d="M228.89,192.98l2.14-10.15-2.69-.09,.07-.47,3.49-.71,.31,.24-.64,3.42c.35-.63,.72-1.22,1.12-1.78,.4-.56,.82-1.01,1.27-1.35,.45-.35,.9-.52,1.35-.52,.74,0,1.23,.2,1.46,.59-.02,.27-.09,.48-.23,.65-.14,.17-.35,.25-.61,.25-.25,0-.5-.05-.74-.16-.24-.11-.48-.25-.72-.42-.57,.39-1.11,.94-1.64,1.65-.53,.71-1.04,1.52-1.54,2.43l-.33,1.55c-.17,.82-.34,1.63-.49,2.44-.16,.81-.32,1.63-.49,2.46l-.92,.14-.17-.14Z"/><path d="M240.05,193.29c-.61,0-1.18-.14-1.7-.42-.52-.28-.93-.73-1.25-1.35-.31-.62-.47-1.43-.47-2.44,0-.94,.17-1.86,.49-2.74,.33-.89,.78-1.69,1.34-2.41,.57-.72,1.21-1.3,1.94-1.72,.73-.42,1.5-.64,2.3-.64,.64,0,1.17,.16,1.58,.48,.41,.32,.61,.81,.61,1.45,0,.97-.58,1.95-1.75,2.93s-3,1.82-5.5,2.51c.03,1.15,.29,1.99,.79,2.53,.49,.54,1.15,.81,1.97,.81,.71,0,1.33-.18,1.87-.54,.54-.36,1.02-.82,1.45-1.37l.38,.28c-.5,.77-1.09,1.4-1.77,1.9-.68,.49-1.44,.74-2.29,.74Zm2.38-11.05c-.52,0-1.05,.17-1.59,.51-.54,.34-1.04,.8-1.5,1.38-.46,.58-.84,1.23-1.14,1.96-.31,.72-.48,1.47-.53,2.24,2.1-.6,3.68-1.31,4.71-2.14,1.04-.83,1.55-1.68,1.55-2.54,0-.46-.14-.8-.41-1.04s-.64-.35-1.1-.35Z"/><path d="M252.92,192.98l-.92,.14-.16-.14,2.14-10.15-2.69-.09,.07-.47,3.56-.71,.31,.24-.49,2.52c.57-.55,1.15-1.03,1.76-1.44,.6-.41,1.19-.73,1.77-.97s1.07-.35,1.5-.35c.5,0,.88,.14,1.13,.41,.25,.27,.38,.66,.38,1.14,0,.38-.04,.75-.12,1.11-.08,.36-.17,.76-.28,1.2l-1.15,4.88c-.06,.27-.13,.53-.19,.79-.06,.26-.09,.47-.09,.65,0,.36,.2,.54,.61,.54,.36,0,.77-.17,1.21-.52,.45-.35,.9-.81,1.35-1.39l.38,.28c-.49,.71-1.03,1.32-1.64,1.85-.6,.53-1.27,.79-1.99,.79-.31,0-.57-.09-.77-.27-.2-.18-.29-.41-.29-.7,0-.3,.03-.57,.08-.8,.05-.24,.14-.56,.25-.97l1.13-4.85c.08-.39,.16-.77,.24-1.13,.08-.36,.12-.68,.12-.97,0-.39-.08-.67-.24-.82-.16-.16-.38-.24-.68-.24-.53,0-1.17,.19-1.9,.58s-1.63,1.02-2.7,1.92l-.68,3.04c-.19,.82-.36,1.63-.51,2.44-.15,.81-.31,1.63-.48,2.46Z"/><path d="M267.97,193.29c-.61,0-1.2-.14-1.76-.42-.56-.28-1.02-.73-1.38-1.34-.36-.61-.54-1.4-.54-2.36s.14-1.89,.44-2.8c.29-.91,.7-1.73,1.22-2.45,.53-.72,1.14-1.3,1.85-1.72,.71-.42,1.47-.64,2.29-.64,1.02,0,1.88,.33,2.59,1,.71,.67,1.06,1.72,1.06,3.17,0,.99-.15,1.94-.45,2.85-.3,.91-.71,1.72-1.24,2.43-.53,.71-1.14,1.26-1.84,1.67-.7,.41-1.45,.61-2.25,.61Zm.14-.66c.66,0,1.26-.2,1.8-.59,.54-.39,1.01-.91,1.41-1.55,.4-.64,.71-1.36,.93-2.14,.22-.79,.33-1.57,.33-2.36,0-1.33-.24-2.29-.73-2.87-.49-.58-1.12-.87-1.88-.87-.66,0-1.26,.19-1.81,.58-.55,.39-1.03,.9-1.44,1.56s-.72,1.38-.94,2.18-.33,1.61-.33,2.43c0,1.27,.26,2.2,.78,2.78,.52,.58,1.15,.87,1.88,.87Z"/><path d="M276.64,190.55l1.7-7.99h-2.71l.12-.59,2.8-.19,.87-3.16h.8l-.66,3.16h3.18l-.12,.87-3.25-.09-1.63,7.73c-.06,.25-.12,.5-.16,.75-.05,.25-.07,.46-.07,.64,0,.39,.21,.59,.64,.59,.36,0,.76-.17,1.2-.51,.44-.34,.9-.8,1.39-1.4l.35,.28c-.49,.71-1.03,1.32-1.63,1.85-.6,.53-1.26,.79-1.98,.79-.3,0-.55-.09-.77-.28-.21-.19-.32-.45-.32-.78,0-.25,.02-.49,.05-.72,.03-.23,.09-.55,.19-.95Z"/><path d="M294.47,190.11c0,.99-.35,1.77-1.05,2.33s-1.58,.85-2.65,.85c-.86,0-1.53-.18-1.99-.53-.46-.35-.78-.89-.95-1.61,.03-.16,.11-.29,.22-.39,.12-.1,.25-.15,.39-.15,.38,0,.64,.21,.78,.64l.38,1.25c.31,.09,.66,.14,1.04,.14,.88,0,1.57-.21,2.07-.64,.5-.42,.75-.97,.75-1.63,0-.46-.13-.88-.38-1.27-.25-.39-.72-.82-1.41-1.3-.64-.46-1.15-.92-1.53-1.39-.38-.47-.57-1.04-.57-1.72,0-.93,.32-1.68,.97-2.26,.64-.58,1.48-.87,2.52-.87,.71,0,1.3,.16,1.78,.48,.48,.32,.8,.77,.95,1.35-.08,.33-.29,.49-.64,.49-.38,0-.65-.24-.82-.71l-.35-.85c-.27-.08-.53-.12-.78-.12-.88,0-1.53,.21-1.96,.64s-.64,.94-.64,1.55,.14,1.04,.41,1.37,.73,.74,1.38,1.23c.77,.57,1.31,1.08,1.61,1.53,.31,.46,.46,.98,.46,1.58Z"/><path d="M299.18,193.29c-.44,0-.8-.13-1.08-.39-.28-.26-.42-.68-.42-1.26,0-.46,.05-.96,.16-1.51,.11-.55,.22-1.06,.33-1.53l1.27-5.8-2.52-.07,.09-.49,3.42-.68,.31,.24-1.46,6.46c-.11,.49-.22,1.02-.32,1.61-.1,.59-.15,1.04-.15,1.35,0,.69,.33,1.04,.99,1.04,.5,0,1.1-.17,1.8-.51,.7-.34,1.57-.95,2.63-1.85l.71-3.39c.17-.75,.33-1.51,.48-2.27s.29-1.52,.44-2.27l.9-.4,.24,.19-1.81,8.55c-.05,.25-.1,.51-.15,.77-.06,.26-.08,.48-.08,.65,0,.38,.21,.57,.64,.57,.36,0,.76-.17,1.2-.51,.44-.34,.9-.8,1.39-1.4l.38,.28c-.52,.71-1.07,1.32-1.65,1.85-.58,.53-1.22,.79-1.91,.79-.31,0-.59-.1-.81-.29s-.34-.47-.34-.84c0-.22,.02-.44,.06-.66,.04-.22,.11-.53,.2-.92-.96,.91-1.83,1.59-2.62,2.04s-1.55,.67-2.29,.67Z"/><path d="M307.08,198.7l.12-.59,2.1-.21,3.2-15.08-2.69-.09,.07-.47,3.6-.71,.31,.24-.66,2.99c.5-.64,1.05-1.2,1.64-1.68,.59-.48,1.18-.86,1.77-1.13s1.13-.41,1.61-.41c.61,0,1.12,.21,1.52,.64,.4,.42,.6,1.16,.6,2.21,0,.82-.14,1.65-.41,2.49-.28,.84-.65,1.64-1.12,2.4-.47,.76-1.01,1.45-1.62,2.05-.61,.6-1.26,1.08-1.96,1.43s-1.38,.52-2.07,.52c-.3,0-.58-.04-.86-.12s-.55-.21-.81-.4c-.25,1.16-.46,2.14-.61,2.93-.16,.79-.3,1.52-.42,2.18l2.36,.24-.12,.59h-5.54Zm10.58-16.16c-.68,0-1.41,.27-2.19,.82-.79,.55-1.62,1.3-2.5,2.24l-1.3,6.05c.31,.24,.63,.4,.94,.49s.64,.14,.97,.14c.71,0,1.39-.2,2.04-.6,.65-.4,1.22-.93,1.71-1.59,.58-.74,1.03-1.56,1.35-2.47,.32-.91,.48-1.82,.48-2.73,0-.82-.13-1.41-.4-1.79-.27-.38-.64-.57-1.11-.57Z"/><path d="M319.23,198.7l.12-.59,2.1-.21,3.2-15.08-2.69-.09,.07-.47,3.6-.71,.31,.24-.66,2.99c.5-.64,1.05-1.2,1.64-1.68,.59-.48,1.18-.86,1.77-1.13s1.13-.41,1.61-.41c.61,0,1.12,.21,1.52,.64,.4,.42,.6,1.16,.6,2.21,0,.82-.14,1.65-.41,2.49-.28,.84-.65,1.64-1.12,2.4-.47,.76-1.01,1.45-1.62,2.05-.61,.6-1.26,1.08-1.96,1.43s-1.38,.52-2.07,.52c-.3,0-.58-.04-.86-.12s-.55-.21-.81-.4c-.25,1.16-.46,2.14-.61,2.93-.16,.79-.3,1.52-.42,2.18l2.36,.24-.12,.59h-5.54Zm10.58-16.16c-.68,0-1.41,.27-2.19,.82-.79,.55-1.62,1.3-2.5,2.24l-1.3,6.05c.31,.24,.63,.4,.94,.49s.64,.14,.97,.14c.71,0,1.39-.2,2.04-.6,.65-.4,1.22-.93,1.71-1.59,.58-.74,1.03-1.56,1.35-2.47,.32-.91,.48-1.82,.48-2.73,0-.82-.13-1.41-.4-1.79-.27-.38-.64-.57-1.11-.57Z"/><path d="M337.77,193.29c-.61,0-1.2-.14-1.76-.42-.56-.28-1.02-.73-1.38-1.34-.36-.61-.54-1.4-.54-2.36s.14-1.89,.44-2.8c.29-.91,.7-1.73,1.22-2.45,.53-.72,1.14-1.3,1.85-1.72,.71-.42,1.47-.64,2.29-.64,1.02,0,1.88,.33,2.59,1,.71,.67,1.06,1.72,1.06,3.17,0,.99-.15,1.94-.45,2.85-.3,.91-.71,1.72-1.24,2.43-.53,.71-1.14,1.26-1.84,1.67-.7,.41-1.45,.61-2.25,.61Zm.14-.66c.66,0,1.26-.2,1.8-.59,.54-.39,1.01-.91,1.41-1.55,.4-.64,.71-1.36,.93-2.14,.22-.79,.33-1.57,.33-2.36,0-1.33-.24-2.29-.73-2.87-.49-.58-1.12-.87-1.88-.87-.66,0-1.26,.19-1.81,.58-.55,.39-1.03,.9-1.44,1.56s-.72,1.38-.94,2.18-.33,1.61-.33,2.43c0,1.27,.26,2.2,.78,2.78,.52,.58,1.15,.87,1.88,.87Z"/><path d="M351.48,190.11c0,.99-.35,1.77-1.05,2.33s-1.58,.85-2.65,.85c-.86,0-1.53-.18-1.99-.53-.46-.35-.78-.89-.95-1.61,.03-.16,.11-.29,.22-.39,.12-.1,.25-.15,.39-.15,.38,0,.64,.21,.78,.64l.38,1.25c.31,.09,.66,.14,1.04,.14,.88,0,1.57-.21,2.07-.64,.5-.42,.75-.97,.75-1.63,0-.46-.13-.88-.38-1.27-.25-.39-.72-.82-1.41-1.3-.64-.46-1.15-.92-1.53-1.39-.38-.47-.57-1.04-.57-1.72,0-.93,.32-1.68,.97-2.26,.64-.58,1.48-.87,2.52-.87,.71,0,1.3,.16,1.78,.48,.48,.32,.8,.77,.95,1.35-.08,.33-.29,.49-.64,.49-.38,0-.65-.24-.82-.71l-.35-.85c-.27-.08-.53-.12-.78-.12-.88,0-1.53,.21-1.96,.64s-.64,.94-.64,1.55,.14,1.04,.41,1.37,.73,.74,1.38,1.23c.77,.57,1.31,1.08,1.61,1.53,.31,.46,.46,.98,.46,1.58Z"/><path d="M357.3,193.29c-.61,0-1.18-.14-1.7-.42-.52-.28-.93-.73-1.25-1.35-.31-.62-.47-1.43-.47-2.44,0-.94,.17-1.86,.49-2.74,.33-.89,.78-1.69,1.34-2.41,.57-.72,1.21-1.3,1.94-1.72,.73-.42,1.5-.64,2.3-.64,.64,0,1.17,.16,1.58,.48,.41,.32,.61,.81,.61,1.45,0,.97-.58,1.95-1.75,2.93s-3,1.82-5.5,2.51c.03,1.15,.29,1.99,.79,2.53,.49,.54,1.15,.81,1.97,.81,.71,0,1.33-.18,1.87-.54,.54-.36,1.02-.82,1.45-1.37l.38,.28c-.5,.77-1.09,1.4-1.77,1.9-.68,.49-1.44,.74-2.29,.74Zm2.38-11.05c-.52,0-1.05,.17-1.59,.51-.54,.34-1.04,.8-1.5,1.38-.46,.58-.84,1.23-1.14,1.96-.31,.72-.48,1.47-.53,2.24,2.1-.6,3.68-1.31,4.71-2.14,1.04-.83,1.55-1.68,1.55-2.54,0-.46-.14-.8-.41-1.04s-.64-.35-1.1-.35Z"/><path d="M371.2,190.29c-.05,.25-.09,.5-.13,.75-.04,.25-.06,.46-.06,.64,0,.39,.21,.59,.64,.59,.36,0,.77-.17,1.23-.52,.45-.35,.91-.81,1.37-1.39l.35,.28c-.47,.69-1.01,1.3-1.61,1.84-.6,.53-1.26,.8-1.97,.8-.31,0-.58-.09-.79-.28-.21-.19-.32-.46-.32-.82,0-.22,.02-.44,.05-.67,.03-.23,.09-.55,.16-.95l.14-.68c-.5,.64-1.04,1.23-1.61,1.74s-1.15,.93-1.72,1.22c-.57,.3-1.12,.45-1.64,.45-.6,0-1.1-.22-1.51-.65-.41-.43-.61-1.17-.61-2.23,0-.8,.14-1.62,.42-2.46,.28-.84,.67-1.64,1.15-2.4,.49-.76,1.04-1.44,1.66-2.04,.62-.6,1.28-1.07,1.97-1.43,.69-.35,1.37-.53,2.05-.53,.55,0,1.02,.17,1.41,.49l1.06-5.35-2.66-.12,.09-.47,3.56-.68,.26,.21-2.94,14.65Zm-6.93-.35c0,.82,.14,1.41,.42,1.78,.28,.37,.66,.55,1.13,.55,.68,0,1.37-.27,2.1-.82,.72-.55,1.56-1.36,2.5-2.43l1.18-5.91c-.25-.22-.51-.37-.78-.46-.27-.09-.53-.13-.78-.13-.69,0-1.36,.19-2.01,.57-.65,.38-1.24,.87-1.75,1.48-.6,.72-1.08,1.55-1.45,2.5-.37,.94-.55,1.9-.55,2.87Z"/><path d="M382.04,190.55l1.7-7.99h-2.71l.12-.59,2.8-.19,.87-3.16h.8l-.66,3.16h3.18l-.12,.87-3.25-.09-1.63,7.73c-.06,.25-.12,.5-.16,.75-.05,.25-.07,.46-.07,.64,0,.39,.21,.59,.64,.59,.36,0,.76-.17,1.2-.51,.44-.34,.9-.8,1.39-1.4l.35,.28c-.49,.71-1.03,1.32-1.63,1.85-.6,.53-1.26,.79-1.98,.79-.3,0-.55-.09-.77-.28-.21-.19-.32-.45-.32-.78,0-.25,.02-.49,.05-.72,.03-.23,.09-.55,.19-.95Z"/><path d="M392.19,193.29c-.61,0-1.2-.14-1.76-.42-.56-.28-1.02-.73-1.38-1.34-.36-.61-.54-1.4-.54-2.36s.14-1.89,.44-2.8c.29-.91,.7-1.73,1.22-2.45,.53-.72,1.14-1.3,1.85-1.72,.71-.42,1.47-.64,2.29-.64,1.02,0,1.88,.33,2.59,1,.71,.67,1.06,1.72,1.06,3.17,0,.99-.15,1.94-.45,2.85-.3,.91-.71,1.72-1.24,2.43-.53,.71-1.14,1.26-1.84,1.67-.7,.41-1.45,.61-2.25,.61Zm.14-.66c.66,0,1.26-.2,1.8-.59,.54-.39,1.01-.91,1.41-1.55,.4-.64,.71-1.36,.93-2.14,.22-.79,.33-1.57,.33-2.36,0-1.33-.24-2.29-.73-2.87-.49-.58-1.12-.87-1.88-.87-.66,0-1.26,.19-1.81,.58-.55,.39-1.03,.9-1.44,1.56s-.72,1.38-.94,2.18-.33,1.61-.33,2.43c0,1.27,.26,2.2,.78,2.78,.52,.58,1.15,.87,1.88,.87Z"/><path d="M419.05,193.29c-.31,0-.57-.09-.78-.27-.2-.18-.31-.41-.31-.7,0-.3,.03-.57,.09-.8,.06-.24,.14-.56,.23-.97l1.13-4.85c.09-.39,.18-.77,.26-1.13,.08-.36,.12-.68,.12-.97,0-.39-.07-.67-.22-.82s-.38-.24-.7-.24c-.53,0-1.12,.18-1.77,.55-.64,.37-1.49,1-2.54,1.9-.02,.06-.03,.12-.04,.18,0,.06-.02,.11-.04,.15l-.59,2.76c-.17,.82-.34,1.63-.51,2.44-.16,.81-.33,1.63-.48,2.46l-.92,.14-.16-.14,1.63-7.66c.06-.31,.13-.62,.19-.92,.06-.3,.09-.57,.09-.82,0-.38-.08-.64-.24-.8-.16-.16-.38-.24-.68-.24-.53,0-1.15,.19-1.85,.58-.7,.38-1.57,1.02-2.63,1.92l-.68,3.04c-.19,.82-.36,1.63-.51,2.44-.15,.81-.31,1.63-.48,2.46l-.92,.14-.16-.14,2.14-10.15-2.69-.09,.07-.47,3.56-.71,.31,.24-.49,2.52c.83-.82,1.7-1.48,2.59-1.99s1.66-.77,2.31-.77c.5,0,.88,.14,1.13,.41,.25,.27,.38,.65,.38,1.12,0,.16-.02,.34-.05,.54-.03,.2-.07,.42-.12,.64,.82-.82,1.64-1.47,2.49-1.97,.84-.49,1.58-.74,2.23-.74,.5,0,.88,.14,1.13,.41s.38,.66,.38,1.14c0,.38-.04,.75-.13,1.11-.09,.36-.18,.76-.27,1.2l-1.18,4.88c-.06,.27-.12,.53-.18,.79-.06,.26-.08,.47-.08,.65,0,.36,.2,.54,.59,.54,.36,0,.76-.17,1.2-.51,.44-.34,.9-.8,1.39-1.4l.35,.28c-.49,.71-1.03,1.32-1.62,1.85-.6,.53-1.26,.79-1.98,.79Z"/><path d="M431.25,193.29c-.3,0-.56-.1-.78-.29s-.33-.49-.33-.88c0-.3,.02-.57,.06-.81,.04-.24,.1-.55,.18-.91l.02-.12c-.68,.86-1.37,1.58-2.1,2.16-.72,.57-1.45,.86-2.19,.86-.58,0-1.11-.22-1.59-.66s-.72-1.19-.72-2.26c0-.8,.14-1.61,.42-2.44,.28-.82,.66-1.62,1.14-2.38,.48-.76,1.02-1.44,1.64-2.04,.61-.6,1.26-1.07,1.93-1.43,.68-.35,1.34-.53,2-.53,.55,0,1.02,.21,1.41,.64l.68-.73,.28,.19-1.88,8.65c-.06,.25-.12,.51-.16,.77s-.07,.49-.07,.7c0,.19,.06,.32,.19,.4,.13,.08,.27,.12,.45,.12,.38,0,.79-.18,1.25-.54,.45-.36,.9-.82,1.32-1.39l.4,.31c-.47,.71-1.01,1.32-1.61,1.85-.6,.53-1.25,.79-1.94,.79Zm-6.31-3.42c0,.86,.16,1.48,.47,1.85,.31,.37,.71,.55,1.2,.55,.61,0,1.23-.25,1.85-.74,.62-.49,1.33-1.21,2.13-2.16l1.37-6.38c-.44-.31-.91-.47-1.41-.47-.55,0-1.1,.14-1.66,.42-.56,.28-1.08,.67-1.57,1.15-.71,.72-1.28,1.6-1.72,2.63-.44,1.03-.66,2.08-.66,3.14Z"/><path d="M435.99,192.98l2.4-11.8c.16-.75,.31-1.5,.45-2.25,.14-.75,.27-1.5,.38-2.25l-2.59-.09,.07-.47,3.63-.68,.19,.21-2.19,10.91,6.74-4.92c.17,.02,.31,.08,.41,.2s.15,.25,.15,.39-.05,.27-.14,.38c-.09,.11-.27,.24-.54,.4l-6.36,3.84,.47,.09c.68,.16,1.2,.42,1.58,.8,.38,.38,.74,.91,1.08,1.6l.97,2c.22,.42,.46,.71,.72,.85,.26,.14,.58,.23,.95,.26l1.23,.05-.07,.47c-.3,.09-.57,.16-.81,.19-.24,.03-.48,.05-.7,.05-.53,0-.99-.11-1.35-.34-.37-.23-.69-.65-.95-1.26l-.99-2.17c-.31-.68-.61-1.16-.88-1.45s-.69-.51-1.24-.67l-.4-.09-.16,.87c-.16,.82-.31,1.63-.47,2.45-.16,.82-.31,1.63-.47,2.45l-.92,.14-.16-.14Z"/><path d="M449.89,193.29c-.61,0-1.18-.14-1.7-.42-.52-.28-.93-.73-1.25-1.35-.31-.62-.47-1.43-.47-2.44,0-.94,.17-1.86,.49-2.74,.33-.89,.78-1.69,1.34-2.41,.57-.72,1.21-1.3,1.94-1.72,.73-.42,1.5-.64,2.3-.64,.64,0,1.17,.16,1.58,.48,.41,.32,.61,.81,.61,1.45,0,.97-.58,1.95-1.75,2.93s-3,1.82-5.5,2.51c.03,1.15,.29,1.99,.79,2.53,.49,.54,1.15,.81,1.97,.81,.71,0,1.33-.18,1.87-.54,.54-.36,1.02-.82,1.45-1.37l.38,.28c-.5,.77-1.09,1.4-1.77,1.9-.68,.49-1.44,.74-2.29,.74Zm2.38-11.05c-.52,0-1.05,.17-1.59,.51-.54,.34-1.04,.8-1.5,1.38-.46,.58-.84,1.23-1.14,1.96-.31,.72-.48,1.47-.53,2.24,2.1-.6,3.68-1.31,4.71-2.14,1.04-.83,1.55-1.68,1.55-2.54,0-.46-.14-.8-.41-1.04s-.64-.35-1.1-.35Z"/><path d="M136.61,221.56c-.3,0-.56-.1-.78-.29-.22-.2-.33-.49-.33-.88,0-.3,.02-.57,.06-.81,.04-.24,.1-.55,.18-.91l.02-.12c-.68,.86-1.37,1.58-2.1,2.16-.72,.57-1.45,.86-2.19,.86-.58,0-1.11-.22-1.59-.66-.48-.44-.72-1.19-.72-2.26,0-.8,.14-1.61,.42-2.44,.28-.82,.66-1.62,1.14-2.38,.48-.76,1.02-1.44,1.64-2.04s1.26-1.07,1.93-1.43c.68-.35,1.34-.53,2-.53,.55,0,1.02,.21,1.41,.64l.68-.73,.28,.19-1.88,8.65c-.06,.25-.12,.51-.16,.77-.05,.26-.07,.49-.07,.7,0,.19,.06,.32,.19,.4,.13,.08,.27,.12,.45,.12,.38,0,.79-.18,1.25-.54,.46-.36,.9-.82,1.32-1.39l.4,.31c-.47,.71-1.01,1.32-1.61,1.85-.6,.53-1.25,.79-1.94,.79Zm-6.31-3.42c0,.86,.16,1.48,.47,1.85,.31,.37,.71,.55,1.2,.55,.61,0,1.23-.25,1.85-.74,.62-.49,1.33-1.21,2.13-2.16l1.37-6.38c-.44-.31-.91-.47-1.41-.47-.55,0-1.1,.14-1.66,.42-.56,.28-1.08,.67-1.57,1.15-.71,.72-1.28,1.6-1.72,2.63-.44,1.03-.66,2.08-.66,3.14Z"/><path d="M141.98,221.25l2.14-10.15-2.69-.09,.07-.47,3.49-.71,.31,.24-.64,3.42c.35-.63,.72-1.22,1.12-1.78,.4-.56,.82-1.01,1.27-1.35,.45-.34,.9-.52,1.35-.52,.74,0,1.22,.2,1.46,.59-.02,.27-.09,.48-.24,.65s-.35,.25-.61,.25c-.25,0-.5-.05-.74-.16-.24-.11-.48-.25-.72-.42-.57,.39-1.11,.94-1.64,1.65-.53,.71-1.04,1.52-1.54,2.43l-.33,1.55c-.17,.82-.34,1.63-.49,2.44-.16,.81-.32,1.63-.49,2.46l-.92,.14-.17-.14Z"/><path d="M151.45,218.82l1.7-7.99h-2.71l.12-.59,2.8-.19,.87-3.16h.8l-.66,3.16h3.18l-.12,.87-3.25-.09-1.63,7.73c-.06,.25-.12,.5-.17,.75s-.07,.46-.07,.64c0,.39,.21,.59,.64,.59,.36,0,.76-.17,1.2-.51,.44-.34,.9-.81,1.39-1.4l.35,.28c-.49,.71-1.03,1.32-1.63,1.85-.6,.53-1.26,.79-1.98,.79-.3,0-.55-.09-.77-.28-.21-.19-.32-.45-.32-.78,0-.25,.02-.49,.05-.72,.03-.23,.09-.55,.19-.95Z"/><path d="M166.1,221.34c-.03-2.01-.08-3.73-.15-5.17-.07-1.44-.19-2.78-.37-4.02-.06-.55-.17-.91-.31-1.07-.14-.16-.32-.25-.54-.25-.25,0-.51,.12-.79,.35s-.62,.71-1.02,1.44l-.4-.24c.41-.91,.83-1.57,1.26-1.97,.43-.4,.89-.6,1.38-.6,.42,0,.75,.14,.99,.41s.4,.76,.49,1.45c.14,1.13,.24,2.38,.31,3.73,.06,1.36,.09,2.81,.09,4.35,.97-1.46,1.9-2.98,2.77-4.56,.87-1.58,1.68-3.27,2.44-5.08h.57c.03,.71,.07,1.5,.12,2.37,.05,.87,.09,1.77,.13,2.69s.07,1.79,.11,2.61c.03,.82,.06,1.54,.07,2.16,.61-.74,1.16-1.43,1.64-2.07s.93-1.3,1.34-1.98c.42-.68,.82-1.41,1.21-2.22,.08-.16,.15-.31,.2-.45,.06-.14,.11-.29,.18-.45l-.14-.75c-.08-.39-.12-.75-.12-1.06,0-.39,.09-.68,.28-.87,.19-.19,.4-.28,.64-.28,.25,.02,.42,.09,.52,.21,.08,.14,.12,.38,.12,.71,0,.27-.06,.64-.16,1.13-.11,.49-.4,1.19-.87,2.12-.58,1.21-1.31,2.43-2.19,3.65-.88,1.23-1.91,2.47-3.09,3.75l-.38,.05-.12-.09c-.03-.9-.07-1.86-.13-2.91s-.11-2.06-.15-3.05c-.05-.99-.09-1.85-.14-2.59-.38,.79-.84,1.66-1.38,2.63s-1.14,1.96-1.79,2.98-1.35,2.02-2.08,2.99l-.38,.05-.14-.09Z"/><path d="M180.97,220.5c0-.25,.02-.49,.07-.72,.05-.23,.11-.55,.19-.95l1.65-7.73-2.69-.09,.07-.47,3.58-.71,.31,.24-1.81,8.5c-.06,.25-.12,.51-.16,.77-.05,.26-.07,.47-.07,.65,0,.38,.2,.57,.61,.57,.36,0,.76-.17,1.19-.51,.43-.34,.89-.81,1.38-1.4l.35,.28c-.5,.71-1.04,1.32-1.61,1.85-.57,.53-1.22,.79-1.94,.79-.3,0-.56-.09-.78-.28s-.33-.45-.33-.78Zm3.3-14.54c-.25,0-.47-.08-.66-.25-.19-.16-.28-.4-.28-.7,0-.31,.11-.57,.33-.78,.22-.2,.46-.31,.71-.31,.27,0,.49,.08,.66,.25,.17,.16,.26,.4,.26,.7s-.11,.55-.32,.77-.44,.32-.7,.32Z"/><path d="M188.01,218.82l1.7-7.99h-2.71l.12-.59,2.8-.19,.87-3.16h.8l-.66,3.16h3.18l-.12,.87-3.25-.09-1.63,7.73c-.06,.25-.12,.5-.17,.75s-.07,.46-.07,.64c0,.39,.21,.59,.64,.59,.36,0,.76-.17,1.2-.51,.44-.34,.9-.81,1.39-1.4l.35,.28c-.49,.71-1.03,1.32-1.63,1.85-.6,.53-1.26,.79-1.98,.79-.3,0-.55-.09-.77-.28-.21-.19-.32-.45-.32-.78,0-.25,.02-.49,.05-.72,.03-.23,.09-.55,.19-.95Z"/><path d="M194.66,221.39l-.17-.14,2.38-11.8c.16-.75,.31-1.5,.45-2.25,.14-.75,.27-1.5,.4-2.25l-2.59-.09,.07-.47,3.63-.68,.24,.21-1.77,8.67c.57-.55,1.15-1.03,1.75-1.44s1.19-.73,1.76-.97,1.06-.35,1.48-.35c.5,0,.88,.14,1.14,.41s.39,.66,.39,1.14c0,.38-.04,.75-.13,1.11-.09,.36-.18,.76-.27,1.2l-1.15,4.88c-.06,.27-.13,.53-.19,.79-.06,.26-.09,.47-.09,.65,0,.36,.2,.54,.59,.54,.36,0,.77-.17,1.21-.52s.91-.81,1.38-1.39l.35,.28c-.47,.71-1.01,1.32-1.63,1.85-.61,.53-1.27,.79-1.98,.79-.31,0-.57-.09-.77-.27-.2-.18-.29-.41-.29-.7,0-.3,.03-.57,.08-.8,.05-.24,.13-.56,.22-.97l1.15-4.85c.08-.39,.16-.77,.24-1.13,.08-.36,.12-.68,.12-.97,0-.39-.08-.67-.24-.82-.16-.16-.39-.24-.71-.24-.53,0-1.17,.19-1.9,.58-.73,.38-1.63,1.03-2.7,1.94l-.61,3.02c-.16,.82-.32,1.63-.48,2.45-.17,.82-.32,1.63-.46,2.45l-.92,.14Z"/><path d="M219.63,203.46c.64,0,1.18,.16,1.61,.48,.43,.32,.69,.66,.77,1.02-.02,.17-.09,.31-.21,.41-.13,.1-.27,.15-.42,.15-.2,0-.38-.06-.53-.17-.15-.11-.35-.31-.6-.61l-.73-.78c-.58,.11-1.11,.36-1.59,.74-.48,.39-.89,.97-1.24,1.74-.35,.78-.63,1.82-.85,3.12-.02,.08-.03,.16-.04,.24,0,.08-.02,.16-.04,.24h3.3l-.14,.87-3.3-.07c-.25,1.55-.5,3.13-.74,4.72-.24,1.59-.51,3.18-.79,4.75-.25,1.33-.52,2.45-.8,3.36-.28,.9-.75,1.67-1.39,2.3-.46,.46-.88,.77-1.27,.95s-.82,.27-1.27,.27-.87-.13-1.24-.38c-.37-.25-.61-.55-.72-.9,.02-.2,.09-.36,.22-.47,.13-.11,.29-.17,.46-.17,.22,0,.42,.06,.59,.18,.17,.12,.35,.26,.52,.44l.68,.66c.31-.08,.6-.22,.85-.41,.25-.2,.5-.46,.75-.79,.41-.52,.73-1.15,.97-1.91,.24-.75,.46-1.8,.68-3.13,.27-1.6,.53-3.18,.78-4.74,.25-1.55,.49-3.14,.71-4.76h-2.69l.12-.59,2.69-.19c.02-.08,.03-.16,.04-.24,0-.08,.02-.16,.04-.24,.24-1.59,.62-2.82,1.14-3.71,.53-.89,1.12-1.51,1.78-1.87,.66-.36,1.3-.54,1.91-.54Z"/><path d="M222.64,221.56c-.61,0-1.2-.14-1.75-.42-.56-.28-1.02-.73-1.38-1.34-.36-.61-.54-1.4-.54-2.36s.15-1.89,.44-2.8c.29-.91,.7-1.73,1.22-2.45,.53-.72,1.14-1.3,1.85-1.72,.71-.42,1.47-.64,2.29-.64,1.02,0,1.88,.33,2.59,1s1.06,1.72,1.06,3.17c0,.99-.15,1.94-.45,2.85s-.71,1.72-1.24,2.43-1.14,1.26-1.84,1.67c-.7,.41-1.45,.61-2.25,.61Zm.14-.66c.66,0,1.26-.2,1.8-.59,.54-.39,1.01-.91,1.41-1.55,.4-.64,.71-1.36,.93-2.14,.22-.79,.33-1.57,.33-2.36,0-1.33-.24-2.29-.73-2.87-.49-.58-1.12-.87-1.88-.87-.66,0-1.26,.19-1.81,.58s-1.03,.9-1.44,1.55c-.41,.65-.72,1.38-.94,2.18-.22,.8-.33,1.61-.33,2.43,0,1.27,.26,2.2,.78,2.78,.52,.58,1.15,.87,1.88,.87Z"/><path d="M231.45,221.56c-.31,0-.58-.1-.8-.31-.22-.2-.33-.49-.33-.87,0-.22,.02-.44,.06-.66s.09-.52,.15-.9l1.88-9.38c.16-.75,.31-1.5,.45-2.25,.14-.75,.27-1.5,.38-2.25l-2.57-.09,.07-.47,3.6-.68,.26,.21-2.97,14.65c-.06,.25-.11,.5-.15,.75-.04,.25-.06,.46-.06,.61,0,.41,.22,.61,.66,.61,.33,0,.71-.17,1.15-.52,.44-.35,.9-.81,1.39-1.39l.35,.28c-.49,.71-1.02,1.32-1.59,1.85-.57,.53-1.22,.79-1.94,.79Z"/><path d="M236.1,221.25l2.4-11.8c.16-.75,.31-1.5,.45-2.25,.14-.75,.27-1.5,.38-2.25l-2.59-.09,.07-.47,3.63-.68,.19,.21-2.19,10.91,6.74-4.92c.17,.02,.31,.08,.41,.2,.1,.12,.15,.25,.15,.39s-.05,.27-.14,.38c-.09,.11-.27,.24-.54,.4l-6.36,3.84,.47,.09c.68,.16,1.2,.42,1.58,.8,.38,.38,.74,.91,1.08,1.6l.97,2c.22,.42,.46,.71,.72,.85,.26,.14,.58,.23,.95,.26l1.23,.05-.07,.47c-.3,.09-.57,.16-.81,.19-.24,.03-.48,.05-.7,.05-.53,0-.99-.11-1.35-.34-.37-.23-.69-.65-.95-1.26l-.99-2.17c-.31-.68-.61-1.16-.88-1.45-.27-.29-.69-.51-1.24-.67l-.4-.09-.16,.87c-.16,.82-.31,1.63-.47,2.45-.16,.82-.31,1.63-.47,2.45l-.92,.14-.16-.14Z"/><path d="M252.82,218.38c0,.99-.35,1.77-1.05,2.33-.7,.57-1.58,.85-2.65,.85-.86,0-1.53-.18-1.99-.53-.46-.35-.78-.89-.95-1.61,.03-.16,.11-.29,.22-.39,.12-.1,.25-.15,.39-.15,.38,0,.64,.21,.78,.64l.38,1.25c.31,.09,.66,.14,1.04,.14,.88,0,1.57-.21,2.07-.64,.5-.42,.75-.97,.75-1.63,0-.46-.13-.88-.38-1.27-.25-.39-.72-.82-1.41-1.3-.64-.46-1.15-.92-1.53-1.39-.38-.47-.57-1.04-.57-1.72,0-.93,.32-1.68,.97-2.26s1.48-.87,2.52-.87c.71,0,1.3,.16,1.78,.48,.48,.32,.8,.77,.95,1.35-.08,.33-.29,.49-.64,.49-.38,0-.65-.24-.82-.71l-.35-.85c-.27-.08-.53-.12-.78-.12-.88,0-1.53,.21-1.96,.64s-.64,.94-.64,1.55,.14,1.04,.41,1.37c.27,.33,.73,.74,1.38,1.23,.77,.57,1.31,1.08,1.61,1.53,.31,.46,.46,.98,.46,1.58Z"/><path d="M263.35,221.34c-.03-2.01-.08-3.73-.15-5.17-.07-1.44-.19-2.78-.36-4.02-.06-.55-.16-.91-.31-1.07-.14-.16-.32-.25-.54-.25-.25,0-.51,.12-.79,.35s-.62,.71-1.02,1.44l-.4-.24c.41-.91,.83-1.57,1.26-1.97,.43-.4,.89-.6,1.38-.6,.42,0,.75,.14,.99,.41s.4,.76,.49,1.45c.14,1.13,.24,2.38,.31,3.73s.09,2.81,.09,4.35c.97-1.46,1.9-2.98,2.77-4.56,.87-1.58,1.68-3.27,2.44-5.08h.57c.03,.71,.07,1.5,.12,2.37,.05,.87,.09,1.77,.13,2.69s.07,1.79,.11,2.61c.03,.82,.05,1.54,.07,2.16,.61-.74,1.16-1.43,1.64-2.07s.93-1.3,1.34-1.98,.82-1.41,1.21-2.22c.08-.16,.14-.31,.2-.45,.05-.14,.11-.29,.18-.45l-.14-.75c-.08-.39-.12-.75-.12-1.06,0-.39,.09-.68,.28-.87s.4-.28,.64-.28c.25,.02,.42,.09,.52,.21,.08,.14,.12,.38,.12,.71,0,.27-.06,.64-.17,1.13-.11,.49-.4,1.19-.87,2.12-.58,1.21-1.31,2.43-2.19,3.65-.88,1.23-1.91,2.47-3.09,3.75l-.38,.05-.12-.09c-.03-.9-.07-1.86-.13-2.91-.06-1.04-.11-2.06-.15-3.05s-.09-1.85-.14-2.59c-.38,.79-.84,1.66-1.38,2.63-.54,.97-1.14,1.96-1.79,2.98s-1.35,2.02-2.09,2.99l-.38,.05-.14-.09Z"/><path d="M277.58,221.39l-.16-.14,2.38-11.8c.16-.75,.31-1.5,.45-2.25,.14-.75,.27-1.5,.4-2.25l-2.59-.09,.07-.47,3.63-.68,.24,.21-1.77,8.67c.57-.55,1.15-1.03,1.76-1.44,.6-.41,1.19-.73,1.75-.97s1.06-.35,1.48-.35c.5,0,.88,.14,1.14,.41,.26,.27,.39,.66,.39,1.14,0,.38-.04,.75-.13,1.11s-.18,.76-.27,1.2l-1.15,4.88c-.06,.27-.13,.53-.19,.79-.06,.26-.09,.47-.09,.65,0,.36,.2,.54,.59,.54,.36,0,.77-.17,1.21-.52s.91-.81,1.38-1.39l.35,.28c-.47,.71-1.01,1.32-1.63,1.85-.61,.53-1.27,.79-1.98,.79-.31,0-.57-.09-.77-.27s-.29-.41-.29-.7c0-.3,.03-.57,.08-.8,.06-.24,.13-.56,.22-.97l1.15-4.85c.08-.39,.16-.77,.24-1.13,.08-.36,.12-.68,.12-.97,0-.39-.08-.67-.24-.82-.16-.16-.39-.24-.71-.24-.53,0-1.17,.19-1.9,.58s-1.63,1.03-2.7,1.94l-.61,3.02c-.16,.82-.32,1.63-.48,2.45-.16,.82-.32,1.63-.46,2.45l-.92,.14Z"/><path d="M293.46,221.56c-.61,0-1.2-.14-1.76-.42s-1.02-.73-1.38-1.34c-.36-.61-.54-1.4-.54-2.36s.14-1.89,.44-2.8c.29-.91,.7-1.73,1.22-2.45,.53-.72,1.14-1.3,1.85-1.72,.71-.42,1.47-.64,2.29-.64,1.02,0,1.88,.33,2.59,1s1.06,1.72,1.06,3.17c0,.99-.15,1.94-.45,2.85s-.71,1.72-1.24,2.43c-.53,.71-1.14,1.26-1.84,1.67-.7,.41-1.45,.61-2.25,.61Zm.14-.66c.66,0,1.26-.2,1.8-.59,.54-.39,1.01-.91,1.41-1.55,.4-.64,.71-1.36,.93-2.14,.22-.79,.33-1.57,.33-2.36,0-1.33-.24-2.29-.73-2.87-.49-.58-1.12-.87-1.88-.87-.66,0-1.26,.19-1.81,.58-.55,.38-1.03,.9-1.44,1.55-.41,.65-.72,1.38-.94,2.18-.22,.8-.33,1.61-.33,2.43,0,1.27,.26,2.2,.78,2.78s1.15,.87,1.88,.87Z"/><path d="M313.55,221.56c-.3,0-.56-.1-.78-.29-.22-.2-.33-.49-.33-.88,0-.3,.02-.57,.06-.81s.1-.55,.18-.91l.02-.12c-.68,.86-1.37,1.58-2.1,2.16-.72,.57-1.45,.86-2.19,.86-.58,0-1.11-.22-1.59-.66s-.72-1.19-.72-2.26c0-.8,.14-1.61,.42-2.44,.28-.82,.66-1.62,1.14-2.38,.48-.76,1.02-1.44,1.64-2.04,.61-.6,1.26-1.07,1.93-1.43,.68-.35,1.34-.53,2-.53,.55,0,1.02,.21,1.41,.64l.68-.73,.28,.19-1.88,8.65c-.06,.25-.12,.51-.16,.77s-.07,.49-.07,.7c0,.19,.06,.32,.19,.4,.13,.08,.27,.12,.45,.12,.38,0,.79-.18,1.25-.54,.45-.36,.9-.82,1.32-1.39l.4,.31c-.47,.71-1.01,1.32-1.61,1.85-.6,.53-1.25,.79-1.94,.79Zm-6.31-3.42c0,.86,.16,1.48,.47,1.85,.31,.37,.71,.55,1.2,.55,.61,0,1.23-.25,1.85-.74,.62-.49,1.33-1.21,2.13-2.16l1.37-6.38c-.44-.31-.91-.47-1.41-.47-.55,0-1.1,.14-1.66,.42-.56,.28-1.08,.67-1.57,1.15-.71,.72-1.28,1.6-1.72,2.63-.44,1.03-.66,2.08-.66,3.14Z"/><path d="M318.92,221.25l2.14-10.15-2.69-.09,.07-.47,3.49-.71,.31,.24-.64,3.42c.35-.63,.72-1.22,1.12-1.78,.4-.56,.82-1.01,1.27-1.35,.45-.34,.9-.52,1.35-.52,.74,0,1.23,.2,1.46,.59-.02,.27-.09,.48-.24,.65-.14,.16-.35,.25-.61,.25-.25,0-.5-.05-.74-.16-.24-.11-.48-.25-.72-.42-.57,.39-1.11,.94-1.64,1.65-.53,.71-1.04,1.52-1.54,2.43l-.33,1.55c-.17,.82-.34,1.63-.49,2.44-.16,.81-.32,1.63-.49,2.46l-.92,.14-.16-.14Z"/><path d="M330.09,221.56c-.61,0-1.18-.14-1.7-.42s-.93-.73-1.25-1.35c-.31-.62-.47-1.43-.47-2.44,0-.94,.17-1.86,.49-2.74,.33-.89,.78-1.69,1.34-2.41,.57-.72,1.21-1.3,1.94-1.72,.73-.42,1.5-.64,2.3-.64,.64,0,1.17,.16,1.58,.48,.41,.32,.61,.81,.61,1.45,0,.97-.58,1.95-1.75,2.93s-3,1.82-5.5,2.51c.03,1.15,.29,1.99,.79,2.53,.49,.54,1.15,.81,1.97,.81,.71,0,1.33-.18,1.87-.54,.54-.36,1.02-.82,1.45-1.37l.38,.28c-.5,.77-1.09,1.4-1.77,1.9-.68,.49-1.44,.74-2.29,.74Zm2.38-11.05c-.52,0-1.05,.17-1.59,.51-.54,.34-1.04,.8-1.5,1.38-.46,.58-.84,1.23-1.14,1.96-.31,.72-.48,1.47-.53,2.24,2.1-.6,3.68-1.31,4.71-2.14,1.04-.83,1.55-1.68,1.55-2.54,0-.45-.14-.8-.41-1.04s-.64-.35-1.1-.35Z"/><path d="M349.2,218.56c-.05,.25-.09,.5-.13,.75-.04,.25-.06,.46-.06,.64,0,.39,.21,.59,.64,.59,.36,0,.77-.17,1.23-.52,.45-.35,.91-.81,1.37-1.39l.35,.28c-.47,.69-1.01,1.3-1.61,1.84-.6,.53-1.26,.8-1.97,.8-.31,0-.58-.09-.79-.28s-.32-.46-.32-.82c0-.22,.02-.44,.05-.67,.03-.23,.09-.55,.16-.95l.14-.68c-.5,.64-1.04,1.23-1.61,1.74-.57,.52-1.15,.93-1.72,1.23-.57,.3-1.12,.45-1.64,.45-.6,0-1.1-.22-1.51-.65-.41-.43-.61-1.17-.61-2.23,0-.8,.14-1.62,.42-2.46,.28-.84,.67-1.64,1.15-2.4,.49-.76,1.04-1.44,1.66-2.04s1.28-1.07,1.97-1.43c.69-.35,1.37-.53,2.05-.53,.55,0,1.02,.17,1.41,.49l1.06-5.35-2.66-.12,.09-.47,3.56-.68,.26,.21-2.94,14.65Zm-6.93-.35c0,.82,.14,1.41,.42,1.78,.28,.37,.66,.55,1.13,.55,.68,0,1.37-.27,2.1-.82,.72-.55,1.56-1.36,2.5-2.43l1.18-5.91c-.25-.22-.51-.37-.78-.46-.27-.09-.53-.13-.78-.13-.69,0-1.36,.19-2.01,.57-.65,.38-1.24,.87-1.75,1.48-.6,.72-1.08,1.55-1.45,2.5-.37,.94-.55,1.9-.55,2.87Z"/><path d="M357.11,221.56c-.61,0-1.18-.14-1.7-.42s-.93-.73-1.25-1.35c-.31-.62-.47-1.43-.47-2.44,0-.94,.17-1.86,.49-2.74,.33-.89,.78-1.69,1.34-2.41,.57-.72,1.21-1.3,1.94-1.72,.73-.42,1.5-.64,2.3-.64,.64,0,1.17,.16,1.58,.48,.41,.32,.61,.81,.61,1.45,0,.97-.58,1.95-1.75,2.93s-3,1.82-5.5,2.51c.03,1.15,.29,1.99,.79,2.53,.49,.54,1.15,.81,1.97,.81,.71,0,1.33-.18,1.87-.54,.54-.36,1.02-.82,1.45-1.37l.38,.28c-.5,.77-1.09,1.4-1.77,1.9-.68,.49-1.44,.74-2.29,.74Zm2.38-11.05c-.52,0-1.05,.17-1.59,.51-.54,.34-1.04,.8-1.5,1.38-.46,.58-.84,1.23-1.14,1.96-.31,.72-.48,1.47-.53,2.24,2.1-.6,3.68-1.31,4.71-2.14,1.04-.83,1.55-1.68,1.55-2.54,0-.45-.14-.8-.41-1.04s-.64-.35-1.1-.35Z"/><path d="M366.51,221.56c-.61,0-1.18-.14-1.7-.42s-.93-.73-1.25-1.35c-.31-.62-.47-1.43-.47-2.44,0-.94,.17-1.86,.49-2.74,.33-.89,.78-1.69,1.34-2.41,.57-.72,1.21-1.3,1.94-1.72,.73-.42,1.5-.64,2.3-.64,.64,0,1.17,.16,1.58,.48,.41,.32,.61,.81,.61,1.45,0,.97-.58,1.95-1.75,2.93s-3,1.82-5.5,2.51c.03,1.15,.29,1.99,.79,2.53,.49,.54,1.15,.81,1.97,.81,.71,0,1.33-.18,1.87-.54,.54-.36,1.02-.82,1.45-1.37l.38,.28c-.5,.77-1.09,1.4-1.77,1.9-.68,.49-1.44,.74-2.29,.74Zm2.38-11.05c-.52,0-1.05,.17-1.59,.51-.54,.34-1.04,.8-1.5,1.38-.46,.58-.84,1.23-1.14,1.96-.31,.72-.48,1.47-.53,2.24,2.1-.6,3.68-1.31,4.71-2.14,1.04-.83,1.55-1.68,1.55-2.54,0-.45-.14-.8-.41-1.04s-.64-.35-1.1-.35Z"/><path d="M369.81,226.97l.12-.59,2.1-.21,3.2-15.08-2.69-.09,.07-.47,3.6-.71,.31,.24-.66,2.99c.5-.64,1.05-1.2,1.64-1.68,.59-.48,1.18-.86,1.77-1.13s1.13-.41,1.61-.41c.61,0,1.12,.21,1.52,.64,.4,.42,.6,1.16,.6,2.21,0,.82-.14,1.65-.41,2.49-.28,.84-.65,1.64-1.12,2.4-.47,.76-1.01,1.45-1.62,2.05-.61,.6-1.26,1.08-1.96,1.43-.69,.35-1.38,.52-2.07,.52-.3,0-.58-.04-.86-.12-.27-.08-.55-.21-.81-.4-.25,1.16-.46,2.14-.61,2.93s-.3,1.52-.42,2.18l2.36,.24-.12,.59h-5.54Zm10.58-16.16c-.68,0-1.41,.27-2.19,.82-.79,.55-1.62,1.3-2.5,2.24l-1.3,6.05c.31,.24,.63,.4,.94,.49,.31,.09,.64,.14,.97,.14,.71,0,1.39-.2,2.04-.6,.65-.4,1.22-.93,1.71-1.59,.58-.74,1.03-1.56,1.35-2.47,.32-.91,.48-1.82,.48-2.73,0-.82-.13-1.41-.4-1.79-.27-.38-.64-.57-1.11-.57Z"/><path d="M390.68,220.5c0-.25,.02-.49,.07-.72s.11-.55,.19-.95l1.65-7.73-2.69-.09,.07-.47,3.58-.71,.31,.24-1.81,8.5c-.06,.25-.12,.51-.16,.77s-.07,.47-.07,.65c0,.38,.2,.57,.61,.57,.36,0,.76-.17,1.19-.51s.89-.81,1.38-1.4l.35,.28c-.5,.71-1.04,1.32-1.61,1.85-.57,.53-1.22,.79-1.94,.79-.3,0-.56-.09-.78-.28-.22-.19-.33-.45-.33-.78Zm3.3-14.54c-.25,0-.47-.08-.66-.25-.19-.16-.28-.4-.28-.7,0-.31,.11-.57,.33-.78,.22-.2,.46-.31,.71-.31,.27,0,.49,.08,.66,.25,.17,.16,.26,.4,.26,.7s-.11,.55-.32,.77-.44,.32-.7,.32Z"/><path d="M398.34,221.25l-.92,.14-.16-.14,2.14-10.15-2.69-.09,.07-.47,3.56-.71,.31,.24-.49,2.52c.57-.55,1.15-1.03,1.76-1.44,.6-.41,1.19-.73,1.77-.97s1.07-.35,1.5-.35c.5,0,.88,.14,1.13,.41,.25,.27,.38,.66,.38,1.14,0,.38-.04,.75-.12,1.11-.08,.36-.17,.76-.28,1.2l-1.15,4.88c-.06,.27-.13,.53-.19,.79-.06,.26-.09,.47-.09,.65,0,.36,.2,.54,.61,.54,.36,0,.77-.17,1.21-.52s.9-.81,1.35-1.39l.38,.28c-.49,.71-1.03,1.32-1.64,1.85-.6,.53-1.27,.79-1.99,.79-.31,0-.57-.09-.77-.27-.2-.18-.29-.41-.29-.7,0-.3,.03-.57,.08-.8,.05-.24,.14-.56,.25-.97l1.13-4.85c.08-.39,.16-.77,.24-1.13,.08-.36,.12-.68,.12-.97,0-.39-.08-.67-.24-.82-.16-.16-.38-.24-.68-.24-.53,0-1.17,.19-1.9,.58s-1.63,1.02-2.7,1.92l-.68,3.04c-.19,.82-.36,1.63-.51,2.44-.15,.81-.31,1.63-.48,2.46Z"/><path d="M130.39,247.09l1.7-7.99h-2.71l.12-.59,2.8-.19,.87-3.16h.8l-.66,3.16h3.18l-.12,.87-3.25-.09-1.63,7.73c-.06,.25-.12,.5-.17,.75-.05,.25-.07,.46-.07,.64,0,.39,.21,.59,.64,.59,.36,0,.76-.17,1.2-.51,.44-.34,.9-.8,1.39-1.4l.35,.28c-.49,.71-1.03,1.32-1.63,1.85s-1.26,.79-1.98,.79c-.3,0-.55-.09-.77-.28-.21-.19-.32-.45-.32-.78,0-.25,.02-.49,.05-.72,.03-.23,.09-.55,.19-.95Z"/><path d="M137.43,249.52l2.14-10.15-2.69-.09,.07-.47,3.49-.71,.31,.24-.64,3.42c.35-.63,.72-1.22,1.12-1.78,.4-.56,.82-1.01,1.27-1.35s.9-.52,1.35-.52c.74,0,1.22,.2,1.46,.59-.02,.27-.09,.48-.24,.65-.14,.17-.35,.25-.61,.25-.25,0-.5-.05-.74-.16-.24-.11-.48-.25-.72-.42-.57,.39-1.11,.94-1.64,1.65-.53,.71-1.04,1.52-1.54,2.43l-.33,1.55c-.17,.82-.34,1.63-.49,2.44-.16,.81-.32,1.63-.49,2.46l-.92,.14-.17-.14Z"/><path d="M152.02,249.83c-.3,0-.56-.1-.78-.29-.22-.2-.33-.49-.33-.88,0-.3,.02-.57,.06-.81,.04-.24,.1-.55,.18-.91l.02-.12c-.68,.86-1.37,1.58-2.1,2.16-.72,.57-1.45,.86-2.19,.86-.58,0-1.11-.22-1.59-.66-.48-.44-.72-1.19-.72-2.26,0-.8,.14-1.61,.42-2.44,.28-.82,.66-1.62,1.14-2.38,.48-.76,1.02-1.44,1.64-2.04,.61-.6,1.26-1.07,1.93-1.42,.68-.35,1.34-.53,2-.53,.55,0,1.02,.21,1.41,.64l.68-.73,.28,.19-1.88,8.65c-.06,.25-.12,.51-.16,.77-.05,.26-.07,.49-.07,.7,0,.19,.06,.32,.19,.4,.13,.08,.27,.12,.45,.12,.38,0,.79-.18,1.25-.54,.46-.36,.9-.82,1.32-1.39l.4,.31c-.47,.71-1.01,1.32-1.61,1.85-.6,.53-1.25,.79-1.94,.79Zm-6.31-3.42c0,.86,.16,1.48,.47,1.85,.31,.37,.71,.55,1.2,.55,.61,0,1.23-.25,1.85-.74s1.33-1.21,2.13-2.16l1.37-6.38c-.44-.31-.91-.47-1.41-.47-.55,0-1.1,.14-1.66,.42s-1.08,.67-1.57,1.15c-.71,.72-1.28,1.6-1.72,2.63-.44,1.03-.66,2.08-.66,3.14Z"/><path d="M159.18,249.83c-.44,0-.8-.13-1.08-.39-.28-.26-.42-.68-.42-1.26,0-.46,.05-.96,.16-1.51,.11-.55,.22-1.06,.33-1.53l1.27-5.8-2.52-.07,.09-.49,3.42-.68,.31,.24-1.46,6.46c-.11,.49-.22,1.02-.32,1.61-.1,.59-.15,1.04-.15,1.36,0,.69,.33,1.04,.99,1.04,.5,0,1.1-.17,1.8-.51,.7-.34,1.57-.95,2.63-1.85l.71-3.39c.17-.75,.33-1.51,.48-2.27,.15-.76,.29-1.52,.44-2.27l.9-.4,.24,.19-1.81,8.55c-.05,.25-.1,.51-.15,.77-.06,.26-.08,.48-.08,.65,0,.38,.21,.57,.64,.57,.36,0,.76-.17,1.2-.51,.44-.34,.9-.8,1.39-1.4l.38,.28c-.52,.71-1.07,1.32-1.65,1.85-.58,.53-1.22,.79-1.91,.79-.31,0-.59-.1-.81-.29-.23-.2-.34-.47-.34-.84,0-.22,.02-.44,.06-.66,.04-.22,.11-.53,.2-.92-.96,.91-1.83,1.59-2.61,2.04-.79,.45-1.55,.67-2.29,.67Z"/><path d="M183.73,249.83c-.31,0-.57-.09-.78-.27-.2-.18-.31-.41-.31-.7,0-.3,.03-.57,.09-.8s.14-.56,.24-.97l1.13-4.85c.09-.39,.18-.77,.26-1.13,.08-.36,.12-.68,.12-.97,0-.39-.07-.67-.22-.82-.15-.16-.38-.24-.7-.24-.53,0-1.12,.18-1.77,.55-.64,.37-1.49,1-2.54,1.9-.02,.06-.03,.12-.04,.18,0,.06-.02,.11-.04,.15l-.59,2.76c-.17,.82-.34,1.63-.51,2.44-.17,.81-.33,1.63-.48,2.46l-.92,.14-.16-.14,1.63-7.66c.06-.31,.13-.62,.19-.92,.06-.3,.09-.57,.09-.82,0-.38-.08-.64-.24-.8-.16-.16-.39-.24-.68-.24-.53,0-1.15,.19-1.85,.58-.7,.38-1.57,1.03-2.63,1.92l-.68,3.04c-.19,.82-.36,1.63-.51,2.44-.15,.81-.31,1.63-.48,2.46l-.92,.14-.17-.14,2.14-10.15-2.69-.09,.07-.47,3.56-.71,.31,.24-.49,2.52c.83-.82,1.7-1.48,2.59-1.99s1.66-.77,2.31-.77c.5,0,.88,.14,1.13,.41,.25,.27,.38,.65,.38,1.12,0,.16-.02,.34-.05,.54-.03,.2-.07,.42-.12,.64,.82-.82,1.65-1.47,2.49-1.97,.84-.49,1.58-.74,2.23-.74,.5,0,.88,.14,1.13,.41,.25,.27,.38,.66,.38,1.14,0,.38-.04,.75-.13,1.11-.09,.36-.18,.76-.27,1.2l-1.18,4.88c-.06,.27-.12,.53-.18,.79s-.08,.47-.08,.65c0,.36,.2,.54,.59,.54,.36,0,.76-.17,1.2-.51,.44-.34,.9-.8,1.39-1.4l.35,.28c-.49,.71-1.03,1.32-1.63,1.85-.6,.53-1.26,.79-1.98,.79Z"/><path d="M195.93,249.83c-.3,0-.56-.1-.78-.29-.22-.2-.33-.49-.33-.88,0-.3,.02-.57,.06-.81,.04-.24,.1-.55,.18-.91l.02-.12c-.68,.86-1.37,1.58-2.1,2.16-.72,.57-1.45,.86-2.19,.86-.58,0-1.11-.22-1.59-.66-.48-.44-.72-1.19-.72-2.26,0-.8,.14-1.61,.42-2.44,.28-.82,.66-1.62,1.14-2.38,.48-.76,1.02-1.44,1.64-2.04,.61-.6,1.26-1.07,1.93-1.42,.68-.35,1.34-.53,2-.53,.55,0,1.02,.21,1.41,.64l.68-.73,.28,.19-1.88,8.65c-.06,.25-.12,.51-.16,.77-.05,.26-.07,.49-.07,.7,0,.19,.06,.32,.19,.4,.13,.08,.27,.12,.45,.12,.38,0,.79-.18,1.25-.54,.46-.36,.9-.82,1.32-1.39l.4,.31c-.47,.71-1.01,1.32-1.61,1.85-.6,.53-1.25,.79-1.94,.79Zm-6.31-3.42c0,.86,.16,1.48,.47,1.85,.31,.37,.71,.55,1.2,.55,.61,0,1.23-.25,1.85-.74s1.33-1.21,2.13-2.16l1.37-6.38c-.44-.31-.91-.47-1.41-.47-.55,0-1.1,.14-1.66,.42s-1.08,.67-1.57,1.15c-.71,.72-1.28,1.6-1.72,2.63-.44,1.03-.66,2.08-.66,3.14Z"/><path d="M202.05,249.69c-.3,0-.53-.09-.71-.27-.17-.18-.26-.4-.26-.65,0-.31,.11-.58,.34-.79,.23-.21,.5-.32,.81-.32,.28,0,.51,.09,.67,.27,.17,.18,.25,.4,.25,.65,0,.33-.11,.6-.32,.8s-.48,.31-.79,.31Z"/></g><path d="M108.11,163.33c-1.78,0-3.22-.44-4.33-1.34-1.1-.89-1.98-1.69-2.62-2.4-.36-.92-.64-1.89-.85-2.88-.21-1-.32-2.06-.32-3.2,0-3.85,.85-7.14,2.56-9.88,1.71-2.74,3.92-5.25,6.62-7.53,2.71-2.28,5.55-4.52,8.55-6.73l3.31,3.63c-1.99,1.71-3.78,3.44-5.34,5.18-1.57,1.75-3.06,3.54-4.49,5.39l3.74,3.74c.85,.85,1.58,1.91,2.19,3.15,.6,1.25,.91,2.58,.91,4.01,0,2.42-.98,4.5-2.94,6.25-1.96,1.75-4.29,2.62-7,2.62Zm22.43,0c-1.78,0-3.22-.44-4.33-1.34-1.1-.89-1.98-1.69-2.62-2.4-.36-.92-.64-1.89-.85-2.88-.21-1-.32-2.06-.32-3.2,0-3.85,.85-7.14,2.56-9.88,1.71-2.74,3.92-5.25,6.62-7.53,2.71-2.28,5.55-4.52,8.55-6.73l3.31,3.63c-1.99,1.71-3.78,3.44-5.34,5.18-1.57,1.75-3.06,3.54-4.49,5.39l3.74,3.74c.85,.85,1.58,1.91,2.19,3.15,.6,1.25,.91,2.58,.91,4.01,0,2.42-.98,4.5-2.94,6.25-1.96,1.75-4.29,2.62-7,2.62Z"/></g><g><path d="M289.97,270.26v-2.2h5.94v2.2h-5.94Z"/><path d="M295.71,274.77l.26-1.3,1.91-.29,6.55-12.75h2.53l2.2,12.86,1.67,.18-.26,1.3h-7.19l.26-1.3,1.76-.18-.37-2.49h-4.64l-1.19,2.38,1.76,.29-.26,1.3h-4.99Zm5.37-5.34h3.76l-.88-5.76-2.88,5.76Z"/><path d="M313.74,275.12c-.59,0-1.04-.14-1.37-.42s-.49-.67-.49-1.17c0-.35,.04-.77,.13-1.26s.21-1.12,.37-1.88l.97-4.51c.16-.7,.32-1.42,.46-2.14,.15-.73,.28-1.45,.4-2.17l-1.21-.24,.13-.9,4.97-1.3,.37,.31-2.66,12.23c-.09,.35-.13,.62-.13,.81,0,.29,.11,.44,.33,.44,.28,0,.73-.43,1.36-1.28l.73,.46c-.28,.51-.63,1-1.04,1.46-.42,.46-.91,.84-1.46,1.12-.56,.29-1.17,.43-1.85,.43Z"/><path d="M319,273.54c0-.35,.04-.77,.13-1.25s.16-.86,.22-1.14l1.03-4.97-1.28-.31,.15-.9,5.01-1.3,.37,.33-1.69,7.68c-.09,.35-.13,.62-.13,.81,0,.29,.11,.44,.33,.44,.28,0,.73-.43,1.36-1.28l.73,.46c-.28,.51-.63,1-1.04,1.46-.42,.46-.91,.84-1.46,1.12-.56,.29-1.17,.43-1.85,.43-.59,0-1.05-.14-1.38-.42-.34-.28-.51-.67-.51-1.17Zm4.29-11.55c-.45,0-.87-.15-1.23-.45-.37-.3-.55-.71-.55-1.22,0-.62,.22-1.11,.66-1.5,.44-.38,.93-.57,1.47-.57,.51,0,.94,.16,1.26,.47,.33,.32,.49,.71,.49,1.18,0,.62-.21,1.12-.64,1.51-.43,.39-.92,.58-1.47,.58Z"/><path d="M326.96,271.36c.41,0,.78,.11,1.1,.34,.32,.23,.54,.63,.66,1.22l.29,1.28h.02c.47,0,.83-.13,1.08-.38s.37-.58,.37-.96c0-.34-.13-.66-.4-.98-.26-.32-.65-.69-1.17-1.11-.63-.54-1.13-1.06-1.49-1.56-.37-.5-.55-1.11-.55-1.85,0-.64,.17-1.25,.49-1.8,.33-.56,.82-1,1.48-1.34,.66-.34,1.47-.51,2.42-.51,1.14,0,1.98,.22,2.5,.66,.52,.44,.85,.98,.98,1.63-.01,.35-.14,.64-.37,.88-.23,.23-.57,.35-.99,.35-.31,0-.62-.11-.94-.34s-.58-.6-.78-1.13l-.4-1.08c-.35,.1-.61,.29-.77,.56-.16,.27-.24,.55-.24,.85,0,.44,.16,.85,.49,1.22,.33,.37,.77,.79,1.33,1.24,.67,.54,1.17,1.04,1.47,1.51,.31,.46,.46,1.02,.46,1.66,0,.59-.18,1.14-.54,1.66-.36,.52-.91,.94-1.64,1.26-.73,.32-1.67,.48-2.81,.48-.98,0-1.78-.2-2.4-.6-.62-.4-.99-1-1.12-1.79,.07-.43,.22-.76,.45-1,.23-.24,.56-.36,1-.36Z"/><path d="M339.89,275.12c-.84,0-1.59-.15-2.28-.45s-1.22-.77-1.63-1.41c-.4-.64-.6-1.46-.6-2.47,0-.89,.16-1.76,.49-2.61,.33-.84,.8-1.6,1.4-2.28,.6-.67,1.31-1.21,2.13-1.61,.82-.4,1.71-.59,2.68-.59,.85,0,1.61,.15,2.28,.45s1.2,.77,1.59,1.4c.4,.63,.59,1.46,.59,2.49,0,.89-.17,1.77-.49,2.62-.33,.85-.79,1.61-1.39,2.28s-1.3,1.2-2.11,1.59c-.81,.4-1.7,.59-2.67,.59Zm.26-1.32c.4,0,.75-.21,1.08-.62,.32-.41,.6-.95,.84-1.63,.23-.67,.42-1.41,.55-2.21,.13-.8,.2-1.59,.2-2.36s-.1-1.3-.29-1.56c-.19-.26-.44-.4-.75-.4-.4,0-.76,.21-1.09,.63-.33,.42-.61,.96-.85,1.64-.23,.68-.41,1.4-.54,2.18-.12,.78-.19,1.53-.19,2.24,0,.85,.1,1.41,.31,1.68,.2,.27,.45,.41,.73,.41Z"/><path d="M351.19,274.77l-3.41,.18-.35-.29,1.78-8.55-1.28-.24,.15-.9,4.79-1.3,.46,.4-.37,1.94c1.57-1.52,3.05-2.29,4.44-2.29,.48,0,.9,.16,1.25,.48,.35,.32,.53,.81,.53,1.47,0,.28-.02,.57-.05,.87-.04,.3-.1,.62-.19,.96l-1.06,4.18c-.04,.18-.08,.33-.11,.45-.03,.12-.04,.25-.04,.36,0,.29,.1,.44,.31,.44,.31,0,.78-.43,1.41-1.28l.73,.46c-.28,.51-.64,1-1.08,1.46-.44,.46-.94,.84-1.51,1.12-.57,.29-1.18,.43-1.86,.43-.59,0-1.04-.14-1.36-.42-.32-.28-.48-.67-.48-1.17,0-.35,.04-.73,.13-1.12s.17-.73,.24-1.01l.77-3.06c.18-.66,.26-1.17,.26-1.54,0-.18-.05-.31-.14-.41-.1-.1-.22-.14-.36-.14-.28,0-.6,.09-.96,.26-.36,.18-.74,.45-1.13,.84l-.57,2.66c-.18,.79-.34,1.58-.48,2.36-.15,.79-.3,1.58-.46,2.39Z"/><path d="M374.87,261.73l.26-1.3h4.31l-.26,1.3-1.43,.26-4.42,6.64c-.15,.76-.29,1.54-.44,2.32s-.29,1.57-.42,2.34l1.8,.18-.26,1.3h-7.59l.26-1.3,1.87-.2,.79-4.16-2.33-7.26-1.3-.13,.26-1.3h7.17l-.26,1.3-1.58,.2,1.5,5.39,3.43-5.34-1.36-.24Z"/><path d="M386,275.12c-.56,0-1.01-.2-1.37-.6-.36-.4-.54-.94-.54-1.62-.66,.73-1.35,1.29-2.08,1.66-.73,.37-1.43,.56-2.1,.56-.56,0-1.04-.18-1.45-.53-.41-.35-.62-.83-.62-1.43,0-.28,.02-.57,.07-.87,.04-.3,.1-.62,.18-.96l1.21-5.17-1.34-.31,.15-.9,4.95-1.3,.42,.4-1.54,6.4c-.06,.22-.11,.43-.15,.64-.04,.21-.07,.41-.07,.62,0,.32,.08,.55,.23,.67,.15,.12,.33,.19,.52,.19,.25,0,.52-.07,.8-.2,.29-.13,.59-.34,.91-.64,.03-.1,.06-.2,.08-.3,.02-.1,.04-.19,.06-.3l.75-3.47c.1-.47,.2-.94,.29-1.42s.18-.96,.26-1.46l3.54-1.12,.48,.4-1.74,7.61c-.09,.35-.13,.62-.13,.81,0,.29,.11,.44,.33,.44,.26,0,.71-.43,1.34-1.28l.73,.46c-.26,.5-.6,.98-1.01,1.44-.41,.46-.88,.84-1.4,1.13-.52,.29-1.1,.44-1.75,.44Z"/><path d="M394.62,275.12c-1.22,0-2.2-.38-2.95-1.14-.75-.76-1.12-1.77-1.12-3.01,0-.98,.17-1.91,.51-2.78,.34-.87,.81-1.65,1.42-2.32,.61-.67,1.33-1.2,2.17-1.58,.84-.38,1.75-.57,2.75-.57,1.08,0,1.92,.23,2.51,.7,.59,.47,.88,1.07,.88,1.8,0,1-.55,1.88-1.66,2.65-1.11,.77-2.69,1.4-4.76,1.88,.1,.59,.34,1.03,.7,1.34,.37,.31,.83,.46,1.39,.46,.63,0,1.2-.15,1.69-.46,.5-.31,.93-.69,1.3-1.14l.66,.46c-.29,.59-.7,1.17-1.22,1.74-.52,.57-1.14,1.04-1.85,1.42s-1.51,.56-2.41,.56Zm2.51-10.12c-.38,0-.78,.22-1.21,.66-.43,.44-.79,1.02-1.1,1.74-.31,.72-.48,1.5-.53,2.35,.89-.35,1.59-.74,2.1-1.17,.51-.42,.86-.86,1.08-1.32s.32-.88,.32-1.28c0-.34-.07-.59-.2-.75-.13-.16-.29-.24-.46-.24Z"/><path d="M405.07,274.77l-3.41,.18-.35-.29,1.78-8.55-1.28-.24,.15-.9,4.79-1.3,.46,.4-.33,1.8c1.51-1.44,2.94-2.16,4.29-2.16,.5,0,.92,.16,1.28,.48,.35,.32,.53,.81,.53,1.47v.16c0,.05,0,.1-.02,.14,.78-.73,1.54-1.29,2.28-1.68s1.46-.58,2.14-.58c.48,0,.9,.16,1.25,.48,.35,.32,.53,.81,.53,1.47,0,.28-.02,.57-.05,.87-.04,.3-.1,.62-.19,.96l-1.06,4.18c-.04,.18-.08,.33-.11,.45-.03,.12-.04,.25-.04,.36,0,.29,.1,.44,.31,.44,.31,0,.78-.43,1.41-1.28l.73,.46c-.28,.51-.64,1-1.08,1.46-.44,.46-.94,.84-1.51,1.12s-1.18,.43-1.86,.43c-.59,0-1.04-.14-1.36-.42-.32-.28-.48-.67-.48-1.17,0-.35,.04-.73,.13-1.12s.17-.73,.24-1.01l.77-3.06c.18-.66,.26-1.17,.26-1.54,0-.18-.05-.31-.14-.41s-.22-.14-.36-.14c-.28,0-.58,.08-.91,.24-.33,.16-.69,.42-1.07,.77-.01,.03-.02,.07-.02,.11s0,.08-.02,.11l-.53,2.53c-.16,.79-.32,1.58-.47,2.36-.15,.79-.31,1.58-.47,2.39l-3.41,.18-.35-.29,1.32-6.31c.07-.34,.14-.64,.19-.9,.05-.26,.08-.48,.08-.66,0-.16-.05-.29-.15-.38-.1-.1-.21-.14-.33-.14-.28,0-.59,.08-.92,.23-.34,.15-.69,.4-1.06,.74l-.62,2.79c-.18,.79-.34,1.58-.48,2.36-.15,.79-.3,1.58-.46,2.39Z"/><path d="M421.06,273.54c0-.35,.04-.77,.13-1.25s.16-.86,.22-1.14l1.03-4.97-1.28-.31,.15-.9,5.01-1.3,.37,.33-1.69,7.68c-.09,.35-.13,.62-.13,.81,0,.29,.11,.44,.33,.44,.28,0,.73-.43,1.36-1.28l.73,.46c-.28,.51-.63,1-1.04,1.46-.42,.46-.91,.84-1.46,1.12-.56,.29-1.17,.43-1.85,.43-.59,0-1.05-.14-1.38-.42-.34-.28-.51-.67-.51-1.17Zm4.29-11.55c-.45,0-.87-.15-1.23-.45-.37-.3-.55-.71-.55-1.22,0-.62,.22-1.11,.66-1.5,.44-.38,.93-.57,1.47-.57,.51,0,.94,.16,1.26,.47,.33,.32,.49,.71,.49,1.18,0,.62-.21,1.12-.64,1.51-.43,.39-.92,.58-1.47,.58Z"/><path d="M431.57,274.77l-3.41,.18-.35-.29,1.78-8.55-1.28-.24,.15-.9,4.79-1.3,.46,.4-.37,1.94c1.57-1.52,3.05-2.29,4.44-2.29,.48,0,.9,.16,1.25,.48,.35,.32,.53,.81,.53,1.47,0,.28-.02,.57-.05,.87-.04,.3-.1,.62-.19,.96l-1.06,4.18c-.04,.18-.08,.33-.11,.45-.03,.12-.04,.25-.04,.36,0,.29,.1,.44,.31,.44,.31,0,.78-.43,1.41-1.28l.73,.46c-.28,.51-.64,1-1.08,1.46-.44,.46-.94,.84-1.51,1.12-.57,.29-1.18,.43-1.86,.43-.59,0-1.04-.14-1.36-.42-.32-.28-.48-.67-.48-1.17,0-.35,.04-.73,.13-1.12s.17-.73,.24-1.01l.77-3.06c.18-.66,.26-1.17,.26-1.54,0-.18-.05-.31-.14-.41-.1-.1-.22-.14-.36-.14-.28,0-.6,.09-.96,.26-.36,.18-.74,.45-1.13,.84l-.57,2.66c-.18,.79-.34,1.58-.48,2.36-.15,.79-.3,1.58-.46,2.39Z"/><path d="M441.86,268.26c0-.81,.22-1.55,.66-2.24,.44-.69,1.03-1.25,1.78-1.67,.75-.43,1.58-.64,2.51-.64s1.63,.2,2.2,.6c.57,.4,.95,.87,1.14,1.4,.25-1.01,.57-1.71,.96-2.09s.85-.57,1.4-.57c.42,0,.78,.1,1.08,.29,.04,.07,.08,.16,.11,.25,.03,.1,.04,.22,.04,.38,0,.72-.23,1.25-.68,1.59-.45,.34-1.16,.62-2.11,.82-.04,.15-.08,.3-.12,.46-.04,.16-.08,.32-.12,.48-.21,.81-.49,1.53-.87,2.16-.37,.63-.9,1.12-1.58,1.47s-1.59,.53-2.72,.53c-.29,0-.57-.03-.82-.08-.26-.05-.49-.11-.71-.19-.15,.13-.23,.24-.26,.33-.03,.09-.04,.18-.04,.29,0,.18,.07,.34,.2,.51s.4,.26,.81,.29l3.32,.26c.86,.06,1.54,.22,2.02,.47,.48,.26,.82,.58,1.02,.98,.2,.4,.3,.84,.3,1.32,0,.81-.33,1.52-.99,2.16-.66,.63-1.56,1.13-2.69,1.49s-2.42,.55-3.86,.55-2.48-.19-3.22-.56c-.74-.37-1.11-.91-1.11-1.62,0-.53,.24-.99,.73-1.37,.48-.39,1.04-.72,1.67-1-.29-.16-.53-.37-.73-.64s-.29-.58-.29-.95c0-.65,.21-1.19,.62-1.64,.41-.45,.97-.88,1.69-1.31-.44-.32-.77-.71-.99-1.17-.22-.45-.33-.91-.33-1.36Zm.42,8.64c0,.5,.25,.89,.76,1.17,.51,.28,1.21,.42,2.1,.42,.95,0,1.68-.12,2.19-.37,.51-.25,.76-.6,.76-1.06,0-.7-.62-1.11-1.85-1.21l-3.41-.31c-.16,.19-.29,.4-.4,.63-.1,.23-.15,.47-.15,.74Zm4.07-6.4c.21,0,.41-.08,.6-.24,.2-.16,.36-.47,.49-.91,.13-.45,.2-1.09,.2-1.92s-.1-1.51-.3-1.98c-.2-.47-.48-.7-.85-.7-.41,0-.73,.27-.96,.81-.23,.54-.34,1.28-.34,2.2,0,.43,.03,.85,.1,1.28,.07,.43,.18,.78,.35,1.06,.17,.28,.4,.42,.69,.42Z"/><path d="M466.51,279.65c-1.44,0-2.59-.41-3.46-1.22-.87-.81-1.38-1.97-1.53-3.46-1.11-.32-2.03-.96-2.74-1.91-.71-.95-1.07-2.27-1.07-3.94,0-1.16,.19-2.28,.56-3.38,.37-1.09,.92-2.07,1.65-2.94,.73-.86,1.62-1.55,2.67-2.06,1.06-.51,2.26-.76,3.63-.76,1.13,0,2.12,.24,2.97,.71s1.51,1.16,1.99,2.06c.48,.89,.71,1.97,.71,3.23,0,1.45-.27,2.82-.8,4.1-.54,1.28-1.31,2.37-2.32,3.25-1.01,.89-2.25,1.46-3.72,1.73,.12,.85,.43,1.52,.95,2,.51,.48,1.21,.73,2.09,.73,.48,0,.9-.03,1.25-.09,.35-.06,.71-.15,1.08-.26l.44,1.08c-.48,.34-1.07,.61-1.76,.81s-1.55,.31-2.6,.31Zm-2.88-5.76c.57,0,1.11-.24,1.63-.71,.51-.48,.97-1.13,1.36-1.96,.4-.83,.71-1.77,.95-2.84,.23-1.06,.35-2.18,.35-3.35,0-1.26-.14-2.2-.41-2.8-.27-.61-.77-.91-1.48-.91-.57,0-1.12,.23-1.64,.69-.52,.46-.99,1.1-1.4,1.9-.41,.81-.73,1.73-.97,2.77-.23,1.04-.35,2.15-.35,3.32,0,1.33,.15,2.32,.46,2.95,.31,.63,.81,.95,1.5,.95Z"/><path d="M481.31,275.12c-.56,0-1.01-.2-1.37-.6-.36-.4-.54-.94-.54-1.62-.66,.73-1.35,1.29-2.08,1.66-.73,.37-1.43,.56-2.1,.56-.56,0-1.04-.18-1.45-.53-.41-.35-.62-.83-.62-1.43,0-.28,.02-.57,.07-.87,.04-.3,.1-.62,.18-.96l1.21-5.17-1.34-.31,.15-.9,4.95-1.3,.42,.4-1.54,6.4c-.06,.22-.11,.43-.15,.64-.04,.21-.07,.41-.07,.62,0,.32,.08,.55,.23,.67,.15,.12,.33,.19,.52,.19,.25,0,.52-.07,.8-.2,.29-.13,.59-.34,.91-.64,.03-.1,.06-.2,.08-.3,.02-.1,.04-.19,.06-.3l.75-3.47c.1-.47,.2-.94,.29-1.42s.18-.96,.26-1.46l3.54-1.12,.48,.4-1.74,7.61c-.09,.35-.13,.62-.13,.81,0,.29,.11,.44,.33,.44,.26,0,.71-.43,1.34-1.28l.73,.46c-.26,.5-.6,.98-1.01,1.44-.41,.46-.88,.84-1.4,1.13-.52,.29-1.1,.44-1.75,.44Z"/><path d="M303.35,293.04h-3.94v-10.87h3.94v.7h-3.21v4.13h3.03v.7h-3.03v4.65h3.21v.7Z"/><path d="M306.25,288.86l-1.77-3.88h.77l1.35,3.27,1.41-3.27h.74l-1.8,3.97,1.89,4.1h-.74l-1.51-3.49-1.52,3.49h-.73l1.92-4.19Z"/><path d="M312.47,293.19c-.85,0-1.51-.36-1.97-1.09-.46-.73-.69-1.74-.69-3.04,0-1.38,.2-2.43,.61-3.16,.41-.73,1-1.09,1.77-1.09,.67,0,1.2,.32,1.58,.95,.39,.64,.58,1.5,.58,2.58v.65h-3.82c0,1.17,.18,2.05,.5,2.64s.81,.88,1.46,.88c.51,0,1.04-.17,1.6-.5v.68c-.52,.32-1.06,.48-1.63,.48Zm-.32-7.73c-.97,0-1.5,.97-1.6,2.91h3.1c0-.89-.14-1.59-.41-2.12-.27-.53-.64-.79-1.1-.79Z"/><path d="M318.22,293.19c-.81,0-1.42-.35-1.83-1.05-.41-.7-.61-1.73-.61-3.09s.21-2.43,.62-3.15c.41-.72,1.02-1.08,1.83-1.08,.5,0,.92,.09,1.25,.27l-.28,.62c-.33-.15-.64-.23-.91-.23-1.18,0-1.78,1.18-1.78,3.55s.59,3.52,1.78,3.52c.35,0,.73-.08,1.14-.24v.59c-.16,.09-.36,.16-.6,.21-.24,.05-.44,.07-.62,.07Z"/><path d="M321.54,284.97v5.26c0,.8,.1,1.38,.29,1.75,.19,.37,.48,.55,.88,.55,.61,0,1.06-.25,1.34-.74s.43-1.29,.43-2.39v-4.43h.7v8.07h-.59l-.09-1.13h-.06c-.17,.41-.41,.73-.72,.95-.31,.22-.64,.33-1,.33-.65,0-1.12-.23-1.42-.69s-.45-1.21-.45-2.26v-5.26h.71Z"/><path d="M328.81,292.54c.22,0,.41-.03,.58-.09v.59c-.22,.1-.5,.15-.84,.15-.83,0-1.25-.62-1.25-1.87v-5.72h-.73v-.42l.71-.21,.23-1.92h.49v1.92h1.28v.62h-1.28v5.52c0,.55,.06,.92,.18,1.12s.33,.3,.62,.3Z"/><path d="M330.57,282.74c0-.22,.05-.4,.14-.52s.21-.19,.35-.19c.13,0,.24,.06,.32,.19,.08,.12,.12,.3,.12,.52s-.04,.38-.12,.51c-.08,.13-.19,.19-.32,.19-.14,0-.26-.06-.35-.19s-.14-.3-.14-.51Zm.81,10.3h-.71v-8.07h.71v8.07Z"/><path d="M334.43,293.04l-1.9-8.07h.71l1.2,5.19c.14,.6,.27,1.25,.4,1.96h.06c.03-.26,.08-.55,.15-.86,.06-.32,.55-2.41,1.46-6.29h.71l-1.96,8.07h-.84Z"/><path d="M340.68,293.19c-.85,0-1.51-.36-1.97-1.09-.46-.73-.69-1.74-.69-3.04,0-1.38,.2-2.43,.61-3.16,.41-.73,1-1.09,1.77-1.09,.67,0,1.2,.32,1.58,.95,.39,.64,.58,1.5,.58,2.58v.65h-3.82c0,1.17,.18,2.05,.5,2.64s.81,.88,1.46,.88c.51,0,1.04-.17,1.6-.5v.68c-.52,.32-1.06,.48-1.63,.48Zm-.32-7.73c-.97,0-1.5,.97-1.6,2.91h3.1c0-.89-.14-1.59-.41-2.12-.27-.53-.64-.79-1.1-.79Z"/><path d="M349.81,293.19c-.41,0-.78-.11-1.11-.34-.33-.23-.59-.53-.76-.93h-.07l.05,.88v3.89h-.71v-11.72h.58l.07,1.11h.07c.2-.41,.45-.72,.76-.94,.31-.22,.65-.33,1.01-.33,1.58,0,2.36,1.39,2.36,4.17,0,1.34-.19,2.38-.58,3.11-.39,.73-.95,1.09-1.69,1.09Zm-.14-7.7c-.59,0-1.03,.26-1.32,.78-.29,.52-.43,1.34-.43,2.45v.23c0,1.24,.15,2.15,.44,2.73,.29,.58,.74,.87,1.34,.87,.56,0,.97-.29,1.24-.87s.41-1.48,.41-2.7-.13-2.04-.38-2.62c-.25-.58-.68-.88-1.29-.88Z"/><path d="M356.1,284.82c.25,0,.49,.03,.71,.1l-.17,.71c-.18-.07-.36-.11-.55-.11-.27,0-.53,.14-.76,.42s-.42,.67-.55,1.17c-.13,.5-.2,1.05-.2,1.66v4.27h-.71v-8.07h.58l.07,1.41h.05c.38-1.05,.89-1.57,1.53-1.57Z"/><path d="M362.56,288.99c0,1.36-.21,2.4-.64,3.12-.43,.72-1.04,1.08-1.84,1.08s-1.39-.36-1.81-1.08c-.42-.72-.63-1.76-.63-3.12,0-2.78,.82-4.17,2.47-4.17,.77,0,1.38,.36,1.81,1.09,.43,.73,.65,1.75,.65,3.08Zm-4.18,0c0,1.16,.14,2.04,.42,2.64,.28,.59,.71,.89,1.3,.89,1.15,0,1.73-1.18,1.73-3.53s-.58-3.5-1.73-3.5c-.6,0-1.04,.29-1.31,.88-.27,.58-.4,1.46-.4,2.62Z"/><path d="M366.3,293.19c-1.57,0-2.35-1.39-2.35-4.17,0-1.37,.2-2.41,.59-3.13,.39-.72,.97-1.07,1.73-1.07,.36,0,.71,.1,1.03,.31,.32,.21,.58,.5,.78,.86h.06l-.03-.9v-3.62h.71v11.57h-.58l-.06-1.13h-.07c-.19,.41-.44,.73-.75,.95-.31,.22-.66,.33-1.06,.33Zm.04-.62c.57,0,1-.26,1.31-.78,.3-.52,.46-1.29,.46-2.31v-.46c0-1.22-.15-2.11-.44-2.68-.3-.57-.75-.85-1.35-.85s-1,.3-1.25,.91-.38,1.49-.38,2.64,.13,2.04,.39,2.64,.68,.9,1.26,.9Z"/><path d="M371.65,284.97v5.26c0,.8,.1,1.38,.29,1.75,.19,.37,.48,.55,.88,.55,.61,0,1.06-.25,1.34-.74s.43-1.29,.43-2.39v-4.43h.7v8.07h-.59l-.09-1.13h-.06c-.17,.41-.41,.73-.72,.95-.31,.22-.64,.33-1,.33-.65,0-1.12-.23-1.42-.69s-.45-1.21-.45-2.26v-5.26h.71Z"/><path d="M379.51,293.19c-.81,0-1.42-.35-1.83-1.05-.41-.7-.61-1.73-.61-3.09s.21-2.43,.62-3.15c.41-.72,1.02-1.08,1.83-1.08,.5,0,.92,.09,1.25,.27l-.28,.62c-.33-.15-.64-.23-.91-.23-1.18,0-1.78,1.18-1.78,3.55s.59,3.52,1.78,3.52c.35,0,.73-.08,1.14-.24v.59c-.16,.09-.36,.16-.6,.21-.24,.05-.44,.07-.62,.07Z"/><path d="M384.45,293.19c-.85,0-1.51-.36-1.97-1.09-.46-.73-.69-1.74-.69-3.04,0-1.38,.2-2.43,.61-3.16,.41-.73,1-1.09,1.77-1.09,.67,0,1.2,.32,1.58,.95,.39,.64,.58,1.5,.58,2.58v.65h-3.82c0,1.17,.18,2.05,.5,2.64s.81,.88,1.46,.88c.51,0,1.04-.17,1.6-.5v.68c-.52,.32-1.06,.48-1.63,.48Zm-.32-7.73c-.97,0-1.5,.97-1.6,2.91h3.1c0-.89-.14-1.59-.41-2.12-.27-.53-.64-.79-1.1-.79Z"/><path d="M390.37,284.82c.25,0,.49,.03,.71,.1l-.17,.71c-.18-.07-.36-.11-.55-.11-.27,0-.53,.14-.76,.42s-.42,.67-.55,1.17c-.13,.5-.2,1.05-.2,1.66v4.27h-.71v-8.07h.58l.07,1.41h.05c.38-1.05,.89-1.57,1.53-1.57Z"/><path d="M399.69,288.99c0,1.36-.21,2.4-.64,3.12-.43,.72-1.04,1.08-1.84,1.08s-1.39-.36-1.81-1.08c-.42-.72-.63-1.76-.63-3.12,0-2.78,.82-4.17,2.47-4.17,.77,0,1.38,.36,1.81,1.09,.43,.73,.65,1.75,.65,3.08Zm-4.18,0c0,1.16,.14,2.04,.42,2.64,.28,.59,.71,.89,1.3,.89,1.15,0,1.73-1.18,1.73-3.53s-.58-3.5-1.73-3.5c-.6,0-1.04,.29-1.31,.88-.27,.58-.4,1.46-.4,2.62Z"/><path d="M403.52,285.6h-1.26v7.44h-.7v-7.44h-1.03v-.4l1.03-.3v-.61c0-1.03,.12-1.76,.36-2.22,.24-.45,.66-.68,1.26-.68,.35,0,.66,.06,.94,.19l-.25,.65c-.26-.12-.5-.19-.71-.19-.24,0-.43,.07-.55,.21-.12,.14-.22,.38-.28,.7-.06,.32-.09,.77-.09,1.34v.68h1.26v.62Z"/><path d="M410.87,282.7c-.82,0-1.47,.43-1.95,1.3s-.72,2.06-.72,3.59c0,1,.11,1.86,.33,2.6s.54,1.31,.96,1.7c.42,.4,.9,.59,1.45,.59s1.05-.1,1.46-.3v.67c-.39,.22-.9,.33-1.52,.33-.69,0-1.29-.22-1.81-.67-.52-.45-.92-1.09-1.2-1.94-.28-.84-.42-1.85-.42-3.01,0-1.73,.31-3.1,.93-4.09,.62-.99,1.46-1.49,2.52-1.49,.66,0,1.24,.15,1.74,.46l-.33,.64c-.42-.27-.89-.4-1.42-.4Z"/><path d="M419.45,293.04h-.73v-5.35h-3.79v5.35h-.73v-10.87h.73v4.82h3.79v-4.82h.73v10.87Z"/><path d="M427.06,282.17v7.34c0,2.45-.88,3.68-2.63,3.68-.88,0-1.55-.32-2.01-.95s-.69-1.54-.69-2.73v-7.34h.74v7.43c0,.94,.17,1.66,.51,2.15,.34,.49,.82,.74,1.45,.74s1.1-.25,1.42-.74c.32-.49,.48-1.22,.48-2.18v-7.4h.73Z"/><path d="M433.46,293.04l-.96-3.94h-2.64l-.94,3.94h-.76l2.62-10.87h.75l2.68,10.87h-.74Zm-1.13-4.68l-.96-4.05c-.1-.46-.18-.89-.23-1.29-.04,.43-.11,.86-.21,1.29l-.93,4.05h2.33Z"/><path d="M441.12,293.04h-.93l-4.11-9.75h-.06c.06,.67,.09,1.32,.09,1.95v7.8h-.71v-10.87h.94l4.08,9.63h.05c-.04-.81-.06-1.49-.06-2.04v-7.6h.71v10.87Z"/><path d="M447.07,287.56h2.38v5.14c-.83,.32-1.69,.48-2.58,.48-1.18,0-2.1-.5-2.76-1.49s-.98-2.37-.98-4.13,.34-3.13,1.01-4.1,1.63-1.46,2.85-1.46c.82,0,1.6,.23,2.33,.7l-.35,.64c-.68-.44-1.34-.65-1.98-.65-1.02,0-1.79,.42-2.31,1.25-.52,.84-.78,2.05-.78,3.64s.26,2.76,.79,3.62c.53,.85,1.27,1.28,2.24,1.28,.69,0,1.29-.09,1.78-.27v-3.96h-1.64v-.7Z"/><path d="M458.52,290.19c0,.89-.25,1.61-.74,2.17s-1.12,.83-1.89,.83c-.87,0-1.56-.13-2.09-.38v-.79c.26,.14,.58,.26,.96,.34s.76,.13,1.13,.13c.55,0,1.01-.21,1.37-.63,.36-.42,.54-.96,.54-1.61,0-.6-.13-1.08-.38-1.43-.25-.35-.74-.7-1.45-1.06-.56-.28-.98-.56-1.26-.82-.28-.27-.48-.57-.62-.93-.13-.35-.2-.77-.2-1.26,0-.53,.11-1.01,.33-1.43s.52-.74,.91-.97,.82-.35,1.29-.35c.42,0,.8,.05,1.15,.14,.34,.09,.62,.2,.81,.3l-.28,.7c-.55-.28-1.11-.42-1.68-.42-.54,0-.97,.18-1.31,.55-.33,.36-.5,.85-.5,1.45s.12,1.08,.36,1.42c.24,.34,.72,.69,1.43,1.05,.73,.36,1.27,.77,1.61,1.25,.34,.48,.51,1.06,.51,1.74Z"/><path d="M461.73,292.54c.22,0,.41-.03,.58-.09v.59c-.22,.1-.5,.15-.84,.15-.83,0-1.25-.62-1.25-1.87v-5.72h-.73v-.42l.71-.21,.23-1.92h.49v1.92h1.28v.62h-1.28v5.52c0,.55,.06,.92,.18,1.12s.33,.3,.62,.3Z"/><path d="M466.71,293.04l-.09-1.13h-.03c-.39,.85-.97,1.28-1.75,1.28-.53,0-.95-.21-1.27-.63-.32-.42-.48-.98-.48-1.68,0-.77,.23-1.38,.69-1.83s1.11-.69,1.94-.73l.87-.05v-.67c0-.75-.09-1.3-.28-1.65s-.5-.52-.94-.52c-.46,0-.93,.15-1.41,.45l-.31-.56c.56-.35,1.15-.52,1.76-.52,.66,0,1.14,.21,1.44,.63,.29,.42,.44,1.12,.44,2.1v5.49h-.58Zm-1.72-.45c.51,0,.9-.25,1.18-.75,.28-.5,.42-1.2,.42-2.11v-.84l-.84,.04c-.65,.03-1.13,.21-1.45,.54-.31,.32-.47,.8-.47,1.42,0,.58,.1,1.01,.31,1.29,.21,.27,.49,.41,.85,.41Z"/><path d="M473.64,284.97v.5l-1.1,.13c.15,.19,.27,.47,.36,.83,.09,.36,.14,.73,.14,1.1,0,.78-.18,1.42-.53,1.9-.35,.49-.82,.73-1.4,.73h-.33c-.24,.15-.42,.32-.56,.49-.14,.17-.2,.36-.2,.59s.09,.41,.27,.53c.18,.13,.42,.19,.72,.19h.51c.72,0,1.28,.19,1.67,.56,.4,.37,.6,.91,.6,1.61,0,.79-.27,1.41-.8,1.87-.53,.46-1.24,.69-2.11,.69-.73,0-1.29-.18-1.68-.55s-.59-.9-.59-1.59c0-.51,.13-.94,.39-1.3,.26-.36,.66-.64,1.21-.85-.25-.11-.45-.26-.6-.45-.15-.19-.23-.42-.23-.69,0-.24,.08-.46,.24-.65,.16-.19,.39-.4,.69-.61-.41-.19-.72-.49-.93-.91-.21-.42-.32-.92-.32-1.49,0-.86,.18-1.53,.54-2.03,.36-.49,.86-.74,1.49-.74,.34,0,.62,.05,.85,.16h1.71Zm-4.34,9.52c0,.51,.13,.91,.4,1.2s.67,.43,1.2,.43c.66,0,1.19-.17,1.58-.52,.39-.35,.58-.82,.58-1.43,0-.49-.13-.86-.4-1.13s-.65-.4-1.16-.4h-.52c-.49,0-.89,.17-1.21,.51-.32,.34-.48,.78-.48,1.33Zm.44-6.88c0,.66,.12,1.16,.36,1.5,.24,.34,.57,.51,.97,.51,.86,0,1.29-.69,1.29-2.08,0-.67-.11-1.19-.33-1.57-.22-.38-.54-.57-.96-.57s-.76,.19-.99,.58c-.23,.39-.34,.93-.34,1.63Z"/><path d="M477.22,293.19c-.85,0-1.51-.36-1.97-1.09-.46-.73-.69-1.74-.69-3.04,0-1.38,.2-2.43,.61-3.16,.41-.73,1-1.09,1.77-1.09,.67,0,1.2,.32,1.58,.95,.39,.64,.58,1.5,.58,2.58v.65h-3.82c0,1.17,.18,2.05,.5,2.64s.81,.88,1.46,.88c.51,0,1.04-.17,1.6-.5v.68c-.52,.32-1.06,.48-1.63,.48Zm-.32-7.73c-.97,0-1.5,.97-1.6,2.91h3.1c0-.89-.14-1.59-.41-2.12-.27-.53-.64-.79-1.1-.79Z"/></g></g></g></svg>