<?xml version="1.0" encoding="UTF-8"?><svg xmlns="http://www.w3.org/2000/svg" viewBox="0 0 614.4 409.5"><defs><style>.c{fill:#fff;}</style></defs><g id="a"><rect class="c" width="614.4" height="409.5"/></g><g id="b"><g><g><g><path d="M123.61,129.02l.16-.87h7.04l-.16,.87-2.93,.28-8.88,20.15h-.84l-2.27-18.22-8.57,18.22h-.84l-1.59-20.18-2.71-.25,.16-.87h7.51l-.16,.87-3.15,.28,1.12,17.35,8.1-17.35-2.99-.28,.16-.87h7.54l-.16,.87-3.11,.28,2.02,17.51,7.51-17.51-2.96-.28Z"/><path d="M132.21,149.55c-.81,0-1.56-.19-2.24-.56-.69-.37-1.24-.97-1.65-1.79-.42-.82-.62-1.9-.62-3.22,0-1.25,.22-2.46,.65-3.63,.44-1.17,1.03-2.24,1.78-3.19s1.6-1.71,2.57-2.27c.97-.56,1.98-.84,3.04-.84,.85,0,1.55,.21,2.09,.64,.54,.43,.81,1.06,.81,1.92,0,1.29-.77,2.58-2.32,3.88-1.55,1.3-3.97,2.4-7.27,3.32,.04,1.52,.39,2.63,1.04,3.35,.65,.72,1.52,1.07,2.6,1.07,.93,0,1.76-.24,2.48-.72,.72-.48,1.35-1.08,1.92-1.81l.5,.37c-.66,1.02-1.44,1.85-2.34,2.51-.89,.65-1.9,.98-3.02,.98Zm3.15-14.61c-.69,0-1.39,.22-2.1,.67-.72,.45-1.38,1.05-1.98,1.82-.6,.77-1.11,1.63-1.51,2.59-.4,.96-.64,1.94-.7,2.96,2.78-.79,4.86-1.73,6.23-2.83,1.37-1.1,2.06-2.22,2.06-3.36,0-.6-.18-1.06-.54-1.37-.36-.31-.85-.47-1.45-.47Z"/><path d="M151.62,149.55c-.81,0-1.56-.2-2.24-.59-.69-.39-1.24-1-1.65-1.82-.42-.82-.62-1.86-.62-3.13s.23-2.56,.69-3.77c.46-1.2,1.06-2.27,1.82-3.19,.76-.92,1.61-1.66,2.55-2.2s1.91-.81,2.88-.81c.81,0,1.49,.21,2.04,.62,.55,.42,.9,.87,1.04,1.37-.02,.25-.12,.44-.3,.56-.18,.12-.36,.19-.55,.19-.21,0-.41-.06-.61-.19s-.42-.31-.67-.56l-1.18-1.25c-.87,.15-1.69,.49-2.46,1.04-.77,.55-1.44,1.25-2.01,2.09-.57,.84-1.02,1.76-1.34,2.76-.32,1-.48,2-.48,3.02,0,1.52,.33,2.65,1,3.4,.66,.75,1.57,1.12,2.71,1.12,.87,0,1.66-.24,2.37-.72,.71-.48,1.33-1.08,1.87-1.81l.5,.37c-.64,1.04-1.42,1.88-2.34,2.52-.91,.64-1.92,.97-3.02,.97Z"/><path d="M169.15,149.55c-.4,0-.74-.13-1.03-.39-.29-.26-.44-.65-.44-1.17,0-.39,.03-.75,.08-1.07,.05-.32,.13-.72,.23-1.2l.03-.16c-.89,1.14-1.82,2.09-2.77,2.85-.96,.76-1.92,1.14-2.9,1.14-.77,0-1.47-.29-2.1-.87-.63-.58-.95-1.58-.95-2.99,0-1.06,.19-2.13,.56-3.22,.37-1.09,.88-2.14,1.51-3.15,.63-1.01,1.35-1.9,2.17-2.69,.81-.79,1.66-1.42,2.55-1.88,.89-.47,1.78-.7,2.65-.7,.73,0,1.35,.28,1.87,.84l.9-.97,.37,.25-2.49,11.43c-.08,.33-.16,.67-.22,1.01-.06,.34-.09,.65-.09,.92,0,.25,.08,.43,.25,.53,.17,.1,.36,.16,.59,.16,.5,0,1.05-.24,1.65-.72,.6-.48,1.18-1.09,1.74-1.84l.53,.4c-.62,.93-1.33,1.75-2.13,2.45-.8,.7-1.66,1.04-2.57,1.04Zm-8.35-4.52c0,1.14,.21,1.96,.62,2.45,.42,.49,.94,.73,1.59,.73,.81,0,1.62-.33,2.45-.98,.82-.65,1.76-1.6,2.82-2.85l1.81-8.44c-.58-.42-1.2-.62-1.87-.62-.73,0-1.46,.19-2.2,.56-.74,.37-1.43,.88-2.07,1.53-.93,.96-1.69,2.11-2.27,3.47-.58,1.36-.87,2.75-.87,4.16Z"/><path d="M177.69,149.14l-1.21,.19-.22-.19,2.83-13.43-3.55-.12,.09-.62,4.7-.93,.41,.31-.65,3.33c.75-.73,1.52-1.36,2.32-1.9,.8-.54,1.58-.97,2.34-1.28,.76-.31,1.42-.47,1.98-.47,.66,0,1.16,.18,1.5,.55,.33,.36,.5,.87,.5,1.51,0,.5-.05,.99-.16,1.46-.1,.48-.23,1.01-.37,1.59l-1.53,6.45c-.08,.35-.17,.7-.25,1.04-.08,.34-.12,.63-.12,.86,0,.48,.27,.72,.81,.72,.48,0,1.01-.23,1.6-.69,.59-.46,1.19-1.07,1.79-1.84l.5,.37c-.64,.93-1.37,1.75-2.17,2.45-.8,.7-1.68,1.04-2.63,1.04-.42,0-.75-.12-1.01-.36-.26-.24-.39-.55-.39-.92,0-.39,.04-.75,.11-1.06s.18-.74,.33-1.28l1.5-6.42c.1-.52,.21-1.02,.31-1.5,.1-.48,.16-.9,.16-1.28,0-.52-.1-.88-.31-1.09-.21-.21-.51-.31-.9-.31-.71,0-1.54,.25-2.51,.76-.97,.51-2.15,1.35-3.57,2.54l-.9,4.02c-.25,1.08-.47,2.15-.67,3.22-.2,1.07-.41,2.15-.64,3.25Z"/><path d="M196.75,126.71c.17,0,.33,.02,.5,.06,.17,.04,.33,.14,.5,.28,.1,.17,.18,.38,.22,.64,.04,.26,.06,.5,.06,.73,0,1.16-.35,2.24-1.06,3.24-.71,1-1.63,1.95-2.77,2.87l-.44-.56c.73-.69,1.32-1.31,1.78-1.87,.46-.56,.85-1.26,1.18-2.09l-.5-.62c-.44-.5-.65-.93-.65-1.31,0-.42,.12-.75,.36-1,.24-.25,.51-.37,.83-.37Z"/><path d="M200.43,145.93l2.24-10.56h-3.58l.16-.78,3.71-.25,1.15-4.17h1.06l-.87,4.17h4.21l-.16,1.15-4.3-.12-2.15,10.22c-.08,.33-.16,.66-.22,1-.06,.33-.09,.61-.09,.84,0,.52,.28,.78,.84,.78,.48,0,1.01-.22,1.59-.67,.58-.45,1.19-1.06,1.84-1.85l.47,.37c-.64,.93-1.36,1.75-2.15,2.45-.79,.7-1.66,1.04-2.62,1.04-.4,0-.73-.12-1.01-.37-.28-.25-.42-.59-.42-1.03,0-.33,.02-.65,.06-.95,.04-.3,.12-.72,.25-1.26Z"/><path d="M226.31,145.59c-.06,.33-.12,.66-.17,1-.05,.33-.08,.61-.08,.84,0,.52,.28,.78,.84,.78,.48,0,1.02-.23,1.62-.69,.6-.46,1.2-1.07,1.81-1.84l.47,.37c-.62,.91-1.33,1.72-2.13,2.43-.8,.71-1.67,1.06-2.6,1.06-.42,0-.76-.12-1.04-.37-.28-.25-.42-.61-.42-1.09,0-.29,.02-.59,.06-.89,.04-.3,.11-.72,.22-1.26l.19-.9c-.67,.85-1.38,1.62-2.13,2.31s-1.52,1.23-2.27,1.62c-.76,.39-1.48,.59-2.17,.59-.79,0-1.45-.29-1.99-.86-.54-.57-.81-1.55-.81-2.94,0-1.06,.19-2.14,.56-3.26,.37-1.11,.88-2.17,1.53-3.18,.64-1.01,1.38-1.9,2.2-2.69,.82-.79,1.69-1.42,2.6-1.88,.91-.47,1.82-.7,2.71-.7,.73,0,1.35,.22,1.87,.65l1.4-7.07-3.52-.16,.12-.62,4.7-.9,.34,.28-3.89,19.38Zm-9.16-.47c0,1.08,.19,1.86,.56,2.35,.37,.49,.87,.73,1.5,.73,.89,0,1.82-.36,2.77-1.09,.96-.73,2.06-1.8,3.3-3.21l1.56-7.82c-.33-.29-.67-.49-1.03-.61-.35-.11-.7-.17-1.03-.17-.91,0-1.8,.25-2.66,.75-.86,.5-1.64,1.15-2.32,1.96-.79,.96-1.43,2.06-1.92,3.3-.49,1.25-.73,2.51-.73,3.8Z"/><path d="M237.06,149.55c-.81,0-1.58-.19-2.32-.56-.74-.37-1.34-.97-1.82-1.78-.48-.81-.72-1.85-.72-3.12s.19-2.5,.58-3.71c.38-1.2,.92-2.28,1.62-3.24,.7-.96,1.51-1.71,2.45-2.27,.93-.56,1.94-.84,3.02-.84,1.35,0,2.49,.44,3.43,1.32,.93,.88,1.4,2.28,1.4,4.19,0,1.31-.2,2.56-.59,3.77-.39,1.2-.94,2.27-1.63,3.21-.7,.93-1.51,1.67-2.43,2.21-.92,.54-1.92,.81-2.97,.81Zm.19-.87c.87,0,1.67-.26,2.38-.78,.72-.52,1.34-1.2,1.87-2.06,.53-.85,.94-1.8,1.23-2.83,.29-1.04,.44-2.08,.44-3.12,0-1.76-.32-3.03-.96-3.8-.64-.77-1.48-1.15-2.49-1.15-.87,0-1.67,.25-2.4,.76-.73,.51-1.36,1.19-1.9,2.06s-.96,1.82-1.25,2.88-.44,2.13-.44,3.21c0,1.68,.34,2.91,1.03,3.68,.69,.77,1.52,1.15,2.49,1.15Z"/><path d="M263.63,149.55c-.39,0-.74-.13-1.03-.39s-.44-.65-.44-1.17c0-.39,.03-.75,.08-1.07,.05-.32,.13-.72,.23-1.2l.03-.16c-.89,1.14-1.82,2.09-2.77,2.85-.96,.76-1.92,1.14-2.9,1.14-.77,0-1.47-.29-2.1-.87s-.95-1.58-.95-2.99c0-1.06,.19-2.13,.56-3.22,.37-1.09,.88-2.14,1.51-3.15,.63-1.01,1.35-1.9,2.16-2.69,.81-.79,1.66-1.42,2.55-1.88,.89-.47,1.78-.7,2.65-.7,.73,0,1.35,.28,1.87,.84l.9-.97,.37,.25-2.49,11.43c-.08,.33-.16,.67-.22,1.01s-.09,.65-.09,.92c0,.25,.08,.43,.25,.53,.17,.1,.36,.16,.59,.16,.5,0,1.05-.24,1.65-.72,.6-.48,1.18-1.09,1.74-1.84l.53,.4c-.62,.93-1.33,1.75-2.13,2.45-.8,.7-1.66,1.04-2.57,1.04Zm-8.35-4.52c0,1.14,.21,1.96,.62,2.45,.42,.49,.95,.73,1.59,.73,.81,0,1.62-.33,2.45-.98,.82-.65,1.76-1.6,2.82-2.85l1.81-8.44c-.58-.42-1.21-.62-1.87-.62-.73,0-1.46,.19-2.2,.56-.74,.37-1.43,.88-2.07,1.53-.93,.96-1.69,2.11-2.27,3.47-.58,1.36-.87,2.75-.87,4.16Z"/><path d="M270.73,149.14l2.83-13.43-3.55-.12,.09-.62,4.61-.93,.41,.31-.84,4.52c.46-.83,.95-1.61,1.48-2.35,.53-.74,1.09-1.33,1.68-1.79,.59-.46,1.19-.69,1.79-.69,.98,0,1.62,.26,1.93,.78-.02,.35-.12,.64-.31,.86-.19,.22-.46,.33-.81,.33-.33,0-.66-.07-.98-.22-.32-.15-.64-.33-.95-.56-.75,.52-1.47,1.25-2.17,2.18-.7,.93-1.38,2-2.04,3.21l-.44,2.06c-.23,1.08-.45,2.15-.65,3.22-.21,1.07-.43,2.15-.65,3.25l-1.21,.19-.22-.19Z"/><path d="M283.25,145.93l2.24-10.56h-3.58l.16-.78,3.71-.25,1.15-4.17h1.06l-.87,4.17h4.21l-.16,1.15-4.3-.12-2.15,10.22c-.08,.33-.16,.66-.22,1-.06,.33-.09,.61-.09,.84,0,.52,.28,.78,.84,.78,.48,0,1.01-.22,1.59-.67,.58-.45,1.19-1.06,1.84-1.85l.47,.37c-.64,.93-1.36,1.75-2.15,2.45-.79,.7-1.66,1.04-2.62,1.04-.39,0-.73-.12-1.01-.37-.28-.25-.42-.59-.42-1.03,0-.33,.02-.65,.06-.95,.04-.3,.12-.72,.25-1.26Z"/><path d="M302.63,149.27c-.04-2.66-.11-4.94-.2-6.84-.09-1.9-.25-3.67-.48-5.31-.08-.73-.22-1.2-.41-1.42-.19-.22-.43-.33-.72-.33-.33,0-.68,.16-1.04,.47s-.82,.95-1.35,1.9l-.53-.31c.54-1.2,1.1-2.07,1.67-2.6,.57-.53,1.18-.79,1.82-.79,.56,0,1,.18,1.31,.55s.53,1,.65,1.92c.19,1.5,.32,3.14,.41,4.94,.08,1.8,.12,3.71,.12,5.75,1.29-1.93,2.51-3.94,3.66-6.03,1.15-2.09,2.23-4.32,3.22-6.71h.75c.04,.93,.09,1.98,.16,3.13,.06,1.15,.12,2.34,.17,3.55s.1,2.37,.14,3.46c.04,1.09,.07,2.04,.09,2.85,.81-.98,1.53-1.89,2.17-2.74s1.23-1.72,1.78-2.62c.55-.89,1.08-1.87,1.6-2.93,.1-.21,.19-.4,.26-.59,.07-.19,.15-.38,.23-.59l-.19-1c-.1-.52-.16-.99-.16-1.4,0-.52,.12-.9,.37-1.15,.25-.25,.53-.37,.84-.37,.33,.02,.56,.11,.69,.28,.1,.19,.16,.5,.16,.93,0,.35-.07,.85-.22,1.5-.15,.64-.53,1.58-1.15,2.8-.77,1.6-1.73,3.21-2.9,4.83-1.16,1.62-2.52,3.27-4.08,4.95l-.5,.06-.16-.12c-.04-1.18-.1-2.47-.17-3.85-.07-1.38-.14-2.73-.2-4.03-.06-1.31-.12-2.45-.19-3.43-.5,1.04-1.11,2.2-1.82,3.47-.72,1.28-1.51,2.59-2.37,3.94-.86,1.35-1.78,2.67-2.76,3.96l-.5,.06-.19-.12Z"/><path d="M321.44,149.33l-.22-.19,3.15-15.61c.21-1,.41-1.99,.59-2.98,.19-.99,.36-1.98,.53-2.97l-3.43-.12,.09-.62,4.8-.9,.31,.28-2.34,11.46c.75-.73,1.52-1.36,2.32-1.9,.8-.54,1.57-.97,2.32-1.28s1.4-.47,1.96-.47c.67,0,1.17,.18,1.51,.55,.34,.36,.51,.87,.51,1.51,0,.5-.06,.99-.17,1.46-.11,.48-.23,1.01-.36,1.59l-1.53,6.45c-.08,.35-.17,.7-.25,1.04-.08,.34-.12,.63-.12,.86,0,.48,.26,.72,.78,.72,.48,0,1.01-.23,1.6-.69,.59-.46,1.2-1.07,1.82-1.84l.47,.37c-.62,.93-1.34,1.75-2.15,2.45-.81,.7-1.68,1.04-2.62,1.04-.42,0-.75-.12-1.01-.36-.26-.24-.39-.55-.39-.92,0-.39,.04-.75,.11-1.06,.07-.31,.17-.74,.3-1.28l1.53-6.42c.1-.52,.21-1.02,.31-1.5,.1-.48,.16-.9,.16-1.28,0-.52-.1-.88-.31-1.09-.21-.21-.52-.31-.93-.31-.71,0-1.54,.25-2.51,.76s-2.15,1.37-3.57,2.57l-.81,3.99c-.21,1.08-.42,2.16-.64,3.24s-.42,2.16-.61,3.24l-1.21,.19Z"/><path d="M342.15,149.55c-.81,0-1.56-.19-2.24-.56-.69-.37-1.24-.97-1.65-1.79-.42-.82-.62-1.9-.62-3.22,0-1.25,.22-2.46,.65-3.63,.44-1.17,1.03-2.24,1.78-3.19,.75-.96,1.6-1.71,2.57-2.27,.97-.56,1.98-.84,3.04-.84,.85,0,1.55,.21,2.09,.64,.54,.43,.81,1.06,.81,1.92,0,1.29-.77,2.58-2.32,3.88s-3.97,2.4-7.27,3.32c.04,1.52,.39,2.63,1.04,3.35,.65,.72,1.52,1.07,2.6,1.07,.93,0,1.76-.24,2.48-.72,.72-.48,1.35-1.08,1.92-1.81l.5,.37c-.67,1.02-1.44,1.85-2.34,2.51-.89,.65-1.9,.98-3.02,.98Zm3.15-14.61c-.69,0-1.39,.22-2.1,.67-.72,.45-1.38,1.05-1.98,1.82-.6,.77-1.11,1.63-1.51,2.59-.41,.96-.64,1.94-.7,2.96,2.78-.79,4.86-1.73,6.23-2.83,1.37-1.1,2.06-2.22,2.06-3.36,0-.6-.18-1.06-.54-1.37s-.85-.47-1.45-.47Z"/><path d="M352.28,149.14l-1.21,.19-.22-.19,2.83-13.43-3.55-.12,.09-.62,4.7-.93,.4,.31-.65,3.33c.75-.73,1.52-1.36,2.32-1.9,.8-.54,1.58-.97,2.34-1.28s1.42-.47,1.98-.47c.67,0,1.16,.18,1.5,.55,.33,.36,.5,.87,.5,1.51,0,.5-.05,.99-.16,1.46-.1,.48-.23,1.01-.37,1.59l-1.53,6.45c-.08,.35-.17,.7-.25,1.04-.08,.34-.12,.63-.12,.86,0,.48,.27,.72,.81,.72,.48,0,1.01-.23,1.6-.69,.59-.46,1.19-1.07,1.79-1.84l.5,.37c-.64,.93-1.37,1.75-2.16,2.45-.8,.7-1.68,1.04-2.63,1.04-.42,0-.75-.12-1.01-.36-.26-.24-.39-.55-.39-.92,0-.39,.04-.75,.11-1.06,.07-.31,.18-.74,.33-1.28l1.5-6.42c.1-.52,.21-1.02,.31-1.5,.1-.48,.16-.9,.16-1.28,0-.52-.1-.88-.31-1.09-.21-.21-.51-.31-.9-.31-.71,0-1.54,.25-2.51,.76s-2.15,1.35-3.57,2.54l-.9,4.02c-.25,1.08-.47,2.15-.67,3.22-.2,1.07-.41,2.15-.64,3.25Z"/><path d="M378.13,149.27c-.04-2.66-.11-4.94-.2-6.84-.09-1.9-.25-3.67-.48-5.31-.08-.73-.22-1.2-.41-1.42-.19-.22-.43-.33-.72-.33-.33,0-.68,.16-1.04,.47s-.82,.95-1.35,1.9l-.53-.31c.54-1.2,1.1-2.07,1.67-2.6,.57-.53,1.18-.79,1.82-.79,.56,0,1,.18,1.31,.55s.53,1,.65,1.92c.19,1.5,.32,3.14,.41,4.94,.08,1.8,.12,3.71,.12,5.75,1.29-1.93,2.51-3.94,3.66-6.03,1.15-2.09,2.23-4.32,3.22-6.71h.75c.04,.93,.09,1.98,.16,3.13,.06,1.15,.12,2.34,.17,3.55s.1,2.37,.14,3.46c.04,1.09,.07,2.04,.09,2.85,.81-.98,1.53-1.89,2.17-2.74s1.23-1.72,1.78-2.62c.55-.89,1.08-1.87,1.6-2.93,.1-.21,.19-.4,.26-.59,.07-.19,.15-.38,.23-.59l-.19-1c-.1-.52-.16-.99-.16-1.4,0-.52,.12-.9,.37-1.15,.25-.25,.53-.37,.84-.37,.33,.02,.56,.11,.69,.28,.1,.19,.16,.5,.16,.93,0,.35-.07,.85-.22,1.5-.15,.64-.53,1.58-1.15,2.8-.77,1.6-1.73,3.21-2.9,4.83-1.16,1.62-2.52,3.27-4.08,4.95l-.5,.06-.16-.12c-.04-1.18-.1-2.47-.17-3.85-.07-1.38-.14-2.73-.2-4.03-.06-1.31-.12-2.45-.19-3.43-.5,1.04-1.11,2.2-1.82,3.47-.72,1.28-1.51,2.59-2.37,3.94-.86,1.35-1.78,2.67-2.76,3.96l-.5,.06-.19-.12Z"/><path d="M401.12,149.55c-.81,0-1.56-.19-2.24-.56-.69-.37-1.24-.97-1.65-1.79-.42-.82-.62-1.9-.62-3.22,0-1.25,.22-2.46,.65-3.63,.44-1.17,1.03-2.24,1.78-3.19,.75-.96,1.6-1.71,2.57-2.27,.97-.56,1.98-.84,3.04-.84,.85,0,1.55,.21,2.09,.64,.54,.43,.81,1.06,.81,1.92,0,1.29-.77,2.58-2.32,3.88s-3.97,2.4-7.27,3.32c.04,1.52,.39,2.63,1.04,3.35,.65,.72,1.52,1.07,2.6,1.07,.93,0,1.76-.24,2.48-.72,.72-.48,1.35-1.08,1.92-1.81l.5,.37c-.67,1.02-1.44,1.85-2.34,2.51-.89,.65-1.9,.98-3.02,.98Zm3.15-14.61c-.69,0-1.39,.22-2.1,.67-.72,.45-1.38,1.05-1.98,1.82-.6,.77-1.11,1.63-1.51,2.59-.41,.96-.64,1.94-.7,2.96,2.78-.79,4.86-1.73,6.23-2.83,1.37-1.1,2.06-2.22,2.06-3.36,0-.6-.18-1.06-.54-1.37s-.85-.47-1.45-.47Z"/><path d="M414.33,126.71c.17,0,.33,.02,.5,.06,.17,.04,.33,.14,.5,.28,.1,.17,.18,.38,.22,.64,.04,.26,.06,.5,.06,.73,0,1.16-.35,2.24-1.06,3.24-.71,1-1.63,1.95-2.77,2.87l-.44-.56c.73-.69,1.32-1.31,1.78-1.87s.85-1.26,1.18-2.09l-.5-.62c-.44-.5-.65-.93-.65-1.31,0-.42,.12-.75,.36-1,.24-.25,.51-.37,.83-.37Z"/><path d="M417.25,149.14l2.83-13.43-3.55-.12,.09-.62,4.61-.93,.41,.31-.84,4.52c.46-.83,.95-1.61,1.48-2.35,.53-.74,1.09-1.33,1.68-1.79,.59-.46,1.19-.69,1.79-.69,.98,0,1.62,.26,1.93,.78-.02,.35-.12,.64-.31,.86-.19,.22-.46,.33-.81,.33-.33,0-.66-.07-.98-.22-.32-.15-.64-.33-.95-.56-.75,.52-1.47,1.25-2.17,2.18-.7,.93-1.38,2-2.04,3.21l-.44,2.06c-.23,1.08-.45,2.15-.65,3.22-.21,1.07-.43,2.15-.65,3.25l-1.21,.19-.22-.19Z"/><path d="M432.02,149.55c-.81,0-1.56-.19-2.24-.56-.69-.37-1.24-.97-1.65-1.79-.42-.82-.62-1.9-.62-3.22,0-1.25,.22-2.46,.65-3.63,.44-1.17,1.03-2.24,1.78-3.19,.75-.96,1.6-1.71,2.57-2.27,.97-.56,1.98-.84,3.04-.84,.85,0,1.55,.21,2.09,.64,.54,.43,.81,1.06,.81,1.92,0,1.29-.77,2.58-2.32,3.88s-3.97,2.4-7.27,3.32c.04,1.52,.39,2.63,1.04,3.35,.65,.72,1.52,1.07,2.6,1.07,.93,0,1.76-.24,2.48-.72,.72-.48,1.35-1.08,1.92-1.81l.5,.37c-.67,1.02-1.44,1.85-2.34,2.51-.89,.65-1.9,.98-3.02,.98Zm3.15-14.61c-.69,0-1.39,.22-2.1,.67-.72,.45-1.38,1.05-1.98,1.82-.6,.77-1.11,1.63-1.51,2.59-.41,.96-.64,1.94-.7,2.96,2.78-.79,4.86-1.73,6.23-2.83,1.37-1.1,2.06-2.22,2.06-3.36,0-.6-.18-1.06-.54-1.37s-.85-.47-1.45-.47Z"/><path d="M449.03,149.14l-1.21,.19-.22-.19,2.83-13.43-3.55-.12,.09-.62,4.7-.93,.4,.31-.65,3.33c.75-.73,1.52-1.36,2.32-1.9,.8-.54,1.58-.97,2.34-1.28s1.42-.47,1.98-.47c.67,0,1.16,.18,1.5,.55,.33,.36,.5,.87,.5,1.51,0,.5-.05,.99-.16,1.46-.1,.48-.23,1.01-.37,1.59l-1.53,6.45c-.08,.35-.17,.7-.25,1.04-.08,.34-.12,.63-.12,.86,0,.48,.27,.72,.81,.72,.48,0,1.01-.23,1.6-.69,.59-.46,1.19-1.07,1.79-1.84l.5,.37c-.64,.93-1.37,1.75-2.16,2.45-.8,.7-1.68,1.04-2.63,1.04-.42,0-.75-.12-1.01-.36-.26-.24-.39-.55-.39-.92,0-.39,.04-.75,.11-1.06,.07-.31,.18-.74,.33-1.28l1.5-6.42c.1-.52,.21-1.02,.31-1.5,.1-.48,.16-.9,.16-1.28,0-.52-.1-.88-.31-1.09-.21-.21-.51-.31-.9-.31-.71,0-1.54,.25-2.51,.76s-2.15,1.35-3.57,2.54l-.9,4.02c-.25,1.08-.47,2.15-.67,3.22-.2,1.07-.41,2.15-.64,3.25Z"/><path d="M468.93,149.55c-.81,0-1.58-.19-2.32-.56-.74-.37-1.34-.97-1.82-1.78-.48-.81-.72-1.85-.72-3.12s.19-2.5,.58-3.71c.38-1.2,.92-2.28,1.62-3.24,.7-.96,1.51-1.71,2.45-2.27,.93-.56,1.94-.84,3.02-.84,1.35,0,2.49,.44,3.43,1.32,.93,.88,1.4,2.28,1.4,4.19,0,1.31-.2,2.56-.59,3.77-.39,1.2-.94,2.27-1.63,3.21-.7,.93-1.51,1.67-2.43,2.21-.92,.54-1.92,.81-2.97,.81Zm.19-.87c.87,0,1.67-.26,2.38-.78,.72-.52,1.34-1.2,1.87-2.06,.53-.85,.94-1.8,1.23-2.83,.29-1.04,.44-2.08,.44-3.12,0-1.76-.32-3.03-.96-3.8-.64-.77-1.48-1.15-2.49-1.15-.87,0-1.67,.25-2.4,.76-.73,.51-1.36,1.19-1.9,2.06s-.96,1.82-1.25,2.88-.44,2.13-.44,3.21c0,1.68,.34,2.91,1.03,3.68,.69,.77,1.52,1.15,2.49,1.15Z"/><path d="M480.39,145.93l2.24-10.56h-3.58l.16-.78,3.71-.25,1.15-4.17h1.06l-.87,4.17h4.21l-.16,1.15-4.3-.12-2.15,10.22c-.08,.33-.16,.66-.22,1-.06,.33-.09,.61-.09,.84,0,.52,.28,.78,.84,.78,.48,0,1.01-.22,1.59-.67,.58-.45,1.19-1.06,1.84-1.85l.47,.37c-.64,.93-1.36,1.75-2.15,2.45-.79,.7-1.66,1.04-2.62,1.04-.39,0-.73-.12-1.01-.37-.28-.25-.42-.59-.42-1.03,0-.33,.02-.65,.06-.95,.04-.3,.12-.72,.25-1.26Z"/><path d="M77.46,186.52l2.83-13.43-3.55-.12,.09-.62,4.61-.93,.4,.31-.84,4.52c.46-.83,.95-1.61,1.48-2.35,.53-.74,1.09-1.33,1.68-1.79,.59-.46,1.19-.69,1.79-.69,.98,0,1.62,.26,1.93,.78-.02,.35-.12,.64-.31,.86-.19,.22-.46,.33-.81,.33-.33,0-.66-.07-.98-.22-.32-.15-.64-.33-.95-.56-.75,.52-1.47,1.25-2.16,2.18-.7,.93-1.38,2-2.04,3.21l-.44,2.06c-.23,1.08-.45,2.15-.65,3.22-.21,1.07-.43,2.15-.65,3.25l-1.21,.19-.22-.19Z"/><path d="M92.23,186.92c-.81,0-1.56-.19-2.24-.56-.69-.37-1.24-.97-1.65-1.79-.42-.82-.62-1.9-.62-3.22,0-1.25,.22-2.46,.65-3.63,.44-1.17,1.03-2.24,1.78-3.19s1.6-1.71,2.57-2.27c.97-.56,1.98-.84,3.04-.84,.85,0,1.55,.21,2.09,.64,.54,.43,.81,1.06,.81,1.92,0,1.29-.77,2.58-2.32,3.88-1.55,1.3-3.97,2.4-7.27,3.32,.04,1.52,.39,2.63,1.04,3.35,.65,.72,1.52,1.07,2.6,1.07,.93,0,1.76-.24,2.48-.72,.72-.48,1.35-1.08,1.92-1.81l.5,.37c-.66,1.02-1.44,1.85-2.34,2.51-.89,.65-1.9,.98-3.02,.98Zm3.15-14.61c-.69,0-1.39,.22-2.1,.67-.72,.45-1.38,1.05-1.98,1.82-.6,.77-1.11,1.63-1.51,2.59-.4,.96-.64,1.94-.7,2.96,2.78-.79,4.86-1.73,6.23-2.83,1.37-1.1,2.06-2.22,2.06-3.36,0-.6-.18-1.06-.54-1.37-.36-.31-.85-.47-1.45-.47Z"/><path d="M109.76,186.92c-.4,0-.74-.13-1.03-.39-.29-.26-.44-.65-.44-1.17,0-.39,.03-.75,.08-1.07,.05-.32,.13-.72,.23-1.2l.03-.16c-.89,1.14-1.82,2.09-2.77,2.85-.96,.76-1.92,1.14-2.9,1.14-.77,0-1.47-.29-2.1-.87-.63-.58-.95-1.58-.95-2.99,0-1.06,.19-2.13,.56-3.22,.37-1.09,.88-2.14,1.51-3.15,.63-1.01,1.35-1.9,2.17-2.69,.81-.79,1.66-1.42,2.55-1.88,.89-.47,1.78-.7,2.65-.7,.73,0,1.35,.28,1.87,.84l.9-.97,.37,.25-2.49,11.43c-.08,.33-.16,.67-.22,1.01-.06,.34-.09,.65-.09,.92,0,.25,.08,.43,.25,.53,.17,.1,.36,.16,.59,.16,.5,0,1.05-.24,1.65-.72,.6-.48,1.18-1.09,1.74-1.84l.53,.4c-.62,.93-1.33,1.75-2.13,2.45-.8,.7-1.66,1.04-2.57,1.04Zm-8.35-4.52c0,1.14,.21,1.96,.62,2.45,.42,.49,.94,.73,1.59,.73,.81,0,1.62-.33,2.45-.98,.82-.65,1.76-1.6,2.82-2.85l1.81-8.44c-.58-.42-1.2-.62-1.87-.62-.73,0-1.46,.19-2.2,.56-.74,.37-1.43,.88-2.07,1.53-.93,.96-1.69,2.11-2.27,3.47-.58,1.36-.87,2.75-.87,4.16Z"/><path d="M126.55,182.97c-.06,.33-.12,.66-.17,1-.05,.33-.08,.61-.08,.84,0,.52,.28,.78,.84,.78,.48,0,1.02-.23,1.62-.69,.6-.46,1.2-1.07,1.81-1.84l.47,.37c-.62,.91-1.33,1.72-2.13,2.43-.8,.71-1.67,1.06-2.6,1.06-.42,0-.76-.12-1.04-.37-.28-.25-.42-.61-.42-1.09,0-.29,.02-.59,.06-.89,.04-.3,.11-.72,.22-1.26l.19-.9c-.66,.85-1.38,1.62-2.13,2.31-.76,.69-1.52,1.23-2.27,1.62-.76,.39-1.48,.59-2.17,.59-.79,0-1.45-.29-1.99-.86s-.81-1.55-.81-2.94c0-1.06,.19-2.14,.56-3.26,.37-1.11,.88-2.17,1.53-3.18,.64-1.01,1.38-1.9,2.2-2.69,.82-.79,1.69-1.42,2.6-1.88,.91-.47,1.82-.7,2.71-.7,.73,0,1.35,.22,1.87,.65l1.4-7.07-3.52-.16,.12-.62,4.7-.9,.34,.28-3.89,19.38Zm-9.16-.47c0,1.08,.19,1.86,.56,2.35,.37,.49,.87,.73,1.5,.73,.89,0,1.82-.36,2.77-1.09,.96-.73,2.06-1.8,3.3-3.21l1.56-7.82c-.33-.29-.68-.49-1.03-.61s-.7-.17-1.03-.17c-.91,0-1.8,.25-2.66,.75-.86,.5-1.64,1.15-2.32,1.96-.79,.96-1.43,2.06-1.92,3.3-.49,1.25-.73,2.51-.73,3.8Z"/><path d="M127.92,192.66c.06-.33,.21-.58,.44-.73s.5-.23,.81-.23c.29,0,.57,.06,.84,.19,.27,.12,.57,.31,.9,.56l.4,.31c.96-.54,1.87-1.25,2.74-2.12,.95-.96,1.87-2.06,2.74-3.3-.08-1.62-.18-3.07-.3-4.35-.11-1.28-.24-2.49-.37-3.64-.14-1.15-.3-2.35-.48-3.6-.12-.85-.24-1.49-.34-1.92-.1-.43-.22-.71-.36-.86-.14-.15-.32-.22-.54-.22-.29,0-.62,.15-.98,.44-.36,.29-.83,.93-1.39,1.93l-.53-.31c.56-1.25,1.14-2.12,1.73-2.63,.59-.51,1.19-.76,1.79-.76s1.02,.22,1.32,.65c.3,.44,.52,1.33,.67,2.68,.21,1.74,.38,3.5,.51,5.26,.13,1.77,.24,3.63,.33,5.61,1.2-2.1,2.24-4.05,3.11-5.87,.87-1.82,1.5-3.37,1.87-4.66,.33-1.06,.6-1.85,.81-2.38,.21-.53,.39-.89,.56-1.07s.35-.28,.56-.28c.52,0,.78,.24,.78,.72,0,.23-.03,.46-.09,.7-.06,.24-.2,.57-.4,.98-.27,.6-.56,1.2-.86,1.81-.3,.6-.69,1.36-1.17,2.27-.62,1.2-1.19,2.29-1.71,3.25-.52,.97-1.02,1.87-1.5,2.71-.48,.84-.99,1.69-1.53,2.54-.58,.89-1.16,1.72-1.73,2.49-.57,.77-1.22,1.55-1.95,2.34-.79,.83-1.6,1.53-2.45,2.09-.84,.56-1.59,.84-2.26,.84-.54,0-.99-.13-1.34-.39-.35-.26-.57-.61-.65-1.04Z"/><path d="M147.7,186.74c-.4,0-.71-.12-.93-.36-.23-.24-.34-.52-.34-.86,0-.42,.15-.76,.45-1.04,.3-.28,.66-.42,1.07-.42,.37,0,.67,.12,.89,.36,.22,.24,.33,.52,.33,.86,0,.44-.14,.79-.42,1.06s-.63,.41-1.04,.41Z"/><path d="M183.59,166.4l.16-.87h7.04l-.16,.87-2.93,.28-8.88,20.15h-.84l-2.27-18.22-8.57,18.22h-.84l-1.59-20.18-2.71-.25,.16-.87h7.51l-.16,.87-3.15,.28,1.12,17.35,8.1-17.35-2.99-.28,.16-.87h7.54l-.16,.87-3.11,.28,2.02,17.51,7.51-17.51-2.96-.28Z"/><path d="M192.18,186.92c-.81,0-1.56-.19-2.24-.56-.69-.37-1.24-.97-1.65-1.79-.42-.82-.62-1.9-.62-3.22,0-1.25,.22-2.46,.65-3.63,.44-1.17,1.03-2.24,1.78-3.19s1.6-1.71,2.57-2.27c.97-.56,1.98-.84,3.04-.84,.85,0,1.55,.21,2.09,.64,.54,.43,.81,1.06,.81,1.92,0,1.29-.77,2.58-2.32,3.88-1.55,1.3-3.97,2.4-7.27,3.32,.04,1.52,.39,2.63,1.04,3.35,.65,.72,1.52,1.07,2.6,1.07,.93,0,1.76-.24,2.48-.72,.72-.48,1.35-1.08,1.92-1.81l.5,.37c-.66,1.02-1.44,1.85-2.34,2.51-.89,.65-1.9,.98-3.02,.98Zm3.15-14.61c-.69,0-1.39,.22-2.1,.67-.72,.45-1.38,1.05-1.98,1.82-.6,.77-1.11,1.63-1.51,2.59-.4,.96-.64,1.94-.7,2.96,2.78-.79,4.86-1.73,6.23-2.83,1.37-1.1,2.06-2.22,2.06-3.36,0-.6-.18-1.06-.54-1.37-.36-.31-.85-.47-1.45-.47Z"/><path d="M205.39,164.09c.17,0,.33,.02,.5,.06,.17,.04,.33,.14,.5,.28,.1,.17,.18,.38,.22,.64,.04,.26,.06,.5,.06,.73,0,1.16-.35,2.24-1.06,3.24-.71,1-1.63,1.95-2.77,2.87l-.44-.56c.73-.69,1.32-1.31,1.78-1.87,.46-.56,.85-1.26,1.18-2.09l-.5-.62c-.44-.5-.65-.93-.65-1.31,0-.42,.12-.75,.36-1,.24-.25,.51-.37,.83-.37Z"/><path d="M208.32,186.52l2.83-13.43-3.55-.12,.09-.62,4.61-.93,.4,.31-.84,4.52c.46-.83,.95-1.61,1.48-2.35,.53-.74,1.09-1.33,1.68-1.79,.59-.46,1.19-.69,1.79-.69,.98,0,1.62,.26,1.93,.78-.02,.35-.12,.64-.31,.86-.19,.22-.46,.33-.81,.33-.33,0-.66-.07-.98-.22-.32-.15-.64-.33-.95-.56-.75,.52-1.47,1.25-2.16,2.18-.7,.93-1.38,2-2.04,3.21l-.44,2.06c-.23,1.08-.45,2.15-.65,3.22-.21,1.07-.43,2.15-.65,3.25l-1.21,.19-.22-.19Z"/><path d="M223.08,186.92c-.81,0-1.56-.19-2.24-.56-.69-.37-1.24-.97-1.65-1.79-.42-.82-.62-1.9-.62-3.22,0-1.25,.22-2.46,.65-3.63,.44-1.17,1.03-2.24,1.78-3.19,.75-.96,1.6-1.71,2.57-2.27,.97-.56,1.98-.84,3.04-.84,.85,0,1.55,.21,2.09,.64,.54,.43,.81,1.06,.81,1.92,0,1.29-.77,2.58-2.32,3.88s-3.97,2.4-7.27,3.32c.04,1.52,.39,2.63,1.04,3.35,.65,.72,1.52,1.07,2.6,1.07,.93,0,1.76-.24,2.48-.72,.72-.48,1.35-1.08,1.92-1.81l.5,.37c-.67,1.02-1.44,1.85-2.34,2.51-.89,.65-1.9,.98-3.02,.98Zm3.15-14.61c-.69,0-1.39,.22-2.1,.67-.72,.45-1.38,1.05-1.98,1.82-.6,.77-1.11,1.63-1.51,2.59-.41,.96-.64,1.94-.7,2.96,2.78-.79,4.86-1.73,6.23-2.83,1.37-1.1,2.06-2.22,2.06-3.36,0-.6-.18-1.06-.54-1.37s-.85-.47-1.45-.47Z"/><path d="M240.09,186.52l-1.21,.19-.22-.19,2.83-13.43-3.55-.12,.09-.62,4.7-.93,.4,.31-.65,3.33c.75-.73,1.52-1.36,2.32-1.9,.8-.54,1.58-.97,2.34-1.28s1.42-.47,1.98-.47c.67,0,1.16,.18,1.5,.55,.33,.36,.5,.87,.5,1.51,0,.5-.05,.99-.16,1.46-.1,.48-.23,1.01-.37,1.59l-1.53,6.45c-.08,.35-.17,.7-.25,1.04-.08,.34-.12,.63-.12,.86,0,.48,.27,.72,.81,.72,.48,0,1.01-.23,1.6-.69,.59-.46,1.19-1.07,1.79-1.84l.5,.37c-.64,.93-1.37,1.75-2.16,2.45-.8,.7-1.68,1.04-2.63,1.04-.42,0-.75-.12-1.01-.36-.26-.24-.39-.55-.39-.92,0-.39,.04-.75,.11-1.06,.07-.31,.18-.74,.33-1.28l1.5-6.42c.1-.52,.21-1.02,.31-1.5,.1-.48,.16-.9,.16-1.28,0-.52-.1-.88-.31-1.09-.21-.21-.51-.31-.9-.31-.71,0-1.54,.25-2.51,.76s-2.15,1.35-3.57,2.54l-.9,4.02c-.25,1.08-.47,2.15-.67,3.22-.2,1.07-.41,2.15-.64,3.25Z"/><path d="M260,186.92c-.81,0-1.58-.19-2.32-.56-.74-.37-1.34-.97-1.82-1.78-.48-.81-.72-1.85-.72-3.12s.19-2.5,.58-3.71c.38-1.2,.92-2.28,1.62-3.24,.7-.96,1.51-1.71,2.45-2.27,.93-.56,1.94-.84,3.02-.84,1.35,0,2.49,.44,3.43,1.32,.93,.88,1.4,2.28,1.4,4.19,0,1.31-.2,2.56-.59,3.77-.39,1.2-.94,2.27-1.63,3.21-.7,.93-1.51,1.67-2.43,2.21-.92,.54-1.92,.81-2.97,.81Zm.19-.87c.87,0,1.67-.26,2.38-.78,.72-.52,1.34-1.2,1.87-2.06,.53-.85,.94-1.8,1.23-2.83,.29-1.04,.44-2.08,.44-3.12,0-1.76-.32-3.03-.96-3.8-.64-.77-1.48-1.15-2.49-1.15-.87,0-1.67,.25-2.4,.76-.73,.51-1.36,1.19-1.9,2.06s-.96,1.82-1.25,2.88-.44,2.13-.44,3.21c0,1.68,.34,2.91,1.03,3.68,.69,.77,1.52,1.15,2.49,1.15Z"/><path d="M271.46,183.31l2.24-10.56h-3.58l.16-.78,3.71-.25,1.15-4.17h1.06l-.87,4.17h4.21l-.16,1.15-4.3-.12-2.15,10.22c-.08,.33-.16,.66-.22,1-.06,.33-.09,.61-.09,.84,0,.52,.28,.78,.84,.78,.48,0,1.01-.22,1.59-.67,.58-.45,1.19-1.06,1.84-1.85l.47,.37c-.64,.93-1.36,1.75-2.15,2.45-.79,.7-1.66,1.04-2.62,1.04-.39,0-.73-.12-1.01-.37-.28-.25-.42-.59-.42-1.03,0-.33,.02-.65,.06-.95,.04-.3,.12-.72,.25-1.26Z"/><path d="M295.04,182.72c0,1.31-.46,2.34-1.39,3.08s-2.09,1.12-3.5,1.12c-1.14,0-2.02-.23-2.63-.7-.61-.47-1.03-1.18-1.26-2.13,.04-.21,.14-.38,.3-.51,.16-.14,.33-.2,.51-.2,.5,0,.84,.28,1.03,.84l.5,1.65c.42,.12,.87,.19,1.37,.19,1.16,0,2.08-.28,2.74-.84,.67-.56,1-1.28,1-2.15,0-.6-.17-1.16-.5-1.68-.33-.52-.96-1.09-1.87-1.71-.85-.6-1.53-1.21-2.02-1.84-.5-.62-.75-1.38-.75-2.27,0-1.23,.43-2.22,1.28-2.99,.85-.77,1.96-1.15,3.33-1.15,.93,0,1.72,.21,2.35,.64,.63,.43,1.05,1.02,1.26,1.79-.1,.44-.38,.65-.84,.65-.5,0-.86-.31-1.09-.93l-.47-1.12c-.35-.1-.7-.16-1.03-.16-1.16,0-2.02,.28-2.58,.84s-.84,1.25-.84,2.06,.18,1.37,.54,1.81,.97,.98,1.82,1.62c1.02,.75,1.73,1.42,2.13,2.02,.4,.6,.61,1.3,.61,2.09Z"/><path d="M301.27,186.92c-.58,0-1.06-.17-1.43-.51-.37-.34-.56-.9-.56-1.67,0-.6,.07-1.27,.22-1.99,.15-.73,.29-1.4,.44-2.02l1.68-7.66-3.33-.09,.12-.65,4.52-.9,.41,.31-1.93,8.54c-.15,.64-.29,1.35-.42,2.13-.13,.78-.2,1.38-.2,1.79,0,.91,.44,1.37,1.31,1.37,.66,0,1.46-.22,2.38-.67,.92-.45,2.08-1.26,3.47-2.45l.93-4.49c.23-1,.44-2,.64-3.01s.39-2.01,.58-3.01l1.18-.53,.31,.25-2.4,11.31c-.06,.33-.13,.67-.2,1.01-.07,.34-.11,.63-.11,.86,0,.5,.28,.75,.84,.75,.48,0,1.01-.22,1.59-.67,.58-.45,1.19-1.06,1.84-1.85l.5,.37c-.68,.93-1.41,1.75-2.18,2.45-.77,.7-1.61,1.04-2.52,1.04-.42,0-.77-.13-1.08-.39s-.45-.63-.45-1.11c0-.29,.03-.58,.08-.87,.05-.29,.14-.7,.26-1.21-1.27,1.2-2.42,2.1-3.46,2.69s-2.04,.89-3.02,.89Z"/><path d="M311.7,194.09l.16-.78,2.77-.28,4.24-19.94-3.55-.12,.09-.62,4.77-.93,.41,.31-.87,3.96c.66-.85,1.39-1.59,2.17-2.23,.78-.63,1.56-1.13,2.34-1.5s1.49-.55,2.13-.55c.81,0,1.48,.28,2.01,.84,.53,.56,.79,1.54,.79,2.93,0,1.08-.18,2.18-.54,3.29-.36,1.11-.86,2.17-1.48,3.18-.62,1.01-1.34,1.91-2.15,2.71-.81,.8-1.67,1.43-2.59,1.88s-1.83,.69-2.74,.69c-.39,0-.77-.05-1.14-.16s-.72-.28-1.07-.53c-.33,1.54-.6,2.83-.81,3.88-.21,1.05-.39,2.01-.56,2.88l3.12,.31-.16,.78h-7.32Zm13.99-21.37c-.89,0-1.86,.36-2.9,1.09-1.04,.73-2.14,1.71-3.3,2.96l-1.71,8.01c.42,.31,.83,.53,1.25,.65s.84,.19,1.28,.19c.93,0,1.83-.26,2.69-.79,.86-.53,1.61-1.23,2.26-2.1,.77-.98,1.37-2.07,1.79-3.27,.42-1.2,.64-2.41,.64-3.61,0-1.08-.18-1.87-.53-2.37-.35-.5-.84-.75-1.46-.75Z"/><path d="M327.77,194.09l.16-.78,2.77-.28,4.24-19.94-3.55-.12,.09-.62,4.77-.93,.41,.31-.87,3.96c.66-.85,1.39-1.59,2.17-2.23,.78-.63,1.56-1.13,2.34-1.5s1.49-.55,2.13-.55c.81,0,1.48,.28,2.01,.84,.53,.56,.79,1.54,.79,2.93,0,1.08-.18,2.18-.54,3.29-.36,1.11-.86,2.17-1.48,3.18-.62,1.01-1.34,1.91-2.15,2.71-.81,.8-1.67,1.43-2.59,1.88s-1.83,.69-2.74,.69c-.39,0-.77-.05-1.14-.16s-.72-.28-1.07-.53c-.33,1.54-.6,2.83-.81,3.88-.21,1.05-.39,2.01-.56,2.88l3.12,.31-.16,.78h-7.32Zm13.99-21.37c-.89,0-1.86,.36-2.9,1.09-1.04,.73-2.14,1.71-3.3,2.96l-1.71,8.01c.42,.31,.83,.53,1.25,.65s.84,.19,1.28,.19c.93,0,1.83-.26,2.69-.79,.86-.53,1.61-1.23,2.26-2.1,.77-.98,1.37-2.07,1.79-3.27,.42-1.2,.64-2.41,.64-3.61,0-1.08-.18-1.87-.53-2.37-.35-.5-.84-.75-1.46-.75Z"/><path d="M352.29,186.92c-.81,0-1.58-.19-2.32-.56-.74-.37-1.34-.97-1.82-1.78-.48-.81-.72-1.85-.72-3.12s.19-2.5,.58-3.71c.38-1.2,.92-2.28,1.62-3.24,.7-.96,1.51-1.71,2.45-2.27,.93-.56,1.94-.84,3.02-.84,1.35,0,2.49,.44,3.43,1.32,.93,.88,1.4,2.28,1.4,4.19,0,1.31-.2,2.56-.59,3.77-.39,1.2-.94,2.27-1.63,3.21-.7,.93-1.51,1.67-2.43,2.21-.92,.54-1.92,.81-2.97,.81Zm.19-.87c.87,0,1.67-.26,2.38-.78,.72-.52,1.34-1.2,1.87-2.06,.53-.85,.94-1.8,1.23-2.83,.29-1.04,.44-2.08,.44-3.12,0-1.76-.32-3.03-.96-3.8-.64-.77-1.48-1.15-2.49-1.15-.87,0-1.67,.25-2.4,.76-.73,.51-1.36,1.19-1.9,2.06s-.96,1.82-1.25,2.88-.44,2.13-.44,3.21c0,1.68,.34,2.91,1.03,3.68,.69,.77,1.52,1.15,2.49,1.15Z"/><path d="M370.42,182.72c0,1.31-.46,2.34-1.39,3.08s-2.09,1.12-3.5,1.12c-1.14,0-2.02-.23-2.63-.7-.61-.47-1.03-1.18-1.26-2.13,.04-.21,.14-.38,.3-.51,.16-.14,.33-.2,.51-.2,.5,0,.84,.28,1.03,.84l.5,1.65c.42,.12,.87,.19,1.37,.19,1.16,0,2.08-.28,2.74-.84,.67-.56,1-1.28,1-2.15,0-.6-.17-1.16-.5-1.68-.33-.52-.96-1.09-1.87-1.71-.85-.6-1.53-1.21-2.02-1.84-.5-.62-.75-1.38-.75-2.27,0-1.23,.43-2.22,1.28-2.99,.85-.77,1.96-1.15,3.33-1.15,.93,0,1.72,.21,2.35,.64,.63,.43,1.05,1.02,1.26,1.79-.1,.44-.38,.65-.84,.65-.5,0-.86-.31-1.09-.93l-.47-1.12c-.35-.1-.7-.16-1.03-.16-1.16,0-2.02,.28-2.58,.84s-.84,1.25-.84,2.06,.18,1.37,.54,1.81,.97,.98,1.82,1.62c1.02,.75,1.73,1.42,2.13,2.02,.4,.6,.61,1.3,.61,2.09Z"/><path d="M378.11,186.92c-.81,0-1.56-.19-2.24-.56-.69-.37-1.24-.97-1.65-1.79-.42-.82-.62-1.9-.62-3.22,0-1.25,.22-2.46,.65-3.63,.44-1.17,1.03-2.24,1.78-3.19,.75-.96,1.6-1.71,2.57-2.27,.97-.56,1.98-.84,3.04-.84,.85,0,1.55,.21,2.09,.64,.54,.43,.81,1.06,.81,1.92,0,1.29-.77,2.58-2.32,3.88s-3.97,2.4-7.27,3.32c.04,1.52,.39,2.63,1.04,3.35,.65,.72,1.52,1.07,2.6,1.07,.93,0,1.76-.24,2.48-.72,.72-.48,1.35-1.08,1.92-1.81l.5,.37c-.67,1.02-1.44,1.85-2.34,2.51-.89,.65-1.9,.98-3.02,.98Zm3.15-14.61c-.69,0-1.39,.22-2.1,.67-.72,.45-1.38,1.05-1.98,1.82-.6,.77-1.11,1.63-1.51,2.59-.41,.96-.64,1.94-.7,2.96,2.78-.79,4.86-1.73,6.23-2.83,1.37-1.1,2.06-2.22,2.06-3.36,0-.6-.18-1.06-.54-1.37s-.85-.47-1.45-.47Z"/><path d="M396.49,182.97c-.06,.33-.12,.66-.17,1-.05,.33-.08,.61-.08,.84,0,.52,.28,.78,.84,.78,.48,0,1.02-.23,1.62-.69,.6-.46,1.2-1.07,1.81-1.84l.47,.37c-.62,.91-1.33,1.72-2.13,2.43-.8,.71-1.67,1.06-2.6,1.06-.42,0-.76-.12-1.04-.37-.28-.25-.42-.61-.42-1.09,0-.29,.02-.59,.06-.89,.04-.3,.11-.72,.22-1.26l.19-.9c-.67,.85-1.38,1.62-2.13,2.31s-1.52,1.23-2.27,1.62c-.76,.39-1.48,.59-2.17,.59-.79,0-1.45-.29-1.99-.86-.54-.57-.81-1.55-.81-2.94,0-1.06,.19-2.14,.56-3.26,.37-1.11,.88-2.17,1.53-3.18,.64-1.01,1.38-1.9,2.2-2.69,.82-.79,1.69-1.42,2.6-1.88,.91-.47,1.82-.7,2.71-.7,.73,0,1.35,.22,1.87,.65l1.4-7.07-3.52-.16,.12-.62,4.7-.9,.34,.28-3.89,19.38Zm-9.16-.47c0,1.08,.19,1.86,.56,2.35,.37,.49,.87,.73,1.5,.73,.89,0,1.82-.36,2.77-1.09,.96-.73,2.06-1.8,3.3-3.21l1.56-7.82c-.33-.29-.67-.49-1.03-.61-.35-.11-.7-.17-1.03-.17-.91,0-1.8,.25-2.66,.75-.86,.5-1.64,1.15-2.32,1.96-.79,.96-1.43,2.06-1.92,3.3-.49,1.25-.73,2.51-.73,3.8Z"/><path d="M410.82,183.31l2.24-10.56h-3.58l.16-.78,3.71-.25,1.15-4.17h1.06l-.87,4.17h4.21l-.16,1.15-4.3-.12-2.15,10.22c-.08,.33-.16,.66-.22,1-.06,.33-.09,.61-.09,.84,0,.52,.28,.78,.84,.78,.48,0,1.01-.22,1.59-.67,.58-.45,1.19-1.06,1.84-1.85l.47,.37c-.64,.93-1.36,1.75-2.15,2.45-.79,.7-1.66,1.04-2.62,1.04-.39,0-.73-.12-1.01-.37-.28-.25-.42-.59-.42-1.03,0-.33,.02-.65,.06-.95,.04-.3,.12-.72,.25-1.26Z"/><path d="M424.24,186.92c-.81,0-1.58-.19-2.32-.56-.74-.37-1.34-.97-1.82-1.78-.48-.81-.72-1.85-.72-3.12s.19-2.5,.58-3.71c.38-1.2,.92-2.28,1.62-3.24,.7-.96,1.51-1.71,2.45-2.27,.93-.56,1.94-.84,3.02-.84,1.35,0,2.49,.44,3.43,1.32,.93,.88,1.4,2.28,1.4,4.19,0,1.31-.2,2.56-.59,3.77-.39,1.2-.94,2.27-1.63,3.21-.7,.93-1.51,1.67-2.43,2.21-.92,.54-1.92,.81-2.97,.81Zm.19-.87c.87,0,1.67-.26,2.38-.78,.72-.52,1.34-1.2,1.87-2.06,.53-.85,.94-1.8,1.23-2.83,.29-1.04,.44-2.08,.44-3.12,0-1.76-.32-3.03-.96-3.8-.64-.77-1.48-1.15-2.49-1.15-.87,0-1.67,.25-2.4,.76-.73,.51-1.36,1.19-1.9,2.06s-.96,1.82-1.25,2.88-.44,2.13-.44,3.21c0,1.68,.34,2.91,1.03,3.68,.69,.77,1.52,1.15,2.49,1.15Z"/><path d="M459.75,186.92c-.42,0-.76-.12-1.03-.36-.27-.24-.41-.55-.41-.92,0-.39,.04-.75,.12-1.06,.08-.31,.19-.74,.31-1.28l1.5-6.42c.12-.52,.24-1.02,.34-1.5,.1-.48,.16-.9,.16-1.28,0-.52-.1-.88-.3-1.09s-.5-.31-.92-.31c-.71,0-1.49,.24-2.34,.73-.85,.49-1.97,1.32-3.36,2.51-.02,.08-.04,.16-.05,.23-.01,.07-.03,.14-.05,.2l-.78,3.64c-.23,1.08-.45,2.15-.67,3.22-.22,1.07-.43,2.15-.64,3.25l-1.21,.19-.22-.19,2.15-10.12c.08-.42,.17-.82,.25-1.21,.08-.39,.12-.76,.12-1.09,0-.5-.1-.85-.31-1.06-.21-.21-.51-.31-.9-.31-.71,0-1.52,.25-2.44,.76-.92,.51-2.08,1.35-3.47,2.54l-.9,4.02c-.25,1.08-.47,2.15-.67,3.22-.2,1.07-.41,2.15-.64,3.25l-1.21,.19-.22-.19,2.83-13.43-3.55-.12,.09-.62,4.7-.93,.4,.31-.65,3.33c1.1-1.08,2.24-1.96,3.43-2.63s2.2-1.01,3.05-1.01c.66,0,1.16,.18,1.5,.55s.5,.86,.5,1.48c0,.21-.02,.45-.06,.72-.04,.27-.09,.55-.16,.84,1.08-1.08,2.17-1.95,3.29-2.6,1.11-.65,2.09-.98,2.94-.98,.67,0,1.16,.18,1.5,.55s.5,.87,.5,1.51c0,.5-.06,.99-.17,1.46-.11,.48-.23,1.01-.36,1.59l-1.56,6.45c-.08,.35-.16,.7-.23,1.04-.07,.34-.11,.63-.11,.86,0,.48,.26,.72,.78,.72,.48,0,1.01-.22,1.59-.67,.58-.45,1.19-1.06,1.84-1.85l.47,.37c-.64,.93-1.36,1.75-2.15,2.45-.79,.7-1.66,1.04-2.62,1.04Z"/><path d="M475.89,186.92c-.39,0-.74-.13-1.03-.39s-.44-.65-.44-1.17c0-.39,.03-.75,.08-1.07,.05-.32,.13-.72,.23-1.2l.03-.16c-.89,1.14-1.82,2.09-2.77,2.85-.96,.76-1.92,1.14-2.9,1.14-.77,0-1.47-.29-2.1-.87s-.95-1.58-.95-2.99c0-1.06,.19-2.13,.56-3.22,.37-1.09,.88-2.14,1.51-3.15,.63-1.01,1.35-1.9,2.16-2.69,.81-.79,1.66-1.42,2.55-1.88,.89-.47,1.78-.7,2.65-.7,.73,0,1.35,.28,1.87,.84l.9-.97,.37,.25-2.49,11.43c-.08,.33-.16,.67-.22,1.01s-.09,.65-.09,.92c0,.25,.08,.43,.25,.53,.17,.1,.36,.16,.59,.16,.5,0,1.05-.24,1.65-.72,.6-.48,1.18-1.09,1.74-1.84l.53,.4c-.62,.93-1.33,1.75-2.13,2.45-.8,.7-1.66,1.04-2.57,1.04Zm-8.35-4.52c0,1.14,.21,1.96,.62,2.45,.42,.49,.95,.73,1.59,.73,.81,0,1.62-.33,2.45-.98,.82-.65,1.76-1.6,2.82-2.85l1.81-8.44c-.58-.42-1.21-.62-1.87-.62-.73,0-1.46,.19-2.2,.56-.74,.37-1.43,.88-2.07,1.53-.93,.96-1.69,2.11-2.27,3.47-.58,1.36-.87,2.75-.87,4.16Z"/><path d="M482.15,186.52l3.18-15.61c.21-1,.41-1.99,.59-2.98,.19-.99,.35-1.98,.5-2.97l-3.43-.12,.09-.62,4.8-.9,.25,.28-2.9,14.42,8.91-6.51c.23,.02,.41,.11,.54,.26s.2,.33,.2,.51-.06,.35-.19,.5c-.12,.15-.36,.32-.72,.53l-8.41,5.08,.62,.12c.89,.21,1.59,.56,2.09,1.06,.5,.5,.98,1.2,1.43,2.12l1.28,2.65c.29,.56,.61,.93,.95,1.12,.34,.19,.76,.3,1.26,.34l1.62,.06-.09,.62c-.39,.12-.75,.21-1.07,.25-.32,.04-.63,.06-.92,.06-.71,0-1.3-.15-1.79-.45-.49-.3-.91-.86-1.26-1.67l-1.31-2.87c-.42-.89-.8-1.53-1.17-1.92s-.91-.68-1.63-.89l-.53-.12-.22,1.15c-.21,1.08-.42,2.16-.62,3.24-.21,1.08-.42,2.16-.62,3.24l-1.21,.19-.22-.19Z"/><path d="M500.52,186.92c-.81,0-1.56-.19-2.24-.56-.69-.37-1.24-.97-1.65-1.79-.42-.82-.62-1.9-.62-3.22,0-1.25,.22-2.46,.65-3.63,.44-1.17,1.03-2.24,1.78-3.19,.75-.96,1.6-1.71,2.57-2.27,.97-.56,1.98-.84,3.04-.84,.85,0,1.55,.21,2.09,.64,.54,.43,.81,1.06,.81,1.92,0,1.29-.77,2.58-2.32,3.88s-3.97,2.4-7.27,3.32c.04,1.52,.39,2.63,1.04,3.35,.65,.72,1.52,1.07,2.6,1.07,.93,0,1.76-.24,2.48-.72,.72-.48,1.35-1.08,1.92-1.81l.5,.37c-.67,1.02-1.44,1.85-2.34,2.51-.89,.65-1.9,.98-3.02,.98Zm3.15-14.61c-.69,0-1.39,.22-2.1,.67-.72,.45-1.38,1.05-1.98,1.82-.6,.77-1.11,1.63-1.51,2.59-.41,.96-.64,1.94-.7,2.96,2.78-.79,4.86-1.73,6.23-2.83,1.37-1.1,2.06-2.22,2.06-3.36,0-.6-.18-1.06-.54-1.37s-.85-.47-1.45-.47Z"/><path d="M86.31,224.3c-.4,0-.74-.13-1.03-.39-.29-.26-.44-.65-.44-1.17,0-.39,.03-.75,.08-1.07,.05-.32,.13-.72,.23-1.2l.03-.16c-.89,1.14-1.82,2.09-2.77,2.85-.96,.76-1.92,1.14-2.9,1.14-.77,0-1.47-.29-2.1-.87-.63-.58-.95-1.58-.95-2.99,0-1.06,.19-2.13,.56-3.22,.37-1.09,.88-2.14,1.51-3.15,.63-1.01,1.35-1.91,2.17-2.69s1.66-1.42,2.55-1.88c.89-.47,1.78-.7,2.65-.7,.73,0,1.35,.28,1.87,.84l.9-.97,.37,.25-2.49,11.43c-.08,.33-.16,.67-.22,1.01-.06,.34-.09,.65-.09,.92,0,.25,.08,.43,.25,.53,.17,.1,.36,.16,.59,.16,.5,0,1.05-.24,1.65-.72,.6-.48,1.18-1.09,1.74-1.84l.53,.4c-.62,.93-1.33,1.75-2.13,2.45-.8,.7-1.66,1.04-2.57,1.04Zm-8.35-4.52c0,1.14,.21,1.96,.62,2.45,.42,.49,.94,.73,1.59,.73,.81,0,1.62-.33,2.45-.98,.82-.65,1.76-1.6,2.82-2.85l1.81-8.44c-.58-.42-1.2-.62-1.87-.62-.73,0-1.46,.19-2.2,.56-.74,.37-1.43,.88-2.07,1.53-.93,.96-1.69,2.11-2.27,3.47-.58,1.36-.87,2.75-.87,4.16Z"/><path d="M93.41,223.9l2.83-13.42-3.55-.12,.09-.62,4.61-.93,.4,.31-.84,4.52c.46-.83,.95-1.61,1.48-2.35,.53-.74,1.09-1.33,1.68-1.79,.59-.46,1.19-.69,1.79-.69,.98,0,1.62,.26,1.93,.78-.02,.35-.12,.64-.31,.86s-.46,.33-.81,.33c-.33,0-.66-.07-.98-.22-.32-.15-.64-.33-.95-.56-.75,.52-1.47,1.25-2.16,2.18-.7,.93-1.38,2-2.04,3.21l-.44,2.06c-.23,1.08-.45,2.15-.65,3.22-.21,1.07-.43,2.15-.65,3.25l-1.21,.19-.22-.19Z"/><path d="M105.93,220.69l2.24-10.56h-3.58l.16-.78,3.71-.25,1.15-4.17h1.06l-.87,4.17h4.21l-.16,1.15-4.3-.12-2.15,10.22c-.08,.33-.16,.67-.22,1s-.09,.61-.09,.84c0,.52,.28,.78,.84,.78,.48,0,1.01-.22,1.59-.67,.58-.45,1.19-1.06,1.84-1.85l.47,.37c-.64,.93-1.36,1.75-2.15,2.45-.79,.7-1.66,1.04-2.62,1.04-.4,0-.73-.12-1.01-.37-.28-.25-.42-.59-.42-1.03,0-.33,.02-.65,.06-.95,.04-.3,.12-.72,.25-1.26Z"/><path d="M125.31,224.02c-.04-2.66-.11-4.94-.2-6.84-.09-1.9-.25-3.67-.48-5.31-.08-.73-.22-1.2-.4-1.42-.19-.22-.43-.33-.72-.33-.33,0-.68,.16-1.04,.47s-.81,.95-1.35,1.9l-.53-.31c.54-1.2,1.09-2.07,1.67-2.6,.57-.53,1.18-.79,1.82-.79,.56,0,1,.18,1.31,.55s.53,1,.65,1.92c.19,1.5,.32,3.14,.4,4.94,.08,1.8,.12,3.71,.12,5.75,1.29-1.93,2.51-3.94,3.66-6.03,1.15-2.09,2.23-4.32,3.22-6.71h.75c.04,.93,.09,1.98,.16,3.13,.06,1.15,.12,2.34,.17,3.55s.1,2.37,.14,3.46c.04,1.09,.07,2.04,.09,2.85,.81-.98,1.53-1.89,2.16-2.74s1.23-1.72,1.78-2.62c.55-.89,1.08-1.87,1.6-2.93,.1-.21,.19-.4,.26-.59,.07-.19,.15-.38,.23-.59l-.19-1c-.1-.52-.16-.99-.16-1.4,0-.52,.12-.9,.37-1.15,.25-.25,.53-.37,.84-.37,.33,.02,.56,.12,.69,.28,.1,.19,.16,.5,.16,.93,0,.35-.07,.85-.22,1.5-.15,.64-.53,1.58-1.15,2.8-.77,1.6-1.73,3.21-2.9,4.83-1.16,1.62-2.52,3.27-4.08,4.95l-.5,.06-.16-.12c-.04-1.18-.1-2.47-.17-3.85s-.14-2.73-.2-4.03c-.06-1.31-.12-2.45-.19-3.43-.5,1.04-1.11,2.2-1.82,3.47s-1.51,2.59-2.37,3.94-1.78,2.67-2.76,3.96l-.5,.06-.19-.12Z"/><path d="M144.96,222.9c0-.33,.03-.65,.09-.95,.06-.3,.15-.72,.25-1.26l2.18-10.22-3.55-.12,.09-.62,4.73-.93,.4,.31-2.4,11.25c-.08,.33-.16,.67-.22,1.01-.06,.34-.09,.63-.09,.86,0,.5,.27,.75,.81,.75,.48,0,1-.22,1.57-.67,.57-.45,1.18-1.06,1.82-1.85l.47,.37c-.66,.93-1.38,1.75-2.13,2.45-.76,.7-1.62,1.04-2.57,1.04-.4,0-.74-.12-1.03-.37s-.44-.59-.44-1.03Zm4.36-19.22c-.33,0-.62-.11-.87-.33-.25-.22-.37-.52-.37-.92,0-.42,.15-.76,.44-1.03,.29-.27,.6-.4,.93-.4,.35,0,.64,.11,.87,.33,.23,.22,.34,.52,.34,.92s-.14,.73-.42,1.01-.59,.42-.92,.42Z"/><path d="M154.27,220.69l2.24-10.56h-3.58l.16-.78,3.71-.25,1.15-4.17h1.06l-.87,4.17h4.21l-.16,1.15-4.3-.12-2.15,10.22c-.08,.33-.16,.67-.22,1s-.09,.61-.09,.84c0,.52,.28,.78,.84,.78,.48,0,1.01-.22,1.59-.67,.58-.45,1.19-1.06,1.84-1.85l.47,.37c-.64,.93-1.36,1.75-2.15,2.45-.79,.7-1.66,1.04-2.62,1.04-.4,0-.73-.12-1.01-.37-.28-.25-.42-.59-.42-1.03,0-.33,.02-.65,.06-.95,.04-.3,.12-.72,.25-1.26Z"/><path d="M163.06,224.09l-.22-.19,3.15-15.61c.21-1,.4-1.99,.59-2.97,.19-.99,.36-1.98,.53-2.98l-3.43-.12,.09-.62,4.8-.9,.31,.28-2.34,11.46c.75-.73,1.52-1.36,2.32-1.9s1.57-.97,2.32-1.28,1.4-.47,1.96-.47c.66,0,1.17,.18,1.51,.55s.51,.87,.51,1.51c0,.5-.06,.99-.17,1.46-.11,.48-.23,1.01-.36,1.59l-1.53,6.45c-.08,.35-.17,.7-.25,1.04-.08,.34-.12,.63-.12,.86,0,.48,.26,.72,.78,.72,.48,0,1.01-.23,1.6-.68s1.2-1.07,1.82-1.84l.47,.37c-.62,.93-1.34,1.75-2.15,2.45-.81,.7-1.68,1.04-2.62,1.04-.42,0-.75-.12-1.01-.36-.26-.24-.39-.54-.39-.92,0-.39,.04-.75,.11-1.06,.07-.31,.17-.74,.3-1.28l1.53-6.42c.1-.52,.21-1.02,.31-1.5,.1-.48,.16-.9,.16-1.28,0-.52-.1-.88-.31-1.09-.21-.21-.52-.31-.93-.31-.71,0-1.54,.25-2.51,.76-.97,.51-2.15,1.37-3.57,2.57l-.81,3.99c-.21,1.08-.42,2.16-.64,3.24-.22,1.08-.42,2.16-.61,3.24l-1.21,.19Z"/><path d="M196.07,200.38c.85,0,1.56,.21,2.13,.64,.57,.43,.91,.88,1.01,1.35-.02,.23-.11,.41-.28,.54-.17,.14-.35,.2-.56,.2-.27,0-.5-.07-.7-.22-.2-.15-.46-.42-.79-.81l-.97-1.03c-.77,.15-1.47,.47-2.1,.98-.63,.51-1.18,1.28-1.64,2.31-.46,1.03-.83,2.4-1.12,4.13-.02,.1-.04,.21-.05,.31-.01,.1-.03,.21-.05,.31h4.36l-.19,1.15-4.36-.09c-.33,2.06-.66,4.14-.98,6.25-.32,2.11-.67,4.2-1.04,6.28-.33,1.76-.69,3.25-1.06,4.44-.37,1.19-.99,2.21-1.84,3.04-.6,.6-1.16,1.02-1.68,1.26s-1.08,.36-1.68,.36-1.15-.17-1.64-.5c-.49-.33-.8-.73-.95-1.18,.02-.27,.12-.48,.3-.62,.18-.15,.38-.22,.61-.22,.29,0,.55,.08,.78,.23,.23,.16,.46,.35,.69,.58l.9,.87c.42-.1,.79-.29,1.12-.54,.33-.26,.66-.61,1-1.04,.54-.69,.97-1.53,1.28-2.52,.31-1,.61-2.38,.9-4.14,.35-2.12,.7-4.21,1.03-6.26,.33-2.06,.64-4.15,.93-6.29h-3.55l.16-.78,3.55-.25c.02-.1,.04-.21,.05-.31,.01-.1,.03-.21,.05-.31,.31-2.1,.81-3.73,1.51-4.91,.7-1.17,1.48-2,2.35-2.48,.87-.48,1.71-.72,2.52-.72Z"/><path d="M200.06,224.3c-.81,0-1.58-.19-2.32-.56-.74-.37-1.35-.97-1.82-1.78-.48-.81-.72-1.85-.72-3.12s.19-2.5,.58-3.71c.38-1.2,.92-2.28,1.62-3.24,.7-.96,1.51-1.71,2.45-2.27,.93-.56,1.94-.84,3.02-.84,1.35,0,2.49,.44,3.43,1.32s1.4,2.28,1.4,4.19c0,1.31-.2,2.57-.59,3.77s-.94,2.27-1.64,3.21-1.51,1.67-2.43,2.21c-.92,.54-1.92,.81-2.97,.81Zm.19-.87c.87,0,1.67-.26,2.38-.78,.72-.52,1.34-1.2,1.87-2.06,.53-.85,.94-1.8,1.23-2.83,.29-1.04,.44-2.08,.44-3.12,0-1.76-.32-3.03-.97-3.8-.64-.77-1.47-1.15-2.49-1.15-.87,0-1.67,.25-2.4,.76s-1.36,1.19-1.9,2.06c-.54,.86-.96,1.82-1.25,2.88-.29,1.06-.44,2.13-.44,3.21,0,1.68,.34,2.91,1.03,3.68,.69,.77,1.52,1.15,2.49,1.15Z"/><path d="M211.71,224.3c-.42,0-.77-.14-1.06-.41-.29-.27-.44-.65-.44-1.15,0-.29,.03-.58,.08-.87s.12-.69,.2-1.18l2.49-12.4c.21-1,.41-1.99,.59-2.97,.19-.99,.35-1.98,.5-2.98l-3.4-.12,.09-.62,4.77-.9,.34,.28-3.92,19.38c-.08,.33-.15,.67-.2,1-.05,.33-.08,.6-.08,.81,0,.54,.29,.81,.87,.81,.44,0,.94-.23,1.53-.68,.58-.46,1.19-1.07,1.84-1.84l.47,.37c-.64,.93-1.34,1.75-2.1,2.45-.76,.7-1.62,1.04-2.57,1.04Z"/><path d="M217.85,223.9l3.18-15.61c.21-1,.41-1.99,.59-2.97,.19-.99,.35-1.98,.5-2.98l-3.43-.12,.09-.62,4.8-.9,.25,.28-2.9,14.42,8.91-6.51c.23,.02,.41,.11,.54,.26,.13,.16,.2,.33,.2,.51s-.06,.35-.19,.5c-.12,.15-.36,.32-.72,.53l-8.41,5.08,.62,.12c.89,.21,1.59,.56,2.09,1.06,.5,.5,.98,1.21,1.43,2.12l1.28,2.65c.29,.56,.61,.93,.95,1.12,.34,.19,.76,.3,1.26,.34l1.62,.06-.09,.62c-.39,.12-.75,.21-1.07,.25-.32,.04-.63,.06-.92,.06-.71,0-1.3-.15-1.79-.45-.49-.3-.91-.86-1.26-1.67l-1.31-2.87c-.42-.89-.8-1.53-1.17-1.92-.36-.38-.91-.68-1.63-.89l-.53-.12-.22,1.15c-.21,1.08-.42,2.16-.62,3.24-.21,1.08-.42,2.16-.62,3.24l-1.21,.19-.22-.19Z"/><path d="M239.96,220.1c0,1.31-.46,2.34-1.39,3.08-.92,.75-2.09,1.12-3.5,1.12-1.14,0-2.02-.23-2.63-.7-.61-.47-1.03-1.18-1.26-2.13,.04-.21,.14-.38,.3-.51,.16-.13,.33-.2,.51-.2,.5,0,.84,.28,1.03,.84l.5,1.65c.42,.12,.87,.19,1.37,.19,1.16,0,2.08-.28,2.74-.84,.67-.56,1-1.28,1-2.15,0-.6-.17-1.16-.5-1.68-.33-.52-.96-1.09-1.87-1.71-.85-.6-1.53-1.21-2.02-1.84-.5-.62-.75-1.38-.75-2.27,0-1.23,.43-2.22,1.28-2.99s1.96-1.15,3.33-1.15c.93,0,1.72,.21,2.35,.64,.63,.43,1.05,1.02,1.26,1.79-.1,.44-.38,.65-.84,.65-.5,0-.86-.31-1.09-.93l-.47-1.12c-.35-.1-.7-.16-1.03-.16-1.16,0-2.02,.28-2.58,.84s-.84,1.25-.84,2.06,.18,1.37,.54,1.81c.36,.44,.97,.98,1.82,1.62,1.02,.75,1.73,1.42,2.13,2.02,.4,.6,.61,1.3,.61,2.09Z"/><path d="M253.89,224.02c-.04-2.66-.11-4.94-.2-6.84-.09-1.9-.25-3.67-.48-5.31-.08-.73-.22-1.2-.41-1.42-.19-.22-.43-.33-.72-.33-.33,0-.68,.16-1.04,.47s-.82,.95-1.35,1.9l-.53-.31c.54-1.2,1.1-2.07,1.67-2.6,.57-.53,1.18-.79,1.82-.79,.56,0,1,.18,1.31,.55s.53,1,.65,1.92c.19,1.5,.32,3.14,.41,4.94s.12,3.71,.12,5.75c1.29-1.93,2.51-3.94,3.66-6.03,1.15-2.09,2.23-4.32,3.22-6.71h.75c.04,.93,.09,1.98,.16,3.13,.06,1.15,.12,2.34,.17,3.55s.1,2.37,.14,3.46c.04,1.09,.07,2.04,.09,2.85,.81-.98,1.53-1.89,2.17-2.74s1.23-1.72,1.78-2.62,1.08-1.87,1.6-2.93c.1-.21,.19-.4,.26-.59,.07-.19,.15-.38,.23-.59l-.19-1c-.1-.52-.16-.99-.16-1.4,0-.52,.12-.9,.37-1.15s.53-.37,.84-.37c.33,.02,.56,.12,.69,.28,.1,.19,.16,.5,.16,.93,0,.35-.07,.85-.22,1.5-.15,.64-.53,1.58-1.15,2.8-.77,1.6-1.73,3.21-2.9,4.83-1.16,1.62-2.52,3.27-4.08,4.95l-.5,.06-.16-.12c-.04-1.18-.1-2.47-.17-3.85-.07-1.38-.14-2.73-.2-4.03s-.12-2.45-.19-3.43c-.5,1.04-1.11,2.2-1.82,3.47-.72,1.28-1.51,2.59-2.37,3.94s-1.78,2.67-2.76,3.96l-.5,.06-.19-.12Z"/><path d="M272.7,224.09l-.22-.19,3.15-15.61c.21-1,.41-1.99,.59-2.97,.19-.99,.36-1.98,.53-2.98l-3.43-.12,.09-.62,4.8-.9,.31,.28-2.34,11.46c.75-.73,1.52-1.36,2.32-1.9,.8-.54,1.57-.97,2.32-1.28s1.4-.47,1.96-.47c.67,0,1.17,.18,1.51,.55,.34,.36,.51,.87,.51,1.51,0,.5-.06,.99-.17,1.46s-.23,1.01-.36,1.59l-1.53,6.45c-.08,.35-.17,.7-.25,1.04-.08,.34-.12,.63-.12,.86,0,.48,.26,.72,.78,.72,.48,0,1.01-.23,1.6-.68s1.2-1.07,1.82-1.84l.47,.37c-.62,.93-1.34,1.75-2.15,2.45-.81,.7-1.68,1.04-2.62,1.04-.42,0-.75-.12-1.01-.36s-.39-.54-.39-.92c0-.39,.04-.75,.11-1.06,.07-.31,.17-.74,.3-1.28l1.53-6.42c.1-.52,.21-1.02,.31-1.5,.1-.48,.16-.9,.16-1.28,0-.52-.1-.88-.31-1.09-.21-.21-.52-.31-.93-.31-.71,0-1.54,.25-2.51,.76s-2.15,1.37-3.57,2.57l-.81,3.99c-.21,1.08-.42,2.16-.64,3.24-.22,1.08-.42,2.16-.61,3.24l-1.21,.19Z"/><path d="M293.7,224.3c-.81,0-1.58-.19-2.32-.56s-1.34-.97-1.82-1.78c-.48-.81-.72-1.85-.72-3.12s.19-2.5,.58-3.71c.38-1.2,.92-2.28,1.62-3.24,.7-.96,1.51-1.71,2.45-2.27,.93-.56,1.94-.84,3.02-.84,1.35,0,2.49,.44,3.43,1.32s1.4,2.28,1.4,4.19c0,1.31-.2,2.57-.59,3.77s-.94,2.27-1.63,3.21c-.7,.93-1.51,1.67-2.43,2.21-.92,.54-1.92,.81-2.97,.81Zm.19-.87c.87,0,1.67-.26,2.38-.78,.72-.52,1.34-1.2,1.87-2.06,.53-.85,.94-1.8,1.23-2.83,.29-1.04,.44-2.08,.44-3.12,0-1.76-.32-3.03-.96-3.8-.64-.77-1.48-1.15-2.49-1.15-.87,0-1.67,.25-2.4,.76-.73,.51-1.36,1.19-1.9,2.06-.54,.86-.96,1.82-1.25,2.88-.29,1.06-.44,2.13-.44,3.21,0,1.68,.34,2.91,1.03,3.68s1.52,1.15,2.49,1.15Z"/><path d="M320.27,224.3c-.39,0-.74-.13-1.03-.39-.29-.26-.44-.65-.44-1.17,0-.39,.03-.75,.08-1.07s.13-.72,.23-1.2l.03-.16c-.89,1.14-1.82,2.09-2.77,2.85-.96,.76-1.92,1.14-2.9,1.14-.77,0-1.47-.29-2.1-.87s-.95-1.58-.95-2.99c0-1.06,.19-2.13,.56-3.22,.37-1.09,.88-2.14,1.51-3.15,.63-1.01,1.35-1.91,2.16-2.69,.81-.79,1.66-1.42,2.55-1.88,.89-.47,1.78-.7,2.65-.7,.73,0,1.35,.28,1.87,.84l.9-.97,.37,.25-2.49,11.43c-.08,.33-.16,.67-.22,1.01s-.09,.65-.09,.92c0,.25,.08,.43,.25,.53,.17,.1,.36,.16,.59,.16,.5,0,1.05-.24,1.65-.72,.6-.48,1.18-1.09,1.74-1.84l.53,.4c-.62,.93-1.33,1.75-2.13,2.45-.8,.7-1.66,1.04-2.57,1.04Zm-8.35-4.52c0,1.14,.21,1.96,.62,2.45,.42,.49,.95,.73,1.59,.73,.81,0,1.62-.33,2.45-.98,.82-.65,1.76-1.6,2.82-2.85l1.81-8.44c-.58-.42-1.21-.62-1.87-.62-.73,0-1.46,.19-2.2,.56-.74,.37-1.43,.88-2.07,1.53-.93,.96-1.69,2.11-2.27,3.47-.58,1.36-.87,2.75-.87,4.16Z"/><path d="M327.37,223.9l2.83-13.42-3.55-.12,.09-.62,4.61-.93,.41,.31-.84,4.52c.46-.83,.95-1.61,1.48-2.35,.53-.74,1.09-1.33,1.68-1.79,.59-.46,1.19-.69,1.79-.69,.98,0,1.62,.26,1.93,.78-.02,.35-.12,.64-.31,.86-.19,.22-.46,.33-.81,.33-.33,0-.66-.07-.98-.22-.32-.15-.64-.33-.95-.56-.75,.52-1.47,1.25-2.17,2.18-.7,.93-1.38,2-2.04,3.21l-.44,2.06c-.23,1.08-.45,2.15-.65,3.22-.21,1.07-.43,2.15-.65,3.25l-1.21,.19-.22-.19Z"/><path d="M342.13,224.3c-.81,0-1.56-.19-2.24-.56s-1.24-.97-1.65-1.79c-.42-.82-.62-1.9-.62-3.22,0-1.25,.22-2.46,.65-3.63,.44-1.17,1.03-2.24,1.78-3.19,.75-.96,1.6-1.71,2.57-2.27,.97-.56,1.98-.84,3.04-.84,.85,0,1.55,.21,2.09,.64,.54,.43,.81,1.06,.81,1.92,0,1.29-.77,2.58-2.32,3.88s-3.97,2.4-7.27,3.32c.04,1.52,.39,2.63,1.04,3.35,.65,.72,1.52,1.07,2.6,1.07,.93,0,1.76-.24,2.48-.72,.72-.48,1.35-1.08,1.92-1.81l.5,.37c-.67,1.02-1.44,1.85-2.34,2.51-.89,.65-1.9,.98-3.02,.98Zm3.15-14.61c-.69,0-1.39,.22-2.1,.67-.72,.45-1.38,1.05-1.98,1.82-.6,.77-1.11,1.63-1.51,2.59-.41,.96-.64,1.94-.7,2.96,2.78-.79,4.86-1.73,6.23-2.83,1.37-1.1,2.06-2.22,2.06-3.36,0-.6-.18-1.06-.54-1.37s-.85-.47-1.45-.47Z"/><path d="M367.39,220.35c-.06,.33-.12,.67-.17,1-.05,.33-.08,.61-.08,.84,0,.52,.28,.78,.84,.78,.48,0,1.02-.23,1.62-.68,.6-.46,1.2-1.07,1.81-1.84l.47,.37c-.62,.91-1.33,1.72-2.13,2.43-.8,.71-1.67,1.06-2.6,1.06-.42,0-.76-.12-1.04-.37s-.42-.61-.42-1.09c0-.29,.02-.59,.06-.89,.04-.3,.11-.72,.22-1.26l.19-.9c-.67,.85-1.38,1.62-2.13,2.3-.76,.69-1.52,1.23-2.27,1.62-.76,.39-1.48,.59-2.17,.59-.79,0-1.45-.29-1.99-.86-.54-.57-.81-1.55-.81-2.94,0-1.06,.19-2.14,.56-3.26,.37-1.11,.88-2.17,1.53-3.18,.64-1.01,1.38-1.91,2.2-2.69s1.69-1.42,2.6-1.88c.91-.47,1.82-.7,2.71-.7,.73,0,1.35,.22,1.87,.65l1.4-7.07-3.52-.16,.12-.62,4.7-.9,.34,.28-3.89,19.38Zm-9.16-.47c0,1.08,.19,1.86,.56,2.35,.37,.49,.87,.73,1.5,.73,.89,0,1.82-.36,2.77-1.09,.96-.73,2.06-1.8,3.3-3.21l1.56-7.82c-.33-.29-.67-.49-1.03-.61-.35-.11-.7-.17-1.03-.17-.91,0-1.8,.25-2.66,.75-.86,.5-1.64,1.15-2.32,1.96-.79,.96-1.43,2.06-1.92,3.3-.49,1.25-.73,2.51-.73,3.8Z"/><path d="M377.86,224.3c-.81,0-1.56-.19-2.24-.56s-1.24-.97-1.65-1.79c-.42-.82-.62-1.9-.62-3.22,0-1.25,.22-2.46,.65-3.63,.44-1.17,1.03-2.24,1.78-3.19,.75-.96,1.6-1.71,2.57-2.27,.97-.56,1.98-.84,3.04-.84,.85,0,1.55,.21,2.09,.64,.54,.43,.81,1.06,.81,1.92,0,1.29-.77,2.58-2.32,3.88s-3.97,2.4-7.27,3.32c.04,1.52,.39,2.63,1.04,3.35,.65,.72,1.52,1.07,2.6,1.07,.93,0,1.76-.24,2.48-.72,.72-.48,1.35-1.08,1.92-1.81l.5,.37c-.67,1.02-1.44,1.85-2.34,2.51-.89,.65-1.9,.98-3.02,.98Zm3.15-14.61c-.69,0-1.39,.22-2.1,.67-.72,.45-1.38,1.05-1.98,1.82-.6,.77-1.11,1.63-1.51,2.59-.41,.96-.64,1.94-.7,2.96,2.78-.79,4.86-1.73,6.23-2.83,1.37-1.1,2.06-2.22,2.06-3.36,0-.6-.18-1.06-.54-1.37s-.85-.47-1.45-.47Z"/><path d="M390.29,224.3c-.81,0-1.56-.19-2.24-.56s-1.24-.97-1.65-1.79c-.42-.82-.62-1.9-.62-3.22,0-1.25,.22-2.46,.65-3.63,.44-1.17,1.03-2.24,1.78-3.19,.75-.96,1.6-1.71,2.57-2.27,.97-.56,1.98-.84,3.04-.84,.85,0,1.55,.21,2.09,.64,.54,.43,.81,1.06,.81,1.92,0,1.29-.77,2.58-2.32,3.88s-3.97,2.4-7.27,3.32c.04,1.52,.39,2.63,1.04,3.35,.65,.72,1.52,1.07,2.6,1.07,.93,0,1.76-.24,2.48-.72,.72-.48,1.35-1.08,1.92-1.81l.5,.37c-.67,1.02-1.44,1.85-2.34,2.51-.89,.65-1.9,.98-3.02,.98Zm3.15-14.61c-.69,0-1.39,.22-2.1,.67-.72,.45-1.38,1.05-1.98,1.82-.6,.77-1.11,1.63-1.51,2.59-.41,.96-.64,1.94-.7,2.96,2.78-.79,4.86-1.73,6.23-2.83,1.37-1.1,2.06-2.22,2.06-3.36,0-.6-.18-1.06-.54-1.37s-.85-.47-1.45-.47Z"/><path d="M394.65,231.47l.16-.78,2.77-.28,4.24-19.94-3.55-.12,.09-.62,4.77-.93,.41,.31-.87,3.96c.66-.85,1.39-1.59,2.17-2.23,.78-.63,1.56-1.13,2.34-1.5s1.49-.55,2.13-.55c.81,0,1.48,.28,2.01,.84,.53,.56,.79,1.54,.79,2.93,0,1.08-.18,2.18-.54,3.29-.36,1.11-.86,2.17-1.48,3.18-.62,1.01-1.34,1.91-2.15,2.71-.81,.8-1.67,1.43-2.59,1.88-.91,.46-1.83,.69-2.74,.69-.39,0-.77-.05-1.14-.16-.36-.1-.72-.28-1.07-.53-.33,1.54-.6,2.83-.81,3.88s-.39,2.01-.56,2.88l3.12,.31-.16,.78h-7.32Zm13.99-21.37c-.89,0-1.86,.36-2.9,1.09-1.04,.73-2.14,1.71-3.3,2.96l-1.71,8c.42,.31,.83,.53,1.25,.65,.42,.12,.84,.19,1.28,.19,.93,0,1.83-.26,2.69-.79,.86-.53,1.61-1.23,2.26-2.1,.77-.98,1.37-2.07,1.79-3.27,.42-1.2,.64-2.41,.64-3.61,0-1.08-.18-1.87-.53-2.37-.35-.5-.84-.75-1.46-.75Z"/><path d="M422.25,222.9c0-.33,.03-.65,.09-.95s.14-.72,.25-1.26l2.18-10.22-3.55-.12,.09-.62,4.74-.93,.4,.31-2.4,11.25c-.08,.33-.16,.67-.22,1.01s-.09,.63-.09,.86c0,.5,.27,.75,.81,.75,.48,0,1-.22,1.57-.67s1.18-1.06,1.82-1.85l.47,.37c-.67,.93-1.38,1.75-2.13,2.45-.76,.7-1.62,1.04-2.57,1.04-.39,0-.74-.12-1.03-.37-.29-.25-.44-.59-.44-1.03Zm4.36-19.22c-.33,0-.62-.11-.87-.33-.25-.22-.37-.52-.37-.92,0-.42,.14-.76,.44-1.03,.29-.27,.6-.4,.93-.4,.35,0,.64,.11,.87,.33,.23,.22,.34,.52,.34,.92s-.14,.73-.42,1.01-.59,.42-.92,.42Z"/><path d="M432.37,223.9l-1.21,.19-.22-.19,2.83-13.42-3.55-.12,.09-.62,4.7-.93,.4,.31-.65,3.33c.75-.73,1.52-1.36,2.32-1.9,.8-.54,1.58-.97,2.34-1.28s1.42-.47,1.98-.47c.67,0,1.16,.18,1.5,.55,.33,.36,.5,.87,.5,1.51,0,.5-.05,.99-.16,1.46-.1,.48-.23,1.01-.37,1.59l-1.53,6.45c-.08,.35-.17,.7-.25,1.04-.08,.34-.12,.63-.12,.86,0,.48,.27,.72,.81,.72,.48,0,1.01-.23,1.6-.68s1.19-1.07,1.79-1.84l.5,.37c-.64,.93-1.37,1.75-2.16,2.45-.8,.7-1.68,1.04-2.63,1.04-.42,0-.75-.12-1.01-.36-.26-.24-.39-.54-.39-.92,0-.39,.04-.75,.11-1.06,.07-.31,.18-.74,.33-1.28l1.5-6.42c.1-.52,.21-1.02,.31-1.5,.1-.48,.16-.9,.16-1.28,0-.52-.1-.88-.31-1.09-.21-.21-.51-.31-.9-.31-.71,0-1.54,.25-2.51,.76s-2.15,1.35-3.57,2.54l-.9,4.02c-.25,1.08-.47,2.15-.67,3.22-.2,1.07-.41,2.15-.64,3.25Z"/><path d="M78.08,258.07l2.24-10.56h-3.58l.16-.78,3.71-.25,1.15-4.17h1.06l-.87,4.17h4.21l-.16,1.15-4.3-.12-2.15,10.22c-.08,.33-.16,.66-.22,1-.06,.33-.09,.61-.09,.84,0,.52,.28,.78,.84,.78,.48,0,1.01-.22,1.59-.67,.58-.45,1.19-1.06,1.84-1.85l.47,.37c-.64,.93-1.36,1.75-2.15,2.45s-1.66,1.04-2.62,1.04c-.4,0-.73-.12-1.01-.37-.28-.25-.42-.59-.42-1.03,0-.33,.02-.65,.06-.95,.04-.3,.12-.72,.25-1.26Z"/><path d="M87.4,261.28l2.83-13.43-3.55-.12,.09-.62,4.61-.93,.4,.31-.84,4.52c.46-.83,.95-1.61,1.48-2.35,.53-.74,1.09-1.33,1.68-1.79s1.19-.69,1.79-.69c.98,0,1.62,.26,1.93,.78-.02,.35-.12,.64-.31,.86-.19,.22-.46,.33-.81,.33-.33,0-.66-.07-.98-.22-.32-.14-.64-.33-.95-.56-.75,.52-1.47,1.25-2.16,2.18-.7,.93-1.38,2-2.04,3.21l-.44,2.06c-.23,1.08-.45,2.16-.65,3.22-.21,1.07-.43,2.15-.65,3.25l-1.21,.19-.22-.19Z"/><path d="M106.68,261.68c-.4,0-.74-.13-1.03-.39-.29-.26-.44-.65-.44-1.17,0-.39,.03-.75,.08-1.08,.05-.32,.13-.72,.23-1.2l.03-.16c-.89,1.14-1.82,2.09-2.77,2.85-.96,.76-1.92,1.14-2.9,1.14-.77,0-1.47-.29-2.1-.87-.63-.58-.95-1.58-.95-2.99,0-1.06,.19-2.13,.56-3.22,.37-1.09,.88-2.14,1.51-3.15,.63-1.01,1.35-1.9,2.17-2.69,.81-.79,1.66-1.42,2.55-1.88,.89-.47,1.78-.7,2.65-.7,.73,0,1.35,.28,1.87,.84l.9-.97,.37,.25-2.49,11.43c-.08,.33-.16,.67-.22,1.01-.06,.34-.09,.65-.09,.92,0,.25,.08,.43,.25,.53,.17,.1,.36,.16,.59,.16,.5,0,1.05-.24,1.65-.72,.6-.48,1.18-1.09,1.74-1.84l.53,.41c-.62,.93-1.33,1.75-2.13,2.45-.8,.7-1.66,1.04-2.57,1.04Zm-8.35-4.52c0,1.14,.21,1.96,.62,2.45,.42,.49,.94,.73,1.59,.73,.81,0,1.62-.33,2.45-.98s1.76-1.6,2.82-2.85l1.81-8.44c-.58-.42-1.2-.62-1.87-.62-.73,0-1.46,.19-2.2,.56s-1.43,.88-2.07,1.53c-.93,.96-1.69,2.11-2.27,3.47-.58,1.36-.87,2.75-.87,4.16Z"/><path d="M116.15,261.68c-.58,0-1.06-.17-1.43-.51-.37-.34-.56-.9-.56-1.67,0-.6,.07-1.27,.22-1.99,.15-.73,.29-1.4,.44-2.02l1.68-7.66-3.33-.09,.12-.65,4.52-.9,.4,.31-1.93,8.54c-.15,.64-.29,1.35-.42,2.13-.14,.78-.2,1.38-.2,1.79,0,.91,.44,1.37,1.31,1.37,.66,0,1.46-.22,2.38-.67,.92-.45,2.08-1.26,3.47-2.45l.93-4.49c.23-1,.44-2,.64-3.01,.2-1.01,.39-2.01,.58-3.01l1.18-.53,.31,.25-2.4,11.31c-.06,.33-.13,.67-.2,1.01-.07,.34-.11,.63-.11,.86,0,.5,.28,.75,.84,.75,.48,0,1.01-.22,1.59-.67,.58-.45,1.19-1.06,1.84-1.85l.5,.37c-.69,.93-1.41,1.75-2.18,2.45-.77,.7-1.61,1.04-2.52,1.04-.42,0-.77-.13-1.07-.39-.3-.26-.45-.63-.45-1.11,0-.29,.03-.58,.08-.87,.05-.29,.14-.7,.27-1.21-1.27,1.21-2.42,2.1-3.46,2.7-1.04,.59-2.05,.89-3.02,.89Z"/><path d="M148.6,261.68c-.42,0-.76-.12-1.03-.36-.27-.24-.4-.54-.4-.92,0-.39,.04-.75,.12-1.06s.19-.74,.31-1.28l1.5-6.42c.12-.52,.24-1.02,.34-1.5,.1-.48,.16-.9,.16-1.28,0-.52-.1-.88-.3-1.09-.2-.21-.5-.31-.92-.31-.71,0-1.48,.24-2.34,.73-.85,.49-1.97,1.32-3.36,2.51-.02,.08-.04,.16-.05,.23-.01,.07-.03,.14-.05,.2l-.78,3.64c-.23,1.08-.45,2.16-.67,3.22-.22,1.07-.43,2.15-.64,3.25l-1.21,.19-.22-.19,2.15-10.12c.08-.42,.17-.82,.25-1.21,.08-.39,.12-.76,.12-1.09,0-.5-.1-.85-.31-1.06-.21-.21-.51-.31-.9-.31-.71,0-1.52,.25-2.45,.76-.92,.51-2.08,1.36-3.47,2.54l-.9,4.02c-.25,1.08-.47,2.16-.67,3.22-.2,1.07-.41,2.15-.64,3.25l-1.21,.19-.22-.19,2.83-13.43-3.55-.12,.09-.62,4.7-.93,.41,.31-.65,3.33c1.1-1.08,2.24-1.96,3.43-2.63s2.2-1.01,3.05-1.01c.66,0,1.16,.18,1.5,.54,.33,.36,.5,.86,.5,1.48,0,.21-.02,.45-.06,.72-.04,.27-.09,.55-.16,.84,1.08-1.08,2.18-1.95,3.29-2.6,1.11-.65,2.09-.98,2.94-.98,.66,0,1.16,.18,1.5,.54,.33,.36,.5,.87,.5,1.51,0,.5-.06,.99-.17,1.46-.11,.48-.23,1.01-.36,1.59l-1.56,6.45c-.08,.35-.16,.7-.23,1.04s-.11,.63-.11,.86c0,.48,.26,.72,.78,.72,.48,0,1.01-.22,1.59-.67,.58-.45,1.19-1.06,1.84-1.85l.47,.37c-.64,.93-1.36,1.75-2.15,2.45-.79,.7-1.66,1.04-2.62,1.04Z"/><path d="M164.74,261.68c-.4,0-.74-.13-1.03-.39-.29-.26-.44-.65-.44-1.17,0-.39,.03-.75,.08-1.08,.05-.32,.13-.72,.23-1.2l.03-.16c-.89,1.14-1.82,2.09-2.77,2.85-.96,.76-1.92,1.14-2.9,1.14-.77,0-1.47-.29-2.1-.87-.63-.58-.95-1.58-.95-2.99,0-1.06,.19-2.13,.56-3.22,.37-1.09,.88-2.14,1.51-3.15,.63-1.01,1.35-1.9,2.17-2.69,.81-.79,1.66-1.42,2.55-1.88,.89-.47,1.78-.7,2.65-.7,.73,0,1.35,.28,1.87,.84l.9-.97,.37,.25-2.49,11.43c-.08,.33-.16,.67-.22,1.01-.06,.34-.09,.65-.09,.92,0,.25,.08,.43,.25,.53,.17,.1,.36,.16,.59,.16,.5,0,1.05-.24,1.65-.72,.6-.48,1.18-1.09,1.74-1.84l.53,.41c-.62,.93-1.33,1.75-2.13,2.45-.8,.7-1.66,1.04-2.57,1.04Zm-8.35-4.52c0,1.14,.21,1.96,.62,2.45,.42,.49,.94,.73,1.59,.73,.81,0,1.62-.33,2.45-.98s1.76-1.6,2.82-2.85l1.81-8.44c-.58-.42-1.2-.62-1.87-.62-.73,0-1.46,.19-2.2,.56s-1.43,.88-2.07,1.53c-.93,.96-1.69,2.11-2.27,3.47-.58,1.36-.87,2.75-.87,4.16Z"/><path d="M172.84,261.5c-.4,0-.71-.12-.93-.36-.23-.24-.34-.52-.34-.86,0-.42,.15-.76,.45-1.04,.3-.28,.66-.42,1.07-.42,.37,0,.67,.12,.89,.36,.22,.24,.33,.52,.33,.86,0,.44-.14,.79-.42,1.06s-.63,.4-1.04,.4Z"/></g><path d="M48.62,147.32c-2.35,0-4.26-.59-5.72-1.77-1.46-1.18-2.61-2.24-3.46-3.18-.47-1.22-.85-2.49-1.13-3.81-.28-1.32-.42-2.73-.42-4.24,0-5.08,1.13-9.44,3.39-13.07,2.26-3.62,5.18-6.94,8.76-9.96,3.58-3.01,7.34-5.98,11.3-8.9l4.38,4.8c-2.64,2.26-4.99,4.54-7.06,6.85-2.07,2.31-4.05,4.69-5.93,7.13l4.94,4.94c1.13,1.13,2.09,2.52,2.9,4.17,.8,1.65,1.2,3.41,1.2,5.3,0,3.2-1.3,5.96-3.88,8.26-2.59,2.31-5.67,3.46-9.25,3.46Zm29.66,0c-2.35,0-4.26-.59-5.72-1.77-1.46-1.18-2.61-2.24-3.46-3.18-.47-1.22-.85-2.49-1.13-3.81-.28-1.32-.42-2.73-.42-4.24,0-5.08,1.13-9.44,3.39-13.07,2.26-3.62,5.18-6.94,8.76-9.96,3.58-3.01,7.34-5.98,11.3-8.9l4.38,4.8c-2.64,2.26-4.99,4.54-7.06,6.85-2.07,2.31-4.05,4.69-5.93,7.13l4.94,4.94c1.13,1.13,2.09,2.52,2.9,4.17,.8,1.65,1.2,3.41,1.2,5.3,0,3.2-1.3,5.96-3.88,8.26-2.59,2.31-5.67,3.46-9.25,3.46Z"/></g><g><path d="M289.08,288.7v-2.91h7.85v2.91h-7.85Z"/><path d="M296.67,294.67l.35-1.72,2.53-.38,8.67-16.86h3.34l2.91,17.01,2.21,.23-.35,1.72h-9.51l.35-1.72,2.33-.23-.49-3.29h-6.13l-1.57,3.14,2.33,.38-.35,1.72h-6.6Zm7.09-7.07h4.97l-1.16-7.62-3.81,7.62Z"/><path d="M320.51,295.13c-.78,0-1.38-.18-1.82-.55s-.65-.88-.65-1.54c0-.47,.06-1.02,.17-1.67s.28-1.48,.49-2.49l1.28-5.96c.21-.93,.42-1.88,.61-2.83,.19-.96,.37-1.91,.52-2.86l-1.6-.32,.17-1.19,6.57-1.72,.5,.41-3.52,16.17c-.12,.46-.17,.82-.17,1.08,0,.39,.15,.58,.44,.58,.37,0,.97-.56,1.8-1.69l.96,.61c-.37,.68-.83,1.32-1.38,1.93-.55,.61-1.2,1.11-1.93,1.48-.74,.38-1.55,.57-2.44,.57Z"/><path d="M327.46,293.04c0-.47,.06-1.02,.17-1.66s.21-1.14,.29-1.51l1.37-6.57-1.69-.41,.2-1.19,6.63-1.71,.49,.44-2.24,10.15c-.12,.46-.17,.82-.17,1.08,0,.39,.14,.58,.44,.58,.37,0,.97-.56,1.8-1.69l.96,.61c-.37,.68-.83,1.32-1.38,1.93-.55,.61-1.2,1.11-1.93,1.48-.74,.38-1.55,.57-2.44,.57-.78,0-1.39-.18-1.83-.55-.45-.37-.67-.88-.67-1.54Zm5.67-15.27c-.6,0-1.14-.2-1.63-.6-.48-.4-.73-.93-.73-1.61,0-.81,.29-1.47,.87-1.98,.58-.5,1.23-.76,1.95-.76,.68,0,1.24,.21,1.67,.62,.44,.42,.65,.94,.65,1.56,0,.81-.28,1.48-.84,1.99-.56,.51-1.21,.77-1.95,.77Z"/><path d="M337.99,290.16c.54,0,1.03,.15,1.45,.45,.43,.3,.72,.84,.87,1.61l.38,1.69h.03c.62,0,1.09-.17,1.42-.51s.49-.76,.49-1.26c0-.45-.17-.88-.52-1.29-.35-.42-.86-.91-1.54-1.47-.83-.72-1.49-1.41-1.98-2.06-.49-.66-.73-1.47-.73-2.44,0-.85,.22-1.65,.65-2.38,.44-.74,1.09-1.33,1.96-1.77,.87-.45,1.94-.67,3.2-.67,1.51,0,2.61,.29,3.3,.87,.69,.58,1.12,1.3,1.29,2.15-.02,.46-.18,.85-.49,1.16-.31,.31-.75,.46-1.31,.46-.41,0-.82-.15-1.24-.45s-.76-.8-1.03-1.5l-.52-1.42c-.46,.14-.8,.38-1.02,.74-.21,.36-.32,.73-.32,1.12,0,.58,.22,1.12,.65,1.61,.44,.5,1.02,1.04,1.76,1.64,.89,.72,1.54,1.38,1.95,1.99,.41,.61,.61,1.34,.61,2.2,0,.78-.24,1.51-.71,2.2-.48,.69-1.2,1.25-2.17,1.67-.97,.43-2.21,.64-3.72,.64-1.3,0-2.36-.27-3.17-.8-.81-.53-1.31-1.32-1.48-2.37,.1-.56,.3-1,.6-1.32,.3-.32,.74-.48,1.32-.48Z"/><path d="M355.08,295.13c-1.1,0-2.11-.2-3.01-.6s-1.62-1.02-2.15-1.86c-.53-.84-.8-1.93-.8-3.27,0-1.18,.22-2.33,.65-3.45,.44-1.11,1.05-2.12,1.85-3.01,.79-.89,1.73-1.6,2.82-2.12,1.08-.52,2.27-.79,3.55-.79,1.12,0,2.13,.2,3.01,.6s1.58,1.01,2.11,1.85c.52,.83,.79,1.93,.79,3.29,0,1.18-.22,2.34-.65,3.46-.44,1.12-1.05,2.13-1.83,3.01s-1.72,1.58-2.79,2.11c-1.08,.52-2.25,.79-3.53,.79Zm.35-1.74c.52,0,1-.27,1.42-.81,.43-.54,.79-1.26,1.11-2.15,.31-.89,.55-1.87,.73-2.92,.17-1.06,.26-2.1,.26-3.12s-.13-1.72-.38-2.06c-.25-.35-.58-.52-.99-.52-.52,0-1,.28-1.44,.83-.44,.55-.81,1.28-1.12,2.17-.31,.89-.55,1.85-.71,2.88-.17,1.03-.25,2.02-.25,2.97,0,1.12,.13,1.87,.41,2.22,.27,.36,.59,.54,.96,.54Z"/><path d="M370.03,294.67l-4.51,.23-.46-.38,2.36-11.31-1.69-.32,.2-1.19,6.34-1.71,.61,.52-.49,2.56c2.07-2.02,4.03-3.02,5.87-3.02,.64,0,1.19,.21,1.66,.64,.46,.43,.7,1.08,.7,1.95,0,.37-.02,.75-.07,1.15-.05,.4-.13,.82-.25,1.26l-1.4,5.53c-.06,.23-.11,.43-.15,.6-.04,.17-.06,.33-.06,.48,0,.39,.14,.58,.41,.58,.41,0,1.03-.56,1.86-1.69l.96,.61c-.37,.68-.84,1.32-1.42,1.93-.58,.61-1.25,1.11-1.99,1.48-.75,.38-1.57,.57-2.46,.57-.78,0-1.38-.18-1.8-.55-.43-.37-.64-.88-.64-1.54,0-.47,.06-.96,.17-1.48s.22-.97,.32-1.34l1.02-4.04c.23-.87,.35-1.55,.35-2.04,0-.23-.06-.41-.19-.54-.13-.13-.29-.19-.48-.19-.37,0-.79,.12-1.26,.35-.47,.23-.97,.6-1.5,1.11l-.76,3.52c-.23,1.05-.45,2.09-.64,3.12-.19,1.04-.4,2.09-.61,3.16Z"/><path d="M401.34,277.42l.35-1.71h5.7l-.35,1.71-1.89,.35-5.84,8.78c-.19,1.01-.39,2.03-.58,3.07s-.38,2.07-.55,3.1l2.38,.23-.35,1.72h-10.03l.35-1.72,2.47-.26,1.05-5.5-3.08-9.6-1.71-.17,.35-1.71h9.48l-.35,1.71-2.09,.26,1.98,7.12,4.54-7.07-1.8-.32Z"/><path d="M416.06,295.13c-.74,0-1.34-.27-1.82-.8-.48-.53-.71-1.25-.71-2.14-.87,.97-1.79,1.7-2.75,2.2-.96,.49-1.88,.74-2.78,.74-.74,0-1.38-.23-1.92-.7-.54-.47-.81-1.09-.81-1.89,0-.37,.03-.75,.09-1.15,.06-.4,.14-.82,.23-1.26l1.6-6.83-1.77-.41,.2-1.19,6.54-1.71,.55,.52-2.04,8.46c-.08,.29-.15,.57-.2,.84-.06,.27-.09,.54-.09,.81,0,.43,.1,.72,.31,.89,.2,.17,.43,.25,.68,.25,.33,0,.68-.09,1.06-.26,.38-.17,.78-.46,1.21-.84,.04-.14,.07-.27,.1-.39,.03-.13,.05-.26,.07-.39l.99-4.59c.14-.62,.26-1.25,.38-1.88s.23-1.27,.35-1.93l4.68-1.48,.64,.52-2.3,10.06c-.12,.46-.17,.82-.17,1.08,0,.39,.15,.58,.44,.58,.35,0,.94-.56,1.77-1.69l.96,.61c-.35,.66-.79,1.29-1.34,1.9-.54,.61-1.16,1.11-1.85,1.5-.69,.39-1.46,.58-2.31,.58Z"/><path d="M427.46,295.13c-1.61,0-2.91-.5-3.9-1.51-.99-1.01-1.48-2.34-1.48-3.98,0-1.3,.22-2.52,.67-3.68,.45-1.15,1.07-2.18,1.88-3.07,.8-.89,1.76-1.59,2.86-2.09,1.11-.5,2.32-.76,3.63-.76,1.43,0,2.54,.31,3.32,.93,.77,.62,1.16,1.42,1.16,2.38,0,1.32-.73,2.49-2.2,3.5-1.46,1.02-3.56,1.85-6.3,2.49,.14,.78,.45,1.37,.93,1.77,.48,.41,1.09,.61,1.83,.61,.83,0,1.58-.2,2.24-.61,.66-.41,1.23-.91,1.71-1.51l.87,.61c-.39,.78-.93,1.54-1.61,2.3-.69,.76-1.5,1.38-2.44,1.88s-2,.74-3.18,.74Zm3.31-13.38c-.5,0-1.04,.29-1.6,.87-.56,.58-1.05,1.35-1.45,2.3-.41,.95-.64,1.99-.7,3.11,1.18-.46,2.11-.98,2.78-1.54,.67-.56,1.14-1.14,1.42-1.74s.42-1.16,.42-1.69c0-.45-.09-.78-.26-.99-.17-.21-.38-.32-.61-.32Z"/><path d="M441.27,294.67l-4.51,.23-.46-.38,2.36-11.31-1.69-.32,.2-1.19,6.34-1.71,.61,.52-.44,2.38c2-1.9,3.89-2.85,5.67-2.85,.66,0,1.22,.21,1.69,.64,.46,.43,.7,1.08,.7,1.95v.22c0,.07,0,.13-.03,.19,1.03-.97,2.03-1.71,3.01-2.22s1.92-.77,2.83-.77c.64,0,1.19,.21,1.66,.64,.47,.43,.7,1.08,.7,1.95,0,.37-.02,.75-.07,1.15-.05,.4-.13,.82-.25,1.26l-1.4,5.53c-.06,.23-.11,.43-.15,.6-.04,.17-.06,.33-.06,.48,0,.39,.14,.58,.41,.58,.41,0,1.03-.56,1.86-1.69l.96,.61c-.37,.68-.84,1.32-1.42,1.93-.58,.61-1.25,1.11-1.99,1.48s-1.57,.57-2.46,.57c-.78,0-1.38-.18-1.8-.55-.43-.37-.64-.88-.64-1.54,0-.47,.06-.96,.17-1.48s.22-.97,.32-1.34l1.02-4.04c.23-.87,.35-1.55,.35-2.04,0-.23-.06-.41-.19-.54s-.29-.19-.48-.19c-.37,0-.77,.11-1.21,.32-.44,.21-.91,.55-1.41,1.02-.02,.04-.03,.09-.03,.15s-.01,.11-.03,.14l-.7,3.34c-.21,1.05-.42,2.09-.62,3.12-.2,1.04-.41,2.09-.62,3.16l-4.51,.23-.47-.38,1.75-8.34c.1-.45,.18-.84,.25-1.19,.07-.35,.1-.64,.1-.87,0-.21-.07-.38-.2-.51-.14-.13-.28-.19-.44-.19-.37,0-.78,.1-1.22,.31-.45,.2-.91,.53-1.4,.97l-.81,3.69c-.23,1.05-.45,2.09-.64,3.12-.19,1.04-.4,2.09-.61,3.16Z"/><path d="M462.41,293.04c0-.47,.06-1.02,.17-1.66s.21-1.14,.29-1.51l1.37-6.57-1.69-.41,.2-1.19,6.63-1.71,.49,.44-2.24,10.15c-.12,.46-.17,.82-.17,1.08,0,.39,.14,.58,.44,.58,.37,0,.97-.56,1.8-1.69l.96,.61c-.37,.68-.83,1.32-1.38,1.93-.55,.61-1.2,1.11-1.93,1.48-.74,.38-1.55,.57-2.44,.57-.78,0-1.39-.18-1.83-.55-.45-.37-.67-.88-.67-1.54Zm5.67-15.27c-.6,0-1.14-.2-1.63-.6-.48-.4-.73-.93-.73-1.61,0-.81,.29-1.47,.87-1.98,.58-.5,1.23-.76,1.95-.76,.68,0,1.24,.21,1.67,.62,.44,.42,.65,.94,.65,1.56,0,.81-.28,1.48-.84,1.99-.56,.51-1.21,.77-1.95,.77Z"/><path d="M476.3,294.67l-4.51,.23-.46-.38,2.36-11.31-1.69-.32,.2-1.19,6.34-1.71,.61,.52-.49,2.56c2.07-2.02,4.03-3.02,5.87-3.02,.64,0,1.19,.21,1.66,.64,.46,.43,.7,1.08,.7,1.95,0,.37-.02,.75-.07,1.15-.05,.4-.13,.82-.25,1.26l-1.4,5.53c-.06,.23-.11,.43-.15,.6-.04,.17-.06,.33-.06,.48,0,.39,.14,.58,.41,.58,.41,0,1.03-.56,1.86-1.69l.96,.61c-.37,.68-.84,1.32-1.42,1.93-.58,.61-1.25,1.11-1.99,1.48-.75,.38-1.57,.57-2.46,.57-.78,0-1.38-.18-1.8-.55-.43-.37-.64-.88-.64-1.54,0-.47,.06-.96,.17-1.48s.22-.97,.32-1.34l1.02-4.04c.23-.87,.35-1.55,.35-2.04,0-.23-.06-.41-.19-.54-.13-.13-.29-.19-.48-.19-.37,0-.79,.12-1.26,.35-.47,.23-.97,.6-1.5,1.11l-.76,3.52c-.23,1.05-.45,2.09-.64,3.12-.19,1.04-.4,2.09-.61,3.16Z"/><path d="M489.91,286.06c0-1.07,.29-2.05,.87-2.97,.58-.91,1.37-1.65,2.36-2.21,.99-.56,2.09-.84,3.31-.84s2.15,.27,2.91,.8c.76,.53,1.26,1.15,1.51,1.85,.33-1.34,.75-2.26,1.26-2.76s1.13-.76,1.85-.76c.56,0,1.04,.13,1.42,.38,.06,.1,.11,.21,.15,.33,.04,.13,.06,.3,.06,.51,0,.95-.3,1.65-.9,2.11-.6,.46-1.53,.82-2.79,1.09-.06,.19-.11,.4-.16,.61-.05,.21-.1,.43-.16,.64-.27,1.07-.65,2.02-1.15,2.85-.49,.83-1.19,1.48-2.09,1.95s-2.1,.7-3.59,.7c-.39,0-.75-.03-1.09-.1-.34-.07-.65-.15-.95-.25-.19,.17-.31,.32-.35,.44-.04,.12-.06,.24-.06,.38,0,.23,.09,.46,.26,.67s.53,.34,1.08,.38l4.39,.35c1.14,.08,2.04,.29,2.67,.62,.64,.34,1.09,.77,1.35,1.29,.26,.52,.39,1.11,.39,1.75,0,1.07-.44,2.02-1.31,2.85-.87,.83-2.06,1.49-3.56,1.98s-3.2,.73-5.1,.73-3.28-.25-4.26-.74c-.98-.5-1.47-1.21-1.47-2.14,0-.7,.32-1.3,.96-1.82,.64-.51,1.38-.96,2.21-1.32-.39-.21-.71-.49-.96-.84s-.38-.77-.38-1.25c0-.85,.27-1.58,.81-2.17,.54-.59,1.29-1.17,2.24-1.73-.58-.43-1.02-.94-1.31-1.54-.29-.6-.44-1.2-.44-1.8Zm.55,11.43c0,.66,.33,1.17,1,1.54,.67,.37,1.59,.55,2.78,.55,1.26,0,2.22-.17,2.89-.49,.67-.33,1-.79,1-1.4,0-.93-.81-1.46-2.44-1.6l-4.51-.41c-.21,.25-.39,.53-.52,.83-.14,.3-.2,.62-.2,.97Zm5.38-8.46c.27,0,.54-.11,.8-.32,.26-.21,.48-.62,.65-1.21,.17-.59,.26-1.44,.26-2.54s-.13-2-.39-2.62c-.26-.62-.64-.93-1.12-.93-.54,0-.96,.36-1.26,1.08-.3,.72-.45,1.69-.45,2.91,0,.56,.04,1.12,.13,1.69,.09,.56,.24,1.03,.47,1.4,.22,.37,.53,.55,.92,.55Z"/><path d="M522.51,301.12c-1.9,0-3.43-.54-4.58-1.61-1.15-1.08-1.83-2.6-2.02-4.58-1.47-.43-2.68-1.27-3.62-2.53-.94-1.26-1.41-3-1.41-5.21,0-1.53,.25-3.02,.74-4.46,.49-1.44,1.22-2.74,2.18-3.88,.96-1.14,2.14-2.05,3.53-2.72,1.4-.67,2.99-1,4.8-1,1.49,0,2.8,.32,3.93,.95s2,1.54,2.63,2.72c.63,1.18,.94,2.61,.94,4.27,0,1.92-.35,3.73-1.06,5.42-.71,1.7-1.73,3.13-3.07,4.3-1.34,1.17-2.98,1.93-4.91,2.28,.16,1.12,.57,2.01,1.25,2.65,.68,.64,1.6,.96,2.76,.96,.64,0,1.19-.04,1.66-.12,.47-.08,.94-.19,1.42-.35l.58,1.42c-.64,.45-1.42,.8-2.33,1.08s-2.05,.41-3.43,.41Zm-3.81-7.62c.76,0,1.47-.31,2.15-.95,.68-.63,1.28-1.49,1.8-2.59,.52-1.09,.94-2.34,1.25-3.75,.31-1.41,.46-2.88,.46-4.43,0-1.67-.18-2.9-.54-3.71-.36-.8-1.01-1.21-1.96-1.21-.76,0-1.48,.3-2.17,.92-.69,.61-1.3,1.45-1.85,2.51-.54,1.07-.97,2.29-1.28,3.66-.31,1.38-.46,2.84-.46,4.39,0,1.76,.2,3.06,.61,3.9,.41,.83,1.07,1.25,1.98,1.25Z"/><path d="M542.08,295.13c-.74,0-1.34-.27-1.82-.8-.48-.53-.71-1.25-.71-2.14-.87,.97-1.79,1.7-2.75,2.2-.96,.49-1.88,.74-2.78,.74-.74,0-1.38-.23-1.92-.7-.54-.47-.81-1.09-.81-1.89,0-.37,.03-.75,.09-1.15,.06-.4,.14-.82,.23-1.26l1.6-6.83-1.77-.41,.2-1.19,6.54-1.71,.55,.52-2.04,8.46c-.08,.29-.15,.57-.2,.84-.06,.27-.09,.54-.09,.81,0,.43,.1,.72,.31,.89,.2,.17,.43,.25,.68,.25,.33,0,.68-.09,1.06-.26,.38-.17,.78-.46,1.21-.84,.04-.14,.07-.27,.1-.39,.03-.13,.05-.26,.07-.39l.99-4.59c.14-.62,.26-1.25,.38-1.88s.23-1.27,.35-1.93l4.68-1.48,.64,.52-2.3,10.06c-.12,.46-.17,.82-.17,1.08,0,.39,.15,.58,.44,.58,.35,0,.94-.56,1.77-1.69l.96,.61c-.35,.66-.79,1.29-1.34,1.9-.54,.61-1.16,1.11-1.85,1.5-.69,.39-1.46,.58-2.31,.58Z"/><path d="M306.77,318.82h-5.21v-14.37h5.21v.92h-4.25v5.46h4.01v.92h-4.01v6.14h4.25v.92Z"/><path d="M310.61,313.29l-2.34-5.13h1.01l1.79,4.33,1.87-4.33h.97l-2.38,5.25,2.5,5.42h-.98l-2-4.61-2.01,4.61h-.96l2.54-5.53Z"/><path d="M318.83,319.02c-1.13,0-1.99-.48-2.6-1.44-.61-.96-.91-2.3-.91-4.02,0-1.82,.27-3.21,.81-4.17,.54-.96,1.32-1.44,2.33-1.44,.88,0,1.58,.42,2.09,1.26,.51,.84,.77,1.98,.77,3.41v.87h-5.05c.01,1.55,.23,2.72,.66,3.49s1.07,1.16,1.94,1.16c.67,0,1.37-.22,2.11-.66v.9c-.68,.43-1.4,.64-2.15,.64Zm-.42-10.22c-1.29,0-1.99,1.28-2.11,3.84h4.1c0-1.17-.18-2.11-.54-2.8-.36-.69-.84-1.04-1.45-1.04Z"/><path d="M326.43,319.02c-1.07,0-1.87-.46-2.41-1.39-.54-.93-.81-2.29-.81-4.08s.27-3.21,.82-4.16c.55-.95,1.35-1.43,2.42-1.43,.66,0,1.21,.12,1.65,.36l-.36,.83c-.44-.2-.84-.3-1.21-.3-1.57,0-2.35,1.56-2.35,4.69s.78,4.65,2.35,4.65c.47,0,.97-.11,1.51-.31v.79c-.22,.12-.48,.21-.8,.28-.31,.07-.59,.1-.82,.1Z"/><path d="M330.83,308.16v6.96c0,1.06,.13,1.83,.38,2.31,.25,.48,.64,.73,1.17,.73,.81,0,1.4-.33,1.77-.98s.57-1.71,.57-3.16v-5.86h.92v10.67h-.79l-.12-1.49h-.08c-.23,.54-.55,.96-.95,1.25-.41,.29-.85,.44-1.33,.44-.86,0-1.49-.3-1.88-.91s-.59-1.61-.59-2.99v-6.96h.93Z"/><path d="M340.44,318.15c.29,0,.54-.04,.77-.12v.79c-.29,.13-.66,.2-1.11,.2-1.1,0-1.65-.82-1.65-2.47v-7.57h-.96v-.55l.94-.28,.3-2.54h.65v2.54h1.69v.83h-1.69v7.3c0,.72,.08,1.21,.24,1.47s.43,.39,.83,.39Z"/><path d="M342.76,305.2c0-.29,.06-.52,.18-.69s.28-.25,.47-.25c.18,0,.32,.08,.42,.25,.1,.16,.16,.39,.16,.69s-.05,.51-.16,.67c-.11,.17-.25,.25-.42,.25-.19,0-.35-.08-.47-.25s-.18-.39-.18-.67Zm1.07,13.62h-.93v-10.67h.93v10.67Z"/><path d="M347.87,318.82l-2.52-10.67h.94l1.59,6.86c.18,.79,.36,1.66,.53,2.59h.08c.04-.34,.11-.72,.2-1.14,.08-.42,.73-3.19,1.94-8.32h.94l-2.59,10.67h-1.11Z"/><path d="M356.13,319.02c-1.13,0-1.99-.48-2.6-1.44-.61-.96-.91-2.3-.91-4.02,0-1.82,.27-3.21,.81-4.17,.54-.96,1.32-1.44,2.33-1.44,.88,0,1.58,.42,2.09,1.26,.51,.84,.77,1.98,.77,3.41v.87h-5.05c.01,1.55,.23,2.72,.66,3.49s1.07,1.16,1.94,1.16c.67,0,1.37-.22,2.11-.66v.9c-.68,.43-1.4,.64-2.15,.64Zm-.42-10.22c-1.29,0-1.99,1.28-2.11,3.84h4.1c0-1.17-.18-2.11-.54-2.8-.36-.69-.84-1.04-1.45-1.04Z"/><path d="M368.21,319.02c-.54,0-1.03-.15-1.47-.45-.44-.3-.78-.71-1.01-1.22h-.09l.07,1.17v5.14h-.93v-15.5h.77l.1,1.46h.09c.26-.54,.6-.95,1.01-1.24,.41-.29,.86-.43,1.34-.43,2.08,0,3.13,1.84,3.13,5.51,0,1.78-.26,3.15-.77,4.11-.51,.96-1.25,1.44-2.23,1.44Zm-.19-10.18c-.78,0-1.36,.34-1.74,1.03-.38,.69-.57,1.77-.57,3.23v.3c0,1.64,.19,2.84,.58,3.61,.39,.77,.98,1.16,1.77,1.16,.73,0,1.28-.38,1.64-1.15s.54-1.95,.54-3.56-.17-2.7-.5-3.47c-.33-.77-.9-1.16-1.71-1.16Z"/><path d="M376.51,307.95c.33,0,.65,.05,.93,.14l-.23,.93c-.24-.1-.48-.15-.73-.15-.36,0-.7,.19-1.01,.56s-.55,.89-.73,1.55c-.18,.66-.26,1.39-.26,2.19v5.65h-.93v-10.67h.77l.1,1.87h.07c.5-1.38,1.17-2.07,2.02-2.07Z"/><path d="M385.05,313.46c0,1.8-.28,3.17-.85,4.12-.57,.95-1.38,1.43-2.43,1.43s-1.84-.48-2.39-1.43c-.55-.95-.83-2.33-.83-4.12,0-3.68,1.09-5.51,3.26-5.51,1.02,0,1.82,.48,2.39,1.44,.57,.96,.85,2.32,.85,4.07Zm-5.53,0c0,1.54,.18,2.7,.55,3.49,.37,.79,.94,1.18,1.72,1.18,1.53,0,2.29-1.56,2.29-4.67s-.76-4.63-2.29-4.63c-.8,0-1.38,.39-1.74,1.16-.36,.77-.54,1.93-.54,3.47Z"/><path d="M390.01,319.02c-2.07,0-3.11-1.84-3.11-5.51,0-1.81,.26-3.19,.78-4.13,.52-.95,1.28-1.42,2.29-1.42,.48,0,.93,.14,1.36,.41,.43,.27,.77,.66,1.03,1.14h.08l-.04-1.19v-4.79h.93v15.29h-.77l-.08-1.49h-.09c-.26,.54-.59,.96-.99,1.25-.41,.29-.87,.44-1.4,.44Zm.06-.82c.75,0,1.32-.35,1.73-1.04,.4-.69,.6-1.71,.6-3.05v-.61c0-1.61-.2-2.79-.58-3.54-.39-.75-.99-1.12-1.78-1.12s-1.32,.4-1.65,1.2-.5,1.96-.5,3.48,.17,2.7,.52,3.49,.9,1.19,1.67,1.19Z"/><path d="M397.08,308.16v6.96c0,1.06,.13,1.83,.38,2.31,.25,.48,.64,.73,1.17,.73,.81,0,1.4-.33,1.77-.98s.57-1.71,.57-3.16v-5.86h.92v10.67h-.79l-.12-1.49h-.08c-.23,.54-.55,.96-.95,1.25-.41,.29-.85,.44-1.33,.44-.86,0-1.49-.3-1.88-.91s-.59-1.61-.59-2.99v-6.96h.93Z"/><path d="M407.48,319.02c-1.07,0-1.87-.46-2.41-1.39-.54-.93-.81-2.29-.81-4.08s.27-3.21,.82-4.16c.55-.95,1.35-1.43,2.42-1.43,.66,0,1.21,.12,1.65,.36l-.36,.83c-.44-.2-.84-.3-1.21-.3-1.57,0-2.35,1.56-2.35,4.69s.78,4.65,2.35,4.65c.47,0,.97-.11,1.51-.31v.79c-.22,.12-.48,.21-.8,.28-.31,.07-.59,.1-.82,.1Z"/><path d="M414,319.02c-1.13,0-1.99-.48-2.6-1.44-.61-.96-.91-2.3-.91-4.02,0-1.82,.27-3.21,.81-4.17,.54-.96,1.32-1.44,2.33-1.44,.88,0,1.58,.42,2.09,1.26,.51,.84,.77,1.98,.77,3.41v.87h-5.05c.01,1.55,.23,2.72,.66,3.49s1.07,1.16,1.94,1.16c.67,0,1.37-.22,2.11-.66v.9c-.68,.43-1.4,.64-2.15,.64Zm-.42-10.22c-1.29,0-1.99,1.28-2.11,3.84h4.1c0-1.17-.18-2.11-.54-2.8-.36-.69-.84-1.04-1.45-1.04Z"/><path d="M421.83,307.95c.33,0,.65,.05,.93,.14l-.23,.93c-.24-.1-.48-.15-.73-.15-.36,0-.7,.19-1.01,.56s-.55,.89-.73,1.55c-.18,.66-.26,1.39-.26,2.19v5.65h-.93v-10.67h.77l.1,1.87h.07c.5-1.38,1.17-2.07,2.02-2.07Z"/><path d="M434.15,313.46c0,1.8-.28,3.17-.85,4.12-.57,.95-1.38,1.43-2.43,1.43s-1.84-.48-2.39-1.43c-.55-.95-.83-2.33-.83-4.12,0-3.68,1.09-5.51,3.26-5.51,1.02,0,1.82,.48,2.39,1.44,.57,.96,.85,2.32,.85,4.07Zm-5.53,0c0,1.54,.18,2.7,.55,3.49,.37,.79,.94,1.18,1.72,1.18,1.53,0,2.29-1.56,2.29-4.67s-.76-4.63-2.29-4.63c-.8,0-1.38,.39-1.74,1.16-.36,.77-.54,1.93-.54,3.47Z"/><path d="M439.22,308.98h-1.67v9.84h-.92v-9.84h-1.36v-.53l1.36-.4v-.81c0-1.36,.16-2.33,.48-2.93,.32-.6,.88-.89,1.67-.89,.46,0,.87,.08,1.25,.25l-.32,.86c-.35-.16-.66-.25-.94-.25-.32,0-.56,.09-.73,.28-.16,.19-.29,.5-.36,.92-.08,.43-.12,1.02-.12,1.77v.89h1.67v.83Z"/><path d="M448.94,305.15c-1.08,0-1.94,.57-2.58,1.72s-.96,2.73-.96,4.75c0,1.32,.15,2.46,.44,3.44s.72,1.73,1.27,2.25c.55,.52,1.19,.79,1.92,.79s1.39-.13,1.93-.4v.88c-.51,.29-1.18,.44-2.02,.44-.91,0-1.71-.29-2.39-.88-.68-.59-1.21-1.44-1.59-2.56-.37-1.12-.56-2.44-.56-3.98,0-2.29,.41-4.1,1.22-5.41,.82-1.31,1.93-1.97,3.34-1.97,.88,0,1.65,.2,2.3,.61l-.44,.85c-.55-.35-1.18-.53-1.88-.53Z"/><path d="M460.28,318.82h-.96v-7.07h-5.01v7.07h-.96v-14.37h.96v6.38h5.01v-6.38h.96v14.37Z"/><path d="M470.34,304.45v9.7c0,3.24-1.16,4.87-3.48,4.87-1.16,0-2.04-.42-2.65-1.26s-.91-2.04-.91-3.61v-9.7h.97v9.82c0,1.25,.22,2.19,.67,2.85,.45,.65,1.09,.98,1.92,.98s1.45-.33,1.88-.98c.43-.65,.64-1.61,.64-2.88v-9.78h.96Z"/><path d="M478.8,318.82l-1.27-5.21h-3.49l-1.25,5.21h-1l3.46-14.37h.99l3.54,14.37h-.98Zm-1.49-6.18l-1.27-5.36c-.13-.6-.23-1.17-.3-1.71-.06,.57-.15,1.14-.28,1.71l-1.23,5.36h3.08Z"/><path d="M488.93,318.82h-1.23l-5.44-12.89h-.08c.08,.89,.12,1.75,.12,2.58v10.31h-.94v-14.37h1.25l5.4,12.74h.06c-.05-1.07-.08-1.97-.08-2.69v-10.04h.94v14.37Z"/><path d="M496.8,311.58h3.15v6.8c-1.09,.43-2.23,.64-3.41,.64-1.57,0-2.78-.66-3.65-1.97s-1.3-3.13-1.3-5.46,.45-4.14,1.34-5.43,2.15-1.93,3.77-1.93c1.09,0,2.11,.31,3.08,.92l-.46,.85c-.9-.58-1.78-.87-2.61-.87-1.34,0-2.36,.55-3.05,1.66-.69,1.1-1.04,2.71-1.04,4.81s.35,3.65,1.05,4.78c.7,1.13,1.69,1.7,2.96,1.7,.92,0,1.7-.12,2.35-.36v-5.23h-2.17v-.92Z"/><path d="M511.94,315.06c0,1.18-.33,2.13-.98,2.87s-1.49,1.1-2.5,1.1c-1.15,0-2.07-.17-2.76-.5v-1.04c.34,.19,.76,.34,1.27,.45s1,.17,1.49,.17c.73,0,1.34-.28,1.81-.83,.47-.56,.71-1.26,.71-2.12,0-.79-.17-1.42-.5-1.89-.33-.46-.97-.93-1.92-1.4-.74-.37-1.29-.74-1.66-1.09-.37-.35-.64-.76-.82-1.22-.18-.46-.27-1.02-.27-1.67,0-.71,.14-1.34,.43-1.89s.69-.98,1.21-1.28,1.08-.46,1.7-.46c.56,0,1.06,.06,1.52,.19,.46,.12,.81,.26,1.08,.4l-.37,.92c-.73-.37-1.47-.56-2.22-.56-.71,0-1.28,.24-1.73,.72-.44,.48-.66,1.12-.66,1.91s.16,1.43,.48,1.88c.32,.45,.95,.91,1.89,1.39,.97,.47,1.68,1.02,2.13,1.66,.45,.63,.67,1.4,.67,2.3Z"/><path d="M516.19,318.15c.29,0,.54-.04,.77-.12v.79c-.29,.13-.66,.2-1.11,.2-1.1,0-1.65-.82-1.65-2.47v-7.57h-.96v-.55l.94-.28,.3-2.54h.65v2.54h1.69v.83h-1.69v7.3c0,.72,.08,1.21,.24,1.47s.43,.39,.83,.39Z"/><path d="M522.77,318.82l-.12-1.49h-.04c-.51,1.13-1.28,1.69-2.32,1.69-.69,0-1.25-.28-1.68-.83s-.63-1.3-.63-2.23c0-1.02,.3-1.82,.91-2.41s1.46-.92,2.57-.97l1.15-.06v-.88c0-1-.12-1.72-.37-2.18s-.66-.68-1.24-.68c-.61,0-1.23,.2-1.87,.6l-.4-.74c.74-.46,1.52-.69,2.33-.69,.88,0,1.51,.28,1.9,.83,.39,.55,.58,1.48,.58,2.78v7.26h-.77Zm-2.27-.6c.67,0,1.19-.33,1.56-.99,.37-.66,.56-1.59,.56-2.8v-1.11l-1.11,.06c-.86,.05-1.5,.28-1.91,.71-.42,.43-.62,1.06-.62,1.88,0,.77,.14,1.34,.41,1.7,.28,.36,.65,.54,1.12,.54Z"/><path d="M531.93,308.16v.66l-1.45,.17c.2,.25,.36,.62,.48,1.1,.12,.48,.19,.96,.19,1.46,0,1.04-.23,1.87-.7,2.52-.47,.64-1.09,.96-1.85,.96h-.24l-.21-.02c-.31,.22-.56,.45-.74,.67-.18,.22-.27,.48-.27,.78s.12,.54,.35,.7,.55,.25,.95,.25h.67c.95,0,1.69,.25,2.21,.74,.52,.49,.79,1.2,.79,2.13,0,1.04-.35,1.87-1.06,2.48-.71,.61-1.63,.91-2.79,.91-.96,0-1.7-.24-2.22-.73s-.78-1.19-.78-2.11c0-.67,.17-1.24,.51-1.71,.34-.48,.87-.85,1.6-1.13-.33-.14-.59-.34-.79-.6-.2-.25-.3-.56-.3-.91,0-.32,.11-.61,.32-.86,.21-.25,.52-.52,.91-.81-.54-.25-.96-.65-1.23-1.21-.28-.56-.42-1.21-.42-1.97,0-1.13,.24-2.03,.72-2.68,.48-.65,1.13-.98,1.97-.98,.45,0,.82,.07,1.12,.21h2.26Zm-5.74,12.58c0,.67,.18,1.2,.53,1.58s.88,.57,1.59,.57c.88,0,1.57-.23,2.09-.69,.51-.46,.77-1.09,.77-1.89,0-.64-.17-1.14-.53-1.49s-.86-.53-1.53-.53h-.69c-.64,0-1.17,.22-1.6,.67-.42,.45-.63,1.04-.63,1.76Zm.58-9.1c0,.87,.16,1.53,.48,1.98,.32,.45,.75,.67,1.28,.67,1.14,0,1.71-.92,1.71-2.75,0-.88-.15-1.58-.44-2.07-.29-.5-.72-.75-1.27-.75s-1.01,.26-1.31,.77c-.3,.51-.45,1.23-.45,2.15Z"/><path d="M536.66,319.02c-1.13,0-1.99-.48-2.6-1.44-.61-.96-.91-2.3-.91-4.02,0-1.82,.27-3.21,.81-4.17,.54-.96,1.32-1.44,2.33-1.44,.88,0,1.58,.42,2.09,1.26,.51,.84,.77,1.98,.77,3.41v.87h-5.05c.01,1.55,.23,2.72,.66,3.49s1.07,1.16,1.94,1.16c.67,0,1.37-.22,2.11-.66v.9c-.68,.43-1.4,.64-2.15,.64Zm-.42-10.22c-1.29,0-1.99,1.28-2.11,3.84h4.1c0-1.17-.18-2.11-.54-2.8-.36-.69-.84-1.04-1.45-1.04Z"/></g></g></g></svg>